G75*
%MOIN*%
%OFA0B0*%
%FSLAX25Y25*%
%IPPOS*%
%LPD*%
%AMOC8*
5,1,8,0,0,1.08239X$1,22.5*
%
%ADD10C,0.00000*%
%ADD11C,0.05543*%
%ADD12OC8,0.06000*%
%ADD13R,0.06000X0.06000*%
%ADD14C,0.06000*%
%ADD15C,0.09750*%
%ADD16R,0.01181X0.05906*%
%ADD17R,0.05906X0.01181*%
%ADD18R,0.03937X0.04331*%
%ADD19R,0.04331X0.03937*%
%ADD20C,0.15748*%
%ADD21R,0.06500X0.06500*%
%ADD22C,0.06500*%
%ADD23R,0.02362X0.03937*%
%ADD24R,0.03937X0.02362*%
%ADD25R,0.08661X0.05512*%
%ADD26C,0.19685*%
%ADD27C,0.01181*%
%ADD28C,0.03150*%
%ADD29C,0.00709*%
%ADD30C,0.03150*%
%ADD31C,0.01969*%
%ADD32C,0.00787*%
%ADD33C,0.03543*%
%ADD34C,0.03937*%
%ADD35C,0.03937*%
D10*
X0084766Y0008930D02*
X0084766Y0201844D01*
X0380829Y0201844D01*
X0380829Y0008930D01*
X0084766Y0008930D01*
X0109569Y0085387D02*
X0109571Y0085512D01*
X0109577Y0085637D01*
X0109587Y0085761D01*
X0109601Y0085885D01*
X0109618Y0086009D01*
X0109640Y0086132D01*
X0109666Y0086254D01*
X0109695Y0086376D01*
X0109728Y0086496D01*
X0109766Y0086615D01*
X0109806Y0086734D01*
X0109851Y0086850D01*
X0109899Y0086965D01*
X0109951Y0087079D01*
X0110007Y0087191D01*
X0110066Y0087301D01*
X0110128Y0087409D01*
X0110194Y0087516D01*
X0110263Y0087620D01*
X0110336Y0087721D01*
X0110411Y0087821D01*
X0110490Y0087918D01*
X0110572Y0088012D01*
X0110657Y0088104D01*
X0110744Y0088193D01*
X0110835Y0088279D01*
X0110928Y0088362D01*
X0111024Y0088443D01*
X0111122Y0088520D01*
X0111222Y0088594D01*
X0111325Y0088665D01*
X0111430Y0088732D01*
X0111538Y0088797D01*
X0111647Y0088857D01*
X0111758Y0088915D01*
X0111871Y0088968D01*
X0111985Y0089018D01*
X0112101Y0089065D01*
X0112218Y0089107D01*
X0112337Y0089146D01*
X0112457Y0089182D01*
X0112578Y0089213D01*
X0112700Y0089241D01*
X0112822Y0089264D01*
X0112946Y0089284D01*
X0113070Y0089300D01*
X0113194Y0089312D01*
X0113319Y0089320D01*
X0113444Y0089324D01*
X0113568Y0089324D01*
X0113693Y0089320D01*
X0113818Y0089312D01*
X0113942Y0089300D01*
X0114066Y0089284D01*
X0114190Y0089264D01*
X0114312Y0089241D01*
X0114434Y0089213D01*
X0114555Y0089182D01*
X0114675Y0089146D01*
X0114794Y0089107D01*
X0114911Y0089065D01*
X0115027Y0089018D01*
X0115141Y0088968D01*
X0115254Y0088915D01*
X0115365Y0088857D01*
X0115475Y0088797D01*
X0115582Y0088732D01*
X0115687Y0088665D01*
X0115790Y0088594D01*
X0115890Y0088520D01*
X0115988Y0088443D01*
X0116084Y0088362D01*
X0116177Y0088279D01*
X0116268Y0088193D01*
X0116355Y0088104D01*
X0116440Y0088012D01*
X0116522Y0087918D01*
X0116601Y0087821D01*
X0116676Y0087721D01*
X0116749Y0087620D01*
X0116818Y0087516D01*
X0116884Y0087409D01*
X0116946Y0087301D01*
X0117005Y0087191D01*
X0117061Y0087079D01*
X0117113Y0086965D01*
X0117161Y0086850D01*
X0117206Y0086734D01*
X0117246Y0086615D01*
X0117284Y0086496D01*
X0117317Y0086376D01*
X0117346Y0086254D01*
X0117372Y0086132D01*
X0117394Y0086009D01*
X0117411Y0085885D01*
X0117425Y0085761D01*
X0117435Y0085637D01*
X0117441Y0085512D01*
X0117443Y0085387D01*
X0117441Y0085262D01*
X0117435Y0085137D01*
X0117425Y0085013D01*
X0117411Y0084889D01*
X0117394Y0084765D01*
X0117372Y0084642D01*
X0117346Y0084520D01*
X0117317Y0084398D01*
X0117284Y0084278D01*
X0117246Y0084159D01*
X0117206Y0084040D01*
X0117161Y0083924D01*
X0117113Y0083809D01*
X0117061Y0083695D01*
X0117005Y0083583D01*
X0116946Y0083473D01*
X0116884Y0083365D01*
X0116818Y0083258D01*
X0116749Y0083154D01*
X0116676Y0083053D01*
X0116601Y0082953D01*
X0116522Y0082856D01*
X0116440Y0082762D01*
X0116355Y0082670D01*
X0116268Y0082581D01*
X0116177Y0082495D01*
X0116084Y0082412D01*
X0115988Y0082331D01*
X0115890Y0082254D01*
X0115790Y0082180D01*
X0115687Y0082109D01*
X0115582Y0082042D01*
X0115474Y0081977D01*
X0115365Y0081917D01*
X0115254Y0081859D01*
X0115141Y0081806D01*
X0115027Y0081756D01*
X0114911Y0081709D01*
X0114794Y0081667D01*
X0114675Y0081628D01*
X0114555Y0081592D01*
X0114434Y0081561D01*
X0114312Y0081533D01*
X0114190Y0081510D01*
X0114066Y0081490D01*
X0113942Y0081474D01*
X0113818Y0081462D01*
X0113693Y0081454D01*
X0113568Y0081450D01*
X0113444Y0081450D01*
X0113319Y0081454D01*
X0113194Y0081462D01*
X0113070Y0081474D01*
X0112946Y0081490D01*
X0112822Y0081510D01*
X0112700Y0081533D01*
X0112578Y0081561D01*
X0112457Y0081592D01*
X0112337Y0081628D01*
X0112218Y0081667D01*
X0112101Y0081709D01*
X0111985Y0081756D01*
X0111871Y0081806D01*
X0111758Y0081859D01*
X0111647Y0081917D01*
X0111537Y0081977D01*
X0111430Y0082042D01*
X0111325Y0082109D01*
X0111222Y0082180D01*
X0111122Y0082254D01*
X0111024Y0082331D01*
X0110928Y0082412D01*
X0110835Y0082495D01*
X0110744Y0082581D01*
X0110657Y0082670D01*
X0110572Y0082762D01*
X0110490Y0082856D01*
X0110411Y0082953D01*
X0110336Y0083053D01*
X0110263Y0083154D01*
X0110194Y0083258D01*
X0110128Y0083365D01*
X0110066Y0083473D01*
X0110007Y0083583D01*
X0109951Y0083695D01*
X0109899Y0083809D01*
X0109851Y0083924D01*
X0109806Y0084040D01*
X0109766Y0084159D01*
X0109728Y0084278D01*
X0109695Y0084398D01*
X0109666Y0084520D01*
X0109640Y0084642D01*
X0109618Y0084765D01*
X0109601Y0084889D01*
X0109587Y0085013D01*
X0109577Y0085137D01*
X0109571Y0085262D01*
X0109569Y0085387D01*
X0109569Y0125387D02*
X0109571Y0125512D01*
X0109577Y0125637D01*
X0109587Y0125761D01*
X0109601Y0125885D01*
X0109618Y0126009D01*
X0109640Y0126132D01*
X0109666Y0126254D01*
X0109695Y0126376D01*
X0109728Y0126496D01*
X0109766Y0126615D01*
X0109806Y0126734D01*
X0109851Y0126850D01*
X0109899Y0126965D01*
X0109951Y0127079D01*
X0110007Y0127191D01*
X0110066Y0127301D01*
X0110128Y0127409D01*
X0110194Y0127516D01*
X0110263Y0127620D01*
X0110336Y0127721D01*
X0110411Y0127821D01*
X0110490Y0127918D01*
X0110572Y0128012D01*
X0110657Y0128104D01*
X0110744Y0128193D01*
X0110835Y0128279D01*
X0110928Y0128362D01*
X0111024Y0128443D01*
X0111122Y0128520D01*
X0111222Y0128594D01*
X0111325Y0128665D01*
X0111430Y0128732D01*
X0111538Y0128797D01*
X0111647Y0128857D01*
X0111758Y0128915D01*
X0111871Y0128968D01*
X0111985Y0129018D01*
X0112101Y0129065D01*
X0112218Y0129107D01*
X0112337Y0129146D01*
X0112457Y0129182D01*
X0112578Y0129213D01*
X0112700Y0129241D01*
X0112822Y0129264D01*
X0112946Y0129284D01*
X0113070Y0129300D01*
X0113194Y0129312D01*
X0113319Y0129320D01*
X0113444Y0129324D01*
X0113568Y0129324D01*
X0113693Y0129320D01*
X0113818Y0129312D01*
X0113942Y0129300D01*
X0114066Y0129284D01*
X0114190Y0129264D01*
X0114312Y0129241D01*
X0114434Y0129213D01*
X0114555Y0129182D01*
X0114675Y0129146D01*
X0114794Y0129107D01*
X0114911Y0129065D01*
X0115027Y0129018D01*
X0115141Y0128968D01*
X0115254Y0128915D01*
X0115365Y0128857D01*
X0115475Y0128797D01*
X0115582Y0128732D01*
X0115687Y0128665D01*
X0115790Y0128594D01*
X0115890Y0128520D01*
X0115988Y0128443D01*
X0116084Y0128362D01*
X0116177Y0128279D01*
X0116268Y0128193D01*
X0116355Y0128104D01*
X0116440Y0128012D01*
X0116522Y0127918D01*
X0116601Y0127821D01*
X0116676Y0127721D01*
X0116749Y0127620D01*
X0116818Y0127516D01*
X0116884Y0127409D01*
X0116946Y0127301D01*
X0117005Y0127191D01*
X0117061Y0127079D01*
X0117113Y0126965D01*
X0117161Y0126850D01*
X0117206Y0126734D01*
X0117246Y0126615D01*
X0117284Y0126496D01*
X0117317Y0126376D01*
X0117346Y0126254D01*
X0117372Y0126132D01*
X0117394Y0126009D01*
X0117411Y0125885D01*
X0117425Y0125761D01*
X0117435Y0125637D01*
X0117441Y0125512D01*
X0117443Y0125387D01*
X0117441Y0125262D01*
X0117435Y0125137D01*
X0117425Y0125013D01*
X0117411Y0124889D01*
X0117394Y0124765D01*
X0117372Y0124642D01*
X0117346Y0124520D01*
X0117317Y0124398D01*
X0117284Y0124278D01*
X0117246Y0124159D01*
X0117206Y0124040D01*
X0117161Y0123924D01*
X0117113Y0123809D01*
X0117061Y0123695D01*
X0117005Y0123583D01*
X0116946Y0123473D01*
X0116884Y0123365D01*
X0116818Y0123258D01*
X0116749Y0123154D01*
X0116676Y0123053D01*
X0116601Y0122953D01*
X0116522Y0122856D01*
X0116440Y0122762D01*
X0116355Y0122670D01*
X0116268Y0122581D01*
X0116177Y0122495D01*
X0116084Y0122412D01*
X0115988Y0122331D01*
X0115890Y0122254D01*
X0115790Y0122180D01*
X0115687Y0122109D01*
X0115582Y0122042D01*
X0115474Y0121977D01*
X0115365Y0121917D01*
X0115254Y0121859D01*
X0115141Y0121806D01*
X0115027Y0121756D01*
X0114911Y0121709D01*
X0114794Y0121667D01*
X0114675Y0121628D01*
X0114555Y0121592D01*
X0114434Y0121561D01*
X0114312Y0121533D01*
X0114190Y0121510D01*
X0114066Y0121490D01*
X0113942Y0121474D01*
X0113818Y0121462D01*
X0113693Y0121454D01*
X0113568Y0121450D01*
X0113444Y0121450D01*
X0113319Y0121454D01*
X0113194Y0121462D01*
X0113070Y0121474D01*
X0112946Y0121490D01*
X0112822Y0121510D01*
X0112700Y0121533D01*
X0112578Y0121561D01*
X0112457Y0121592D01*
X0112337Y0121628D01*
X0112218Y0121667D01*
X0112101Y0121709D01*
X0111985Y0121756D01*
X0111871Y0121806D01*
X0111758Y0121859D01*
X0111647Y0121917D01*
X0111537Y0121977D01*
X0111430Y0122042D01*
X0111325Y0122109D01*
X0111222Y0122180D01*
X0111122Y0122254D01*
X0111024Y0122331D01*
X0110928Y0122412D01*
X0110835Y0122495D01*
X0110744Y0122581D01*
X0110657Y0122670D01*
X0110572Y0122762D01*
X0110490Y0122856D01*
X0110411Y0122953D01*
X0110336Y0123053D01*
X0110263Y0123154D01*
X0110194Y0123258D01*
X0110128Y0123365D01*
X0110066Y0123473D01*
X0110007Y0123583D01*
X0109951Y0123695D01*
X0109899Y0123809D01*
X0109851Y0123924D01*
X0109806Y0124040D01*
X0109766Y0124159D01*
X0109728Y0124278D01*
X0109695Y0124398D01*
X0109666Y0124520D01*
X0109640Y0124642D01*
X0109618Y0124765D01*
X0109601Y0124889D01*
X0109587Y0125013D01*
X0109577Y0125137D01*
X0109571Y0125262D01*
X0109569Y0125387D01*
X0331703Y0098360D02*
X0331705Y0098532D01*
X0331711Y0098703D01*
X0331722Y0098875D01*
X0331737Y0099046D01*
X0331756Y0099217D01*
X0331779Y0099387D01*
X0331806Y0099557D01*
X0331838Y0099726D01*
X0331873Y0099894D01*
X0331913Y0100061D01*
X0331957Y0100227D01*
X0332004Y0100392D01*
X0332056Y0100556D01*
X0332112Y0100718D01*
X0332172Y0100879D01*
X0332236Y0101039D01*
X0332304Y0101197D01*
X0332375Y0101353D01*
X0332450Y0101507D01*
X0332530Y0101660D01*
X0332612Y0101810D01*
X0332699Y0101959D01*
X0332789Y0102105D01*
X0332883Y0102249D01*
X0332980Y0102391D01*
X0333081Y0102530D01*
X0333185Y0102667D01*
X0333292Y0102801D01*
X0333403Y0102932D01*
X0333516Y0103061D01*
X0333633Y0103187D01*
X0333753Y0103310D01*
X0333876Y0103430D01*
X0334002Y0103547D01*
X0334131Y0103660D01*
X0334262Y0103771D01*
X0334396Y0103878D01*
X0334533Y0103982D01*
X0334672Y0104083D01*
X0334814Y0104180D01*
X0334958Y0104274D01*
X0335104Y0104364D01*
X0335253Y0104451D01*
X0335403Y0104533D01*
X0335556Y0104613D01*
X0335710Y0104688D01*
X0335866Y0104759D01*
X0336024Y0104827D01*
X0336184Y0104891D01*
X0336345Y0104951D01*
X0336507Y0105007D01*
X0336671Y0105059D01*
X0336836Y0105106D01*
X0337002Y0105150D01*
X0337169Y0105190D01*
X0337337Y0105225D01*
X0337506Y0105257D01*
X0337676Y0105284D01*
X0337846Y0105307D01*
X0338017Y0105326D01*
X0338188Y0105341D01*
X0338360Y0105352D01*
X0338531Y0105358D01*
X0338703Y0105360D01*
X0338875Y0105358D01*
X0339046Y0105352D01*
X0339218Y0105341D01*
X0339389Y0105326D01*
X0339560Y0105307D01*
X0339730Y0105284D01*
X0339900Y0105257D01*
X0340069Y0105225D01*
X0340237Y0105190D01*
X0340404Y0105150D01*
X0340570Y0105106D01*
X0340735Y0105059D01*
X0340899Y0105007D01*
X0341061Y0104951D01*
X0341222Y0104891D01*
X0341382Y0104827D01*
X0341540Y0104759D01*
X0341696Y0104688D01*
X0341850Y0104613D01*
X0342003Y0104533D01*
X0342153Y0104451D01*
X0342302Y0104364D01*
X0342448Y0104274D01*
X0342592Y0104180D01*
X0342734Y0104083D01*
X0342873Y0103982D01*
X0343010Y0103878D01*
X0343144Y0103771D01*
X0343275Y0103660D01*
X0343404Y0103547D01*
X0343530Y0103430D01*
X0343653Y0103310D01*
X0343773Y0103187D01*
X0343890Y0103061D01*
X0344003Y0102932D01*
X0344114Y0102801D01*
X0344221Y0102667D01*
X0344325Y0102530D01*
X0344426Y0102391D01*
X0344523Y0102249D01*
X0344617Y0102105D01*
X0344707Y0101959D01*
X0344794Y0101810D01*
X0344876Y0101660D01*
X0344956Y0101507D01*
X0345031Y0101353D01*
X0345102Y0101197D01*
X0345170Y0101039D01*
X0345234Y0100879D01*
X0345294Y0100718D01*
X0345350Y0100556D01*
X0345402Y0100392D01*
X0345449Y0100227D01*
X0345493Y0100061D01*
X0345533Y0099894D01*
X0345568Y0099726D01*
X0345600Y0099557D01*
X0345627Y0099387D01*
X0345650Y0099217D01*
X0345669Y0099046D01*
X0345684Y0098875D01*
X0345695Y0098703D01*
X0345701Y0098532D01*
X0345703Y0098360D01*
X0345701Y0098188D01*
X0345695Y0098017D01*
X0345684Y0097845D01*
X0345669Y0097674D01*
X0345650Y0097503D01*
X0345627Y0097333D01*
X0345600Y0097163D01*
X0345568Y0096994D01*
X0345533Y0096826D01*
X0345493Y0096659D01*
X0345449Y0096493D01*
X0345402Y0096328D01*
X0345350Y0096164D01*
X0345294Y0096002D01*
X0345234Y0095841D01*
X0345170Y0095681D01*
X0345102Y0095523D01*
X0345031Y0095367D01*
X0344956Y0095213D01*
X0344876Y0095060D01*
X0344794Y0094910D01*
X0344707Y0094761D01*
X0344617Y0094615D01*
X0344523Y0094471D01*
X0344426Y0094329D01*
X0344325Y0094190D01*
X0344221Y0094053D01*
X0344114Y0093919D01*
X0344003Y0093788D01*
X0343890Y0093659D01*
X0343773Y0093533D01*
X0343653Y0093410D01*
X0343530Y0093290D01*
X0343404Y0093173D01*
X0343275Y0093060D01*
X0343144Y0092949D01*
X0343010Y0092842D01*
X0342873Y0092738D01*
X0342734Y0092637D01*
X0342592Y0092540D01*
X0342448Y0092446D01*
X0342302Y0092356D01*
X0342153Y0092269D01*
X0342003Y0092187D01*
X0341850Y0092107D01*
X0341696Y0092032D01*
X0341540Y0091961D01*
X0341382Y0091893D01*
X0341222Y0091829D01*
X0341061Y0091769D01*
X0340899Y0091713D01*
X0340735Y0091661D01*
X0340570Y0091614D01*
X0340404Y0091570D01*
X0340237Y0091530D01*
X0340069Y0091495D01*
X0339900Y0091463D01*
X0339730Y0091436D01*
X0339560Y0091413D01*
X0339389Y0091394D01*
X0339218Y0091379D01*
X0339046Y0091368D01*
X0338875Y0091362D01*
X0338703Y0091360D01*
X0338531Y0091362D01*
X0338360Y0091368D01*
X0338188Y0091379D01*
X0338017Y0091394D01*
X0337846Y0091413D01*
X0337676Y0091436D01*
X0337506Y0091463D01*
X0337337Y0091495D01*
X0337169Y0091530D01*
X0337002Y0091570D01*
X0336836Y0091614D01*
X0336671Y0091661D01*
X0336507Y0091713D01*
X0336345Y0091769D01*
X0336184Y0091829D01*
X0336024Y0091893D01*
X0335866Y0091961D01*
X0335710Y0092032D01*
X0335556Y0092107D01*
X0335403Y0092187D01*
X0335253Y0092269D01*
X0335104Y0092356D01*
X0334958Y0092446D01*
X0334814Y0092540D01*
X0334672Y0092637D01*
X0334533Y0092738D01*
X0334396Y0092842D01*
X0334262Y0092949D01*
X0334131Y0093060D01*
X0334002Y0093173D01*
X0333876Y0093290D01*
X0333753Y0093410D01*
X0333633Y0093533D01*
X0333516Y0093659D01*
X0333403Y0093788D01*
X0333292Y0093919D01*
X0333185Y0094053D01*
X0333081Y0094190D01*
X0332980Y0094329D01*
X0332883Y0094471D01*
X0332789Y0094615D01*
X0332699Y0094761D01*
X0332612Y0094910D01*
X0332530Y0095060D01*
X0332450Y0095213D01*
X0332375Y0095367D01*
X0332304Y0095523D01*
X0332236Y0095681D01*
X0332172Y0095841D01*
X0332112Y0096002D01*
X0332056Y0096164D01*
X0332004Y0096328D01*
X0331957Y0096493D01*
X0331913Y0096659D01*
X0331873Y0096826D01*
X0331838Y0096994D01*
X0331806Y0097163D01*
X0331779Y0097333D01*
X0331756Y0097503D01*
X0331737Y0097674D01*
X0331722Y0097845D01*
X0331711Y0098017D01*
X0331705Y0098188D01*
X0331703Y0098360D01*
X0331703Y0053360D02*
X0331705Y0053532D01*
X0331711Y0053703D01*
X0331722Y0053875D01*
X0331737Y0054046D01*
X0331756Y0054217D01*
X0331779Y0054387D01*
X0331806Y0054557D01*
X0331838Y0054726D01*
X0331873Y0054894D01*
X0331913Y0055061D01*
X0331957Y0055227D01*
X0332004Y0055392D01*
X0332056Y0055556D01*
X0332112Y0055718D01*
X0332172Y0055879D01*
X0332236Y0056039D01*
X0332304Y0056197D01*
X0332375Y0056353D01*
X0332450Y0056507D01*
X0332530Y0056660D01*
X0332612Y0056810D01*
X0332699Y0056959D01*
X0332789Y0057105D01*
X0332883Y0057249D01*
X0332980Y0057391D01*
X0333081Y0057530D01*
X0333185Y0057667D01*
X0333292Y0057801D01*
X0333403Y0057932D01*
X0333516Y0058061D01*
X0333633Y0058187D01*
X0333753Y0058310D01*
X0333876Y0058430D01*
X0334002Y0058547D01*
X0334131Y0058660D01*
X0334262Y0058771D01*
X0334396Y0058878D01*
X0334533Y0058982D01*
X0334672Y0059083D01*
X0334814Y0059180D01*
X0334958Y0059274D01*
X0335104Y0059364D01*
X0335253Y0059451D01*
X0335403Y0059533D01*
X0335556Y0059613D01*
X0335710Y0059688D01*
X0335866Y0059759D01*
X0336024Y0059827D01*
X0336184Y0059891D01*
X0336345Y0059951D01*
X0336507Y0060007D01*
X0336671Y0060059D01*
X0336836Y0060106D01*
X0337002Y0060150D01*
X0337169Y0060190D01*
X0337337Y0060225D01*
X0337506Y0060257D01*
X0337676Y0060284D01*
X0337846Y0060307D01*
X0338017Y0060326D01*
X0338188Y0060341D01*
X0338360Y0060352D01*
X0338531Y0060358D01*
X0338703Y0060360D01*
X0338875Y0060358D01*
X0339046Y0060352D01*
X0339218Y0060341D01*
X0339389Y0060326D01*
X0339560Y0060307D01*
X0339730Y0060284D01*
X0339900Y0060257D01*
X0340069Y0060225D01*
X0340237Y0060190D01*
X0340404Y0060150D01*
X0340570Y0060106D01*
X0340735Y0060059D01*
X0340899Y0060007D01*
X0341061Y0059951D01*
X0341222Y0059891D01*
X0341382Y0059827D01*
X0341540Y0059759D01*
X0341696Y0059688D01*
X0341850Y0059613D01*
X0342003Y0059533D01*
X0342153Y0059451D01*
X0342302Y0059364D01*
X0342448Y0059274D01*
X0342592Y0059180D01*
X0342734Y0059083D01*
X0342873Y0058982D01*
X0343010Y0058878D01*
X0343144Y0058771D01*
X0343275Y0058660D01*
X0343404Y0058547D01*
X0343530Y0058430D01*
X0343653Y0058310D01*
X0343773Y0058187D01*
X0343890Y0058061D01*
X0344003Y0057932D01*
X0344114Y0057801D01*
X0344221Y0057667D01*
X0344325Y0057530D01*
X0344426Y0057391D01*
X0344523Y0057249D01*
X0344617Y0057105D01*
X0344707Y0056959D01*
X0344794Y0056810D01*
X0344876Y0056660D01*
X0344956Y0056507D01*
X0345031Y0056353D01*
X0345102Y0056197D01*
X0345170Y0056039D01*
X0345234Y0055879D01*
X0345294Y0055718D01*
X0345350Y0055556D01*
X0345402Y0055392D01*
X0345449Y0055227D01*
X0345493Y0055061D01*
X0345533Y0054894D01*
X0345568Y0054726D01*
X0345600Y0054557D01*
X0345627Y0054387D01*
X0345650Y0054217D01*
X0345669Y0054046D01*
X0345684Y0053875D01*
X0345695Y0053703D01*
X0345701Y0053532D01*
X0345703Y0053360D01*
X0345701Y0053188D01*
X0345695Y0053017D01*
X0345684Y0052845D01*
X0345669Y0052674D01*
X0345650Y0052503D01*
X0345627Y0052333D01*
X0345600Y0052163D01*
X0345568Y0051994D01*
X0345533Y0051826D01*
X0345493Y0051659D01*
X0345449Y0051493D01*
X0345402Y0051328D01*
X0345350Y0051164D01*
X0345294Y0051002D01*
X0345234Y0050841D01*
X0345170Y0050681D01*
X0345102Y0050523D01*
X0345031Y0050367D01*
X0344956Y0050213D01*
X0344876Y0050060D01*
X0344794Y0049910D01*
X0344707Y0049761D01*
X0344617Y0049615D01*
X0344523Y0049471D01*
X0344426Y0049329D01*
X0344325Y0049190D01*
X0344221Y0049053D01*
X0344114Y0048919D01*
X0344003Y0048788D01*
X0343890Y0048659D01*
X0343773Y0048533D01*
X0343653Y0048410D01*
X0343530Y0048290D01*
X0343404Y0048173D01*
X0343275Y0048060D01*
X0343144Y0047949D01*
X0343010Y0047842D01*
X0342873Y0047738D01*
X0342734Y0047637D01*
X0342592Y0047540D01*
X0342448Y0047446D01*
X0342302Y0047356D01*
X0342153Y0047269D01*
X0342003Y0047187D01*
X0341850Y0047107D01*
X0341696Y0047032D01*
X0341540Y0046961D01*
X0341382Y0046893D01*
X0341222Y0046829D01*
X0341061Y0046769D01*
X0340899Y0046713D01*
X0340735Y0046661D01*
X0340570Y0046614D01*
X0340404Y0046570D01*
X0340237Y0046530D01*
X0340069Y0046495D01*
X0339900Y0046463D01*
X0339730Y0046436D01*
X0339560Y0046413D01*
X0339389Y0046394D01*
X0339218Y0046379D01*
X0339046Y0046368D01*
X0338875Y0046362D01*
X0338703Y0046360D01*
X0338531Y0046362D01*
X0338360Y0046368D01*
X0338188Y0046379D01*
X0338017Y0046394D01*
X0337846Y0046413D01*
X0337676Y0046436D01*
X0337506Y0046463D01*
X0337337Y0046495D01*
X0337169Y0046530D01*
X0337002Y0046570D01*
X0336836Y0046614D01*
X0336671Y0046661D01*
X0336507Y0046713D01*
X0336345Y0046769D01*
X0336184Y0046829D01*
X0336024Y0046893D01*
X0335866Y0046961D01*
X0335710Y0047032D01*
X0335556Y0047107D01*
X0335403Y0047187D01*
X0335253Y0047269D01*
X0335104Y0047356D01*
X0334958Y0047446D01*
X0334814Y0047540D01*
X0334672Y0047637D01*
X0334533Y0047738D01*
X0334396Y0047842D01*
X0334262Y0047949D01*
X0334131Y0048060D01*
X0334002Y0048173D01*
X0333876Y0048290D01*
X0333753Y0048410D01*
X0333633Y0048533D01*
X0333516Y0048659D01*
X0333403Y0048788D01*
X0333292Y0048919D01*
X0333185Y0049053D01*
X0333081Y0049190D01*
X0332980Y0049329D01*
X0332883Y0049471D01*
X0332789Y0049615D01*
X0332699Y0049761D01*
X0332612Y0049910D01*
X0332530Y0050060D01*
X0332450Y0050213D01*
X0332375Y0050367D01*
X0332304Y0050523D01*
X0332236Y0050681D01*
X0332172Y0050841D01*
X0332112Y0051002D01*
X0332056Y0051164D01*
X0332004Y0051328D01*
X0331957Y0051493D01*
X0331913Y0051659D01*
X0331873Y0051826D01*
X0331838Y0051994D01*
X0331806Y0052163D01*
X0331779Y0052333D01*
X0331756Y0052503D01*
X0331737Y0052674D01*
X0331722Y0052845D01*
X0331711Y0053017D01*
X0331705Y0053188D01*
X0331703Y0053360D01*
D11*
X0133506Y0095387D03*
X0133506Y0105387D03*
D12*
X0100002Y0105387D03*
X0090002Y0105387D03*
X0090002Y0115387D03*
X0100002Y0115387D03*
X0100002Y0125387D03*
X0090002Y0125387D03*
X0090002Y0145387D03*
X0100002Y0145387D03*
X0100002Y0155387D03*
X0090002Y0155387D03*
X0090002Y0165387D03*
X0100002Y0165387D03*
X0125987Y0186608D03*
X0135987Y0186608D03*
X0145987Y0186608D03*
X0155987Y0186608D03*
X0165987Y0186608D03*
X0165987Y0196608D03*
X0175987Y0196608D03*
X0185987Y0196608D03*
X0195987Y0196608D03*
X0205987Y0196608D03*
X0215987Y0196608D03*
X0225987Y0196608D03*
X0235987Y0196608D03*
X0245987Y0196608D03*
X0245987Y0186608D03*
X0235987Y0186608D03*
X0225987Y0186608D03*
X0215987Y0186608D03*
X0205987Y0186608D03*
X0195987Y0186608D03*
X0185987Y0186608D03*
X0155987Y0196608D03*
X0145987Y0196608D03*
X0135987Y0196608D03*
X0125987Y0196608D03*
X0265987Y0196608D03*
X0265987Y0186608D03*
X0285987Y0186608D03*
X0295987Y0186608D03*
X0305987Y0186608D03*
X0315987Y0186608D03*
X0315987Y0196608D03*
X0305987Y0196608D03*
X0295987Y0196608D03*
X0285987Y0196608D03*
X0100002Y0095387D03*
X0090002Y0095387D03*
X0090002Y0085387D03*
X0100002Y0085387D03*
X0100002Y0065387D03*
X0090002Y0065387D03*
X0090002Y0055387D03*
X0100002Y0055387D03*
X0100002Y0045387D03*
X0090002Y0045387D03*
X0125987Y0024167D03*
X0135987Y0024167D03*
X0145987Y0024167D03*
X0155987Y0024167D03*
X0155987Y0014167D03*
X0145987Y0014167D03*
X0135987Y0014167D03*
X0125987Y0014167D03*
X0175987Y0014167D03*
X0175987Y0024167D03*
X0195987Y0024167D03*
X0205987Y0024167D03*
X0215987Y0024167D03*
X0225987Y0024167D03*
X0235987Y0024167D03*
X0245987Y0024167D03*
X0255987Y0024167D03*
X0255987Y0014167D03*
X0265987Y0014167D03*
X0275987Y0014167D03*
X0285987Y0014167D03*
X0295987Y0014167D03*
X0305987Y0014167D03*
X0315987Y0014167D03*
X0315987Y0024167D03*
X0305987Y0024167D03*
X0295987Y0024167D03*
X0285987Y0024167D03*
X0275987Y0024167D03*
X0245987Y0014167D03*
X0235987Y0014167D03*
X0225987Y0014167D03*
X0215987Y0014167D03*
X0205987Y0014167D03*
X0195987Y0014167D03*
D13*
X0313703Y0058360D03*
D14*
X0303703Y0063360D03*
X0313703Y0068360D03*
X0303703Y0073360D03*
X0313703Y0078360D03*
X0303703Y0083360D03*
X0313703Y0088360D03*
X0303703Y0093360D03*
X0358203Y0091860D03*
X0358203Y0101860D03*
X0358203Y0059860D03*
X0358203Y0049860D03*
D15*
X0327203Y0044360D03*
X0327203Y0107360D03*
D16*
X0257010Y0088261D03*
X0255042Y0088261D03*
X0253073Y0088261D03*
X0251105Y0088261D03*
X0249136Y0088261D03*
X0247168Y0088261D03*
X0245199Y0088261D03*
X0243231Y0088261D03*
X0241262Y0088261D03*
X0239294Y0088261D03*
X0237325Y0088261D03*
X0235357Y0088261D03*
X0235357Y0055584D03*
X0237325Y0055584D03*
X0239294Y0055584D03*
X0241262Y0055584D03*
X0243231Y0055584D03*
X0245199Y0055584D03*
X0247168Y0055584D03*
X0249136Y0055584D03*
X0251105Y0055584D03*
X0253073Y0055584D03*
X0255042Y0055584D03*
X0257010Y0055584D03*
D17*
X0262522Y0061096D03*
X0262522Y0063064D03*
X0262522Y0065033D03*
X0262522Y0067001D03*
X0262522Y0068970D03*
X0262522Y0070938D03*
X0262522Y0072907D03*
X0262522Y0074875D03*
X0262522Y0076844D03*
X0262522Y0078812D03*
X0262522Y0080781D03*
X0262522Y0082749D03*
X0229845Y0082749D03*
X0229845Y0080781D03*
X0229845Y0078812D03*
X0229845Y0076844D03*
X0229845Y0074875D03*
X0229845Y0072907D03*
X0229845Y0070938D03*
X0229845Y0068970D03*
X0229845Y0067001D03*
X0229845Y0065033D03*
X0229845Y0063064D03*
X0229845Y0061096D03*
D18*
X0220002Y0062080D03*
X0213309Y0062080D03*
X0213309Y0067592D03*
X0220002Y0067592D03*
X0290869Y0067198D03*
X0297561Y0067198D03*
X0297561Y0054600D03*
X0290869Y0054600D03*
X0351498Y0067198D03*
X0358191Y0067198D03*
X0358191Y0084521D03*
X0351498Y0084521D03*
X0297561Y0086489D03*
X0290869Y0086489D03*
D19*
X0290869Y0073104D03*
X0297561Y0073104D03*
X0320593Y0072907D03*
X0320396Y0078222D03*
X0327089Y0078222D03*
X0320593Y0066214D03*
X0274924Y0059718D03*
X0269806Y0059718D03*
X0269806Y0053025D03*
X0274924Y0053025D03*
X0156617Y0142001D03*
X0149924Y0142001D03*
X0148349Y0154600D03*
X0141656Y0154600D03*
X0141656Y0159324D03*
X0148349Y0159324D03*
D20*
X0326892Y0146332D03*
X0350514Y0146332D03*
X0338703Y0165230D03*
D21*
X0373939Y0143615D03*
D22*
X0373939Y0133615D03*
X0373939Y0123615D03*
X0373939Y0113615D03*
D23*
X0133585Y0111686D03*
X0133585Y0120348D03*
D24*
X0139097Y0105387D03*
X0147758Y0105387D03*
D25*
X0197955Y0049482D03*
X0222758Y0049482D03*
X0222758Y0033734D03*
X0197955Y0033734D03*
D26*
X0096183Y0020348D03*
X0369412Y0020348D03*
X0369412Y0190427D03*
X0096183Y0190427D03*
D27*
X0086931Y0190591D02*
X0123779Y0190591D01*
X0124173Y0190986D02*
X0121609Y0188421D01*
X0121609Y0184794D01*
X0124173Y0182230D01*
X0127800Y0182230D01*
X0130365Y0184794D01*
X0130365Y0188421D01*
X0127800Y0190986D01*
X0124173Y0190986D01*
X0124173Y0192230D02*
X0127800Y0192230D01*
X0130365Y0194794D01*
X0130365Y0198421D01*
X0129107Y0199678D01*
X0132866Y0199678D01*
X0131609Y0198421D01*
X0131609Y0194794D01*
X0134173Y0192230D01*
X0137800Y0192230D01*
X0140365Y0194794D01*
X0140365Y0198421D01*
X0139107Y0199678D01*
X0142866Y0199678D01*
X0141609Y0198421D01*
X0141609Y0194794D01*
X0144173Y0192230D01*
X0147800Y0192230D01*
X0150365Y0194794D01*
X0150365Y0198421D01*
X0149107Y0199678D01*
X0152866Y0199678D01*
X0151609Y0198421D01*
X0151609Y0194794D01*
X0154173Y0192230D01*
X0157800Y0192230D01*
X0160365Y0194794D01*
X0160365Y0198421D01*
X0159107Y0199678D01*
X0162866Y0199678D01*
X0161609Y0198421D01*
X0161609Y0194794D01*
X0164173Y0192230D01*
X0167800Y0192230D01*
X0170365Y0194794D01*
X0170365Y0198421D01*
X0169107Y0199678D01*
X0182866Y0199678D01*
X0181609Y0198421D01*
X0181609Y0194794D01*
X0184173Y0192230D01*
X0187800Y0192230D01*
X0190365Y0194794D01*
X0190365Y0198421D01*
X0189107Y0199678D01*
X0192866Y0199678D01*
X0191609Y0198421D01*
X0191609Y0194794D01*
X0194173Y0192230D01*
X0197800Y0192230D01*
X0200365Y0194794D01*
X0200365Y0198421D01*
X0199107Y0199678D01*
X0202866Y0199678D01*
X0201609Y0198421D01*
X0201609Y0194794D01*
X0204173Y0192230D01*
X0207800Y0192230D01*
X0210365Y0194794D01*
X0210365Y0198421D01*
X0209107Y0199678D01*
X0212866Y0199678D01*
X0211609Y0198421D01*
X0211609Y0194794D01*
X0214173Y0192230D01*
X0217800Y0192230D01*
X0220365Y0194794D01*
X0220365Y0198421D01*
X0219107Y0199678D01*
X0222866Y0199678D01*
X0221609Y0198421D01*
X0221609Y0194794D01*
X0224173Y0192230D01*
X0227800Y0192230D01*
X0230365Y0194794D01*
X0230365Y0198421D01*
X0229107Y0199678D01*
X0232866Y0199678D01*
X0231609Y0198421D01*
X0231609Y0194794D01*
X0234173Y0192230D01*
X0237800Y0192230D01*
X0240365Y0194794D01*
X0240365Y0198421D01*
X0239107Y0199678D01*
X0242866Y0199678D01*
X0241609Y0198421D01*
X0241609Y0194794D01*
X0244173Y0192230D01*
X0247800Y0192230D01*
X0250365Y0194794D01*
X0250365Y0198421D01*
X0249107Y0199678D01*
X0282866Y0199678D01*
X0281609Y0198421D01*
X0281609Y0194794D01*
X0284173Y0192230D01*
X0287800Y0192230D01*
X0290365Y0194794D01*
X0290365Y0198421D01*
X0289107Y0199678D01*
X0292866Y0199678D01*
X0291609Y0198421D01*
X0291609Y0194794D01*
X0294173Y0192230D01*
X0297800Y0192230D01*
X0300365Y0194794D01*
X0300365Y0198421D01*
X0299107Y0199678D01*
X0302866Y0199678D01*
X0301609Y0198421D01*
X0301609Y0194794D01*
X0304173Y0192230D01*
X0307800Y0192230D01*
X0310365Y0194794D01*
X0310365Y0198421D01*
X0309107Y0199678D01*
X0312866Y0199678D01*
X0311609Y0198421D01*
X0311609Y0194794D01*
X0314173Y0192230D01*
X0317800Y0192230D01*
X0320365Y0194794D01*
X0320365Y0198421D01*
X0319107Y0199678D01*
X0378664Y0199678D01*
X0378664Y0011096D01*
X0319107Y0011096D01*
X0320365Y0012353D01*
X0320365Y0015980D01*
X0317800Y0018545D01*
X0314173Y0018545D01*
X0311609Y0015980D01*
X0311609Y0012353D01*
X0312866Y0011096D01*
X0309107Y0011096D01*
X0310365Y0012353D01*
X0310365Y0015980D01*
X0307800Y0018545D01*
X0304173Y0018545D01*
X0301609Y0015980D01*
X0301609Y0012353D01*
X0302866Y0011096D01*
X0299107Y0011096D01*
X0300365Y0012353D01*
X0300365Y0015980D01*
X0297800Y0018545D01*
X0294173Y0018545D01*
X0291609Y0015980D01*
X0291609Y0012353D01*
X0292866Y0011096D01*
X0289107Y0011096D01*
X0290365Y0012353D01*
X0290365Y0015980D01*
X0287800Y0018545D01*
X0284173Y0018545D01*
X0281609Y0015980D01*
X0281609Y0012353D01*
X0282866Y0011096D01*
X0279107Y0011096D01*
X0280365Y0012353D01*
X0280365Y0015980D01*
X0277800Y0018545D01*
X0274173Y0018545D01*
X0271609Y0015980D01*
X0271609Y0012353D01*
X0272866Y0011096D01*
X0259107Y0011096D01*
X0260365Y0012353D01*
X0260365Y0015980D01*
X0257800Y0018545D01*
X0254173Y0018545D01*
X0251609Y0015980D01*
X0251609Y0012353D01*
X0252866Y0011096D01*
X0249107Y0011096D01*
X0250365Y0012353D01*
X0250365Y0015980D01*
X0247800Y0018545D01*
X0244173Y0018545D01*
X0241609Y0015980D01*
X0241609Y0012353D01*
X0242866Y0011096D01*
X0239107Y0011096D01*
X0240365Y0012353D01*
X0240365Y0015980D01*
X0237800Y0018545D01*
X0234173Y0018545D01*
X0231609Y0015980D01*
X0231609Y0012353D01*
X0232866Y0011096D01*
X0229107Y0011096D01*
X0230365Y0012353D01*
X0230365Y0015980D01*
X0227800Y0018545D01*
X0224173Y0018545D01*
X0221609Y0015980D01*
X0221609Y0012353D01*
X0222866Y0011096D01*
X0219107Y0011096D01*
X0220365Y0012353D01*
X0220365Y0015980D01*
X0217800Y0018545D01*
X0214173Y0018545D01*
X0211609Y0015980D01*
X0211609Y0012353D01*
X0212866Y0011096D01*
X0209107Y0011096D01*
X0210365Y0012353D01*
X0210365Y0015980D01*
X0207800Y0018545D01*
X0204173Y0018545D01*
X0201609Y0015980D01*
X0201609Y0012353D01*
X0202866Y0011096D01*
X0199107Y0011096D01*
X0200365Y0012353D01*
X0200365Y0015980D01*
X0197800Y0018545D01*
X0194173Y0018545D01*
X0191609Y0015980D01*
X0191609Y0012353D01*
X0192866Y0011096D01*
X0159107Y0011096D01*
X0160365Y0012353D01*
X0160365Y0015980D01*
X0157800Y0018545D01*
X0154173Y0018545D01*
X0154116Y0018487D01*
X0152640Y0019963D01*
X0152640Y0021322D01*
X0154173Y0019789D01*
X0157800Y0019789D01*
X0160365Y0022353D01*
X0160365Y0025980D01*
X0157800Y0028545D01*
X0157758Y0028545D01*
X0157758Y0057032D01*
X0172492Y0071765D01*
X0193891Y0071765D01*
X0207837Y0057819D01*
X0208852Y0056804D01*
X0220523Y0056804D01*
X0221538Y0057819D01*
X0221735Y0058016D01*
X0221735Y0058537D01*
X0222542Y0058537D01*
X0223349Y0059344D01*
X0223349Y0061205D01*
X0225444Y0063301D01*
X0225514Y0063301D01*
X0225514Y0057409D01*
X0226552Y0056371D01*
X0231563Y0056371D01*
X0232601Y0057409D01*
X0232601Y0059127D01*
X0233368Y0059127D01*
X0234176Y0059934D01*
X0234176Y0079974D01*
X0233368Y0080781D01*
X0234176Y0081588D01*
X0234176Y0083950D01*
X0234195Y0083930D01*
X0258172Y0083930D01*
X0258979Y0084738D01*
X0258979Y0091785D01*
X0258172Y0092592D01*
X0242994Y0092592D01*
X0242994Y0094884D01*
X0241980Y0095899D01*
X0236271Y0101608D01*
X0166726Y0101608D01*
X0165711Y0100593D01*
X0125781Y0060663D01*
X0125781Y0060663D01*
X0124766Y0059648D01*
X0124766Y0038782D01*
X0119088Y0033104D01*
X0118073Y0032089D01*
X0118073Y0019630D01*
X0121666Y0016037D01*
X0121609Y0015980D01*
X0121609Y0012353D01*
X0122866Y0011096D01*
X0086931Y0011096D01*
X0086931Y0042267D01*
X0088189Y0041009D01*
X0091816Y0041009D01*
X0094380Y0043574D01*
X0094380Y0047201D01*
X0091816Y0049765D01*
X0088189Y0049765D01*
X0086931Y0048508D01*
X0086931Y0052267D01*
X0088189Y0051009D01*
X0091816Y0051009D01*
X0094380Y0053574D01*
X0094380Y0057201D01*
X0091816Y0059765D01*
X0088189Y0059765D01*
X0086931Y0058508D01*
X0086931Y0062267D01*
X0088189Y0061009D01*
X0091816Y0061009D01*
X0094380Y0063574D01*
X0094380Y0067201D01*
X0091816Y0069765D01*
X0088189Y0069765D01*
X0086931Y0068508D01*
X0086931Y0082267D01*
X0088189Y0081009D01*
X0091816Y0081009D01*
X0094380Y0083574D01*
X0094380Y0087201D01*
X0091816Y0089765D01*
X0088189Y0089765D01*
X0086931Y0088508D01*
X0086931Y0092267D01*
X0088189Y0091009D01*
X0091816Y0091009D01*
X0094380Y0093574D01*
X0094380Y0097201D01*
X0091816Y0099765D01*
X0088189Y0099765D01*
X0086931Y0098508D01*
X0086931Y0102267D01*
X0088189Y0101009D01*
X0091816Y0101009D01*
X0094380Y0103574D01*
X0094380Y0107201D01*
X0091816Y0109765D01*
X0088189Y0109765D01*
X0086931Y0108508D01*
X0086931Y0112267D01*
X0088189Y0111009D01*
X0091816Y0111009D01*
X0094380Y0113574D01*
X0094380Y0117201D01*
X0091816Y0119765D01*
X0088189Y0119765D01*
X0086931Y0118508D01*
X0086931Y0122267D01*
X0088189Y0121009D01*
X0091816Y0121009D01*
X0094380Y0123574D01*
X0094380Y0127201D01*
X0091816Y0129765D01*
X0088189Y0129765D01*
X0086931Y0128508D01*
X0086931Y0142267D01*
X0088189Y0141009D01*
X0091816Y0141009D01*
X0094380Y0143574D01*
X0094380Y0147201D01*
X0091816Y0149765D01*
X0088189Y0149765D01*
X0086931Y0148508D01*
X0086931Y0152267D01*
X0088189Y0151009D01*
X0091816Y0151009D01*
X0094380Y0153574D01*
X0094380Y0157201D01*
X0091816Y0159765D01*
X0088189Y0159765D01*
X0086931Y0158508D01*
X0086931Y0199678D01*
X0122866Y0199678D01*
X0121609Y0198421D01*
X0121609Y0194794D01*
X0124173Y0192230D01*
X0123453Y0192950D02*
X0086931Y0192950D01*
X0086931Y0191771D02*
X0378664Y0191771D01*
X0378664Y0192950D02*
X0318521Y0192950D01*
X0319700Y0194130D02*
X0378664Y0194130D01*
X0378664Y0195309D02*
X0320365Y0195309D01*
X0320365Y0196489D02*
X0378664Y0196489D01*
X0378664Y0197669D02*
X0320365Y0197669D01*
X0319937Y0198848D02*
X0378664Y0198848D01*
X0378664Y0190591D02*
X0318195Y0190591D01*
X0317800Y0190986D02*
X0314173Y0190986D01*
X0311609Y0188421D01*
X0311609Y0184794D01*
X0314173Y0182230D01*
X0317800Y0182230D01*
X0320365Y0184794D01*
X0320365Y0188421D01*
X0317800Y0190986D01*
X0319374Y0189411D02*
X0378664Y0189411D01*
X0378664Y0188232D02*
X0320365Y0188232D01*
X0320365Y0187052D02*
X0378664Y0187052D01*
X0378664Y0185872D02*
X0320365Y0185872D01*
X0320263Y0184693D02*
X0378664Y0184693D01*
X0378664Y0183513D02*
X0319084Y0183513D01*
X0317904Y0182334D02*
X0378664Y0182334D01*
X0378664Y0181154D02*
X0086931Y0181154D01*
X0086931Y0179974D02*
X0378664Y0179974D01*
X0378664Y0178795D02*
X0086931Y0178795D01*
X0086931Y0177615D02*
X0378664Y0177615D01*
X0378664Y0176436D02*
X0086931Y0176436D01*
X0086931Y0175256D02*
X0378664Y0175256D01*
X0378664Y0174076D02*
X0086931Y0174076D01*
X0086931Y0172897D02*
X0378664Y0172897D01*
X0378664Y0171717D02*
X0086931Y0171717D01*
X0086931Y0170538D02*
X0378664Y0170538D01*
X0378664Y0169358D02*
X0102223Y0169358D01*
X0101816Y0169765D02*
X0098189Y0169765D01*
X0095624Y0167201D01*
X0095624Y0163574D01*
X0098189Y0161009D01*
X0101816Y0161009D01*
X0104380Y0163574D01*
X0104380Y0167201D01*
X0101816Y0169765D01*
X0103403Y0168178D02*
X0378664Y0168178D01*
X0378664Y0166999D02*
X0104380Y0166999D01*
X0104380Y0165819D02*
X0147562Y0165819D01*
X0147565Y0165820D02*
X0146479Y0165371D01*
X0145649Y0164540D01*
X0145199Y0163455D01*
X0145199Y0162280D01*
X0145206Y0162264D01*
X0144806Y0161863D01*
X0144806Y0152060D01*
X0145613Y0151253D01*
X0151085Y0151253D01*
X0151892Y0152060D01*
X0151892Y0161863D01*
X0151302Y0162454D01*
X0151302Y0163258D01*
X0150852Y0164343D01*
X0150021Y0165174D01*
X0149825Y0165371D01*
X0148739Y0165820D01*
X0147565Y0165820D01*
X0148742Y0165819D02*
X0378664Y0165819D01*
X0378664Y0164639D02*
X0150556Y0164639D01*
X0150021Y0165174D02*
X0150021Y0165174D01*
X0151218Y0163460D02*
X0378664Y0163460D01*
X0378664Y0162280D02*
X0243461Y0162280D01*
X0243748Y0162161D02*
X0242518Y0162671D01*
X0166384Y0162671D01*
X0165154Y0162161D01*
X0164213Y0161220D01*
X0163703Y0159990D01*
X0163703Y0158658D01*
X0164213Y0157429D01*
X0165154Y0156487D01*
X0166384Y0155978D01*
X0242518Y0155978D01*
X0243748Y0156487D01*
X0244690Y0157429D01*
X0245199Y0158658D01*
X0245199Y0159990D01*
X0244690Y0161220D01*
X0243748Y0162161D01*
X0244739Y0161101D02*
X0378664Y0161101D01*
X0378664Y0159921D02*
X0245199Y0159921D01*
X0245199Y0158741D02*
X0378664Y0158741D01*
X0378664Y0157562D02*
X0244745Y0157562D01*
X0243495Y0156382D02*
X0378664Y0156382D01*
X0378664Y0155203D02*
X0329653Y0155203D01*
X0328732Y0155584D02*
X0332133Y0154175D01*
X0334736Y0151573D01*
X0336144Y0148172D01*
X0336144Y0144492D01*
X0334736Y0141091D01*
X0332133Y0138489D01*
X0328732Y0137080D01*
X0325052Y0137080D01*
X0321651Y0138489D01*
X0319049Y0141091D01*
X0317640Y0144492D01*
X0317640Y0148172D01*
X0319049Y0151573D01*
X0321651Y0154175D01*
X0325052Y0155584D01*
X0328732Y0155584D01*
X0332285Y0154023D02*
X0378664Y0154023D01*
X0378664Y0152843D02*
X0333465Y0152843D01*
X0334645Y0151664D02*
X0378664Y0151664D01*
X0378664Y0150484D02*
X0335187Y0150484D01*
X0335675Y0149304D02*
X0378664Y0149304D01*
X0378664Y0148125D02*
X0377879Y0148125D01*
X0377760Y0148243D02*
X0370119Y0148243D01*
X0369311Y0147436D01*
X0369311Y0139795D01*
X0370119Y0138988D01*
X0377760Y0138988D01*
X0378567Y0139795D01*
X0378567Y0147436D01*
X0377760Y0148243D01*
X0378567Y0146945D02*
X0378664Y0146945D01*
X0378664Y0145766D02*
X0378567Y0145766D01*
X0378567Y0144586D02*
X0378664Y0144586D01*
X0378664Y0143406D02*
X0378567Y0143406D01*
X0378567Y0142227D02*
X0378664Y0142227D01*
X0378664Y0141047D02*
X0378567Y0141047D01*
X0378567Y0139868D02*
X0378664Y0139868D01*
X0378664Y0138688D02*
X0332332Y0138688D01*
X0333512Y0139868D02*
X0369311Y0139868D01*
X0369311Y0141047D02*
X0334692Y0141047D01*
X0335206Y0142227D02*
X0369311Y0142227D01*
X0369311Y0143406D02*
X0335695Y0143406D01*
X0336144Y0144586D02*
X0369311Y0144586D01*
X0369311Y0145766D02*
X0336144Y0145766D01*
X0336144Y0146945D02*
X0369311Y0146945D01*
X0370000Y0148125D02*
X0336144Y0148125D01*
X0324131Y0155203D02*
X0151892Y0155203D01*
X0151892Y0156382D02*
X0165407Y0156382D01*
X0164157Y0157562D02*
X0151892Y0157562D01*
X0151892Y0158741D02*
X0163703Y0158741D01*
X0163703Y0159921D02*
X0151892Y0159921D01*
X0151892Y0161101D02*
X0164163Y0161101D01*
X0165442Y0162280D02*
X0151475Y0162280D01*
X0145199Y0162280D02*
X0103087Y0162280D01*
X0101907Y0161101D02*
X0144806Y0161101D01*
X0144806Y0159921D02*
X0086931Y0159921D01*
X0086931Y0161101D02*
X0098098Y0161101D01*
X0098189Y0159765D02*
X0095624Y0157201D01*
X0095624Y0153574D01*
X0098189Y0151009D01*
X0101816Y0151009D01*
X0104380Y0153574D01*
X0104380Y0157201D01*
X0101816Y0159765D01*
X0098189Y0159765D01*
X0097165Y0158741D02*
X0092839Y0158741D01*
X0094019Y0157562D02*
X0095986Y0157562D01*
X0095624Y0156382D02*
X0094380Y0156382D01*
X0094380Y0155203D02*
X0095624Y0155203D01*
X0095624Y0154023D02*
X0094380Y0154023D01*
X0093650Y0152843D02*
X0096355Y0152843D01*
X0097534Y0151664D02*
X0092470Y0151664D01*
X0092276Y0149304D02*
X0097728Y0149304D01*
X0098189Y0149765D02*
X0095624Y0147201D01*
X0095624Y0143574D01*
X0098189Y0141009D01*
X0101816Y0141009D01*
X0104380Y0143574D01*
X0104380Y0147201D01*
X0101816Y0149765D01*
X0098189Y0149765D01*
X0096549Y0148125D02*
X0093456Y0148125D01*
X0094380Y0146945D02*
X0095624Y0146945D01*
X0095624Y0145766D02*
X0094380Y0145766D01*
X0094380Y0144586D02*
X0095624Y0144586D01*
X0095792Y0143406D02*
X0094213Y0143406D01*
X0093033Y0142227D02*
X0096971Y0142227D01*
X0098151Y0141047D02*
X0091854Y0141047D01*
X0088151Y0141047D02*
X0086931Y0141047D01*
X0086931Y0139868D02*
X0146380Y0139868D01*
X0146380Y0139462D02*
X0147187Y0138655D01*
X0152660Y0138655D01*
X0153467Y0139462D01*
X0153467Y0144541D01*
X0153073Y0144934D01*
X0153073Y0145738D01*
X0152624Y0146824D01*
X0151793Y0147654D01*
X0150708Y0148104D01*
X0149533Y0148104D01*
X0148448Y0147654D01*
X0147617Y0146824D01*
X0147168Y0145738D01*
X0147168Y0145328D01*
X0146380Y0144541D01*
X0146380Y0139462D01*
X0147154Y0138688D02*
X0086931Y0138688D01*
X0086931Y0137508D02*
X0324018Y0137508D01*
X0321452Y0138688D02*
X0152693Y0138688D01*
X0153467Y0139868D02*
X0320272Y0139868D01*
X0319093Y0141047D02*
X0153467Y0141047D01*
X0153467Y0142227D02*
X0318578Y0142227D01*
X0318090Y0143406D02*
X0153467Y0143406D01*
X0153421Y0144586D02*
X0317640Y0144586D01*
X0317640Y0145766D02*
X0153062Y0145766D01*
X0152502Y0146945D02*
X0317640Y0146945D01*
X0317640Y0148125D02*
X0103456Y0148125D01*
X0104380Y0146945D02*
X0147739Y0146945D01*
X0147179Y0145766D02*
X0104380Y0145766D01*
X0104380Y0144586D02*
X0146426Y0144586D01*
X0146380Y0143406D02*
X0104213Y0143406D01*
X0103033Y0142227D02*
X0146380Y0142227D01*
X0146380Y0141047D02*
X0101854Y0141047D01*
X0102276Y0149304D02*
X0318109Y0149304D01*
X0318598Y0150484D02*
X0086931Y0150484D01*
X0086931Y0149304D02*
X0087728Y0149304D01*
X0087534Y0151664D02*
X0086931Y0151664D01*
X0086931Y0158741D02*
X0087165Y0158741D01*
X0086931Y0162280D02*
X0096918Y0162280D01*
X0095738Y0163460D02*
X0086931Y0163460D01*
X0086931Y0164639D02*
X0095624Y0164639D01*
X0095624Y0165819D02*
X0086931Y0165819D01*
X0086931Y0166999D02*
X0095624Y0166999D01*
X0096602Y0168178D02*
X0086931Y0168178D01*
X0086931Y0169358D02*
X0097782Y0169358D01*
X0104380Y0164639D02*
X0145748Y0164639D01*
X0145201Y0163460D02*
X0104266Y0163460D01*
X0102839Y0158741D02*
X0144806Y0158741D01*
X0144806Y0157562D02*
X0104019Y0157562D01*
X0104380Y0156382D02*
X0144806Y0156382D01*
X0144806Y0155203D02*
X0104380Y0155203D01*
X0104380Y0154023D02*
X0144806Y0154023D01*
X0144806Y0152843D02*
X0103650Y0152843D01*
X0102470Y0151664D02*
X0145202Y0151664D01*
X0151495Y0151664D02*
X0319140Y0151664D01*
X0320319Y0152843D02*
X0151892Y0152843D01*
X0151892Y0154023D02*
X0321499Y0154023D01*
X0329766Y0137508D02*
X0371287Y0137508D01*
X0371318Y0137539D02*
X0370016Y0136237D01*
X0369311Y0134536D01*
X0369311Y0132695D01*
X0370016Y0130994D01*
X0371318Y0129692D01*
X0373019Y0128988D01*
X0374860Y0128988D01*
X0376561Y0129692D01*
X0377863Y0130994D01*
X0378567Y0132695D01*
X0378567Y0134536D01*
X0377863Y0136237D01*
X0376561Y0137539D01*
X0374860Y0138243D01*
X0373019Y0138243D01*
X0371318Y0137539D01*
X0370108Y0136329D02*
X0086931Y0136329D01*
X0086931Y0135149D02*
X0369565Y0135149D01*
X0369311Y0133969D02*
X0086931Y0133969D01*
X0086931Y0132790D02*
X0369311Y0132790D01*
X0369761Y0131610D02*
X0086931Y0131610D01*
X0086931Y0130431D02*
X0109920Y0130431D01*
X0110050Y0130560D02*
X0108333Y0128844D01*
X0107404Y0126601D01*
X0107404Y0124173D01*
X0108333Y0121930D01*
X0110050Y0120214D01*
X0112292Y0119285D01*
X0114720Y0119285D01*
X0116963Y0120214D01*
X0118680Y0121930D01*
X0119609Y0124173D01*
X0119609Y0126601D01*
X0118680Y0128844D01*
X0116963Y0130560D01*
X0114720Y0131489D01*
X0112292Y0131489D01*
X0110050Y0130560D01*
X0108740Y0129251D02*
X0102330Y0129251D01*
X0101816Y0129765D02*
X0098189Y0129765D01*
X0095624Y0127201D01*
X0095624Y0123574D01*
X0098189Y0121009D01*
X0101816Y0121009D01*
X0104380Y0123574D01*
X0104380Y0127201D01*
X0101816Y0129765D01*
X0103509Y0128071D02*
X0108013Y0128071D01*
X0107524Y0126892D02*
X0104380Y0126892D01*
X0104380Y0125712D02*
X0107404Y0125712D01*
X0107404Y0124533D02*
X0104380Y0124533D01*
X0104160Y0123353D02*
X0107744Y0123353D01*
X0108232Y0122173D02*
X0102980Y0122173D01*
X0101816Y0119765D02*
X0098189Y0119765D01*
X0095624Y0117201D01*
X0095624Y0113574D01*
X0098189Y0111009D01*
X0101816Y0111009D01*
X0104380Y0113574D01*
X0104380Y0117201D01*
X0101816Y0119765D01*
X0102946Y0118635D02*
X0378664Y0118635D01*
X0378664Y0119814D02*
X0115998Y0119814D01*
X0117743Y0120994D02*
X0378664Y0120994D01*
X0378664Y0122173D02*
X0118780Y0122173D01*
X0119269Y0123353D02*
X0378664Y0123353D01*
X0378664Y0124533D02*
X0119609Y0124533D01*
X0119609Y0125712D02*
X0378664Y0125712D01*
X0378664Y0126892D02*
X0119488Y0126892D01*
X0119000Y0128071D02*
X0378664Y0128071D01*
X0378664Y0129251D02*
X0375496Y0129251D01*
X0377299Y0130431D02*
X0378664Y0130431D01*
X0378664Y0131610D02*
X0378118Y0131610D01*
X0378567Y0132790D02*
X0378664Y0132790D01*
X0378664Y0133969D02*
X0378567Y0133969D01*
X0378664Y0135149D02*
X0378313Y0135149D01*
X0378664Y0136329D02*
X0377771Y0136329D01*
X0378664Y0137508D02*
X0376591Y0137508D01*
X0372383Y0129251D02*
X0118272Y0129251D01*
X0117093Y0130431D02*
X0370579Y0130431D01*
X0378664Y0117455D02*
X0104126Y0117455D01*
X0104380Y0116275D02*
X0378664Y0116275D01*
X0378664Y0115096D02*
X0104380Y0115096D01*
X0104380Y0113916D02*
X0131026Y0113916D01*
X0131026Y0114226D02*
X0131026Y0109147D01*
X0131235Y0108938D01*
X0131156Y0108905D01*
X0129988Y0107738D01*
X0129357Y0106213D01*
X0129357Y0104562D01*
X0129988Y0103037D01*
X0131156Y0101869D01*
X0132681Y0101238D01*
X0134332Y0101238D01*
X0135857Y0101869D01*
X0136816Y0102828D01*
X0141636Y0102828D01*
X0142443Y0103635D01*
X0142443Y0107139D01*
X0141636Y0107946D01*
X0136816Y0107946D01*
X0135879Y0108882D01*
X0136144Y0109147D01*
X0136144Y0114226D01*
X0135337Y0115033D01*
X0131833Y0115033D01*
X0131026Y0114226D01*
X0131026Y0112736D02*
X0103543Y0112736D01*
X0102363Y0111557D02*
X0131026Y0111557D01*
X0131026Y0110377D02*
X0086931Y0110377D01*
X0086931Y0109198D02*
X0087621Y0109198D01*
X0087641Y0111557D02*
X0086931Y0111557D01*
X0092363Y0111557D02*
X0097641Y0111557D01*
X0096462Y0112736D02*
X0093543Y0112736D01*
X0094380Y0113916D02*
X0095624Y0113916D01*
X0095624Y0115096D02*
X0094380Y0115096D01*
X0094380Y0116275D02*
X0095624Y0116275D01*
X0095879Y0117455D02*
X0094126Y0117455D01*
X0092946Y0118635D02*
X0097058Y0118635D01*
X0097025Y0122173D02*
X0092980Y0122173D01*
X0094160Y0123353D02*
X0095845Y0123353D01*
X0095624Y0124533D02*
X0094380Y0124533D01*
X0094380Y0125712D02*
X0095624Y0125712D01*
X0095624Y0126892D02*
X0094380Y0126892D01*
X0093509Y0128071D02*
X0096495Y0128071D01*
X0097675Y0129251D02*
X0092330Y0129251D01*
X0087675Y0129251D02*
X0086931Y0129251D01*
X0086931Y0122173D02*
X0087025Y0122173D01*
X0086931Y0120994D02*
X0109270Y0120994D01*
X0111014Y0119814D02*
X0086931Y0119814D01*
X0086931Y0118635D02*
X0087058Y0118635D01*
X0098189Y0109765D02*
X0095624Y0107201D01*
X0095624Y0103574D01*
X0098189Y0101009D01*
X0101816Y0101009D01*
X0104380Y0103574D01*
X0104380Y0107201D01*
X0101816Y0109765D01*
X0098189Y0109765D01*
X0097621Y0109198D02*
X0092383Y0109198D01*
X0093563Y0108018D02*
X0096442Y0108018D01*
X0095624Y0106838D02*
X0094380Y0106838D01*
X0094380Y0105659D02*
X0095624Y0105659D01*
X0095624Y0104479D02*
X0094380Y0104479D01*
X0094106Y0103300D02*
X0095899Y0103300D01*
X0097078Y0102120D02*
X0092927Y0102120D01*
X0091820Y0099761D02*
X0098185Y0099761D01*
X0098189Y0099765D02*
X0095624Y0097201D01*
X0095624Y0093574D01*
X0098189Y0091009D01*
X0101816Y0091009D01*
X0104380Y0093574D01*
X0104380Y0097201D01*
X0101816Y0099765D01*
X0098189Y0099765D01*
X0097005Y0098581D02*
X0093000Y0098581D01*
X0094179Y0097401D02*
X0095825Y0097401D01*
X0095624Y0096222D02*
X0094380Y0096222D01*
X0094380Y0095042D02*
X0095624Y0095042D01*
X0095624Y0093863D02*
X0094380Y0093863D01*
X0093490Y0092683D02*
X0096515Y0092683D01*
X0097695Y0091503D02*
X0092310Y0091503D01*
X0092437Y0089144D02*
X0097568Y0089144D01*
X0098189Y0089765D02*
X0095624Y0087201D01*
X0095624Y0083574D01*
X0098189Y0081009D01*
X0101816Y0081009D01*
X0104380Y0083574D01*
X0104380Y0087201D01*
X0101816Y0089765D01*
X0098189Y0089765D01*
X0096388Y0087965D02*
X0093616Y0087965D01*
X0094380Y0086785D02*
X0095624Y0086785D01*
X0095624Y0085605D02*
X0094380Y0085605D01*
X0094380Y0084426D02*
X0095624Y0084426D01*
X0095952Y0083246D02*
X0094053Y0083246D01*
X0092873Y0082066D02*
X0097132Y0082066D01*
X0102873Y0082066D02*
X0108277Y0082066D01*
X0108333Y0081930D02*
X0110050Y0080214D01*
X0112292Y0079285D01*
X0114720Y0079285D01*
X0116963Y0080214D01*
X0118680Y0081930D01*
X0119609Y0084173D01*
X0119609Y0086601D01*
X0118680Y0088844D01*
X0116963Y0090560D01*
X0114720Y0091489D01*
X0112292Y0091489D01*
X0110050Y0090560D01*
X0108333Y0088844D01*
X0107404Y0086601D01*
X0107404Y0084173D01*
X0108333Y0081930D01*
X0107788Y0083246D02*
X0104053Y0083246D01*
X0104380Y0084426D02*
X0107404Y0084426D01*
X0107404Y0085605D02*
X0104380Y0085605D01*
X0104380Y0086785D02*
X0107480Y0086785D01*
X0107969Y0087965D02*
X0103616Y0087965D01*
X0102437Y0089144D02*
X0108633Y0089144D01*
X0109813Y0090324D02*
X0086931Y0090324D01*
X0086931Y0091503D02*
X0087695Y0091503D01*
X0087568Y0089144D02*
X0086931Y0089144D01*
X0086931Y0082066D02*
X0087132Y0082066D01*
X0086931Y0080887D02*
X0109377Y0080887D01*
X0111272Y0079707D02*
X0086931Y0079707D01*
X0086931Y0078528D02*
X0143646Y0078528D01*
X0144825Y0079707D02*
X0115740Y0079707D01*
X0117636Y0080887D02*
X0146005Y0080887D01*
X0147185Y0082066D02*
X0118736Y0082066D01*
X0119225Y0083246D02*
X0148364Y0083246D01*
X0149544Y0084426D02*
X0119609Y0084426D01*
X0119609Y0085605D02*
X0150724Y0085605D01*
X0151903Y0086785D02*
X0119532Y0086785D01*
X0119044Y0087965D02*
X0153083Y0087965D01*
X0154262Y0089144D02*
X0118379Y0089144D01*
X0117200Y0090324D02*
X0155442Y0090324D01*
X0156622Y0091503D02*
X0102310Y0091503D01*
X0103490Y0092683D02*
X0157801Y0092683D01*
X0158981Y0093863D02*
X0104380Y0093863D01*
X0104380Y0095042D02*
X0160160Y0095042D01*
X0161340Y0096222D02*
X0104380Y0096222D01*
X0104179Y0097401D02*
X0162520Y0097401D01*
X0163699Y0098581D02*
X0103000Y0098581D01*
X0101820Y0099761D02*
X0164879Y0099761D01*
X0166058Y0100940D02*
X0086931Y0100940D01*
X0086931Y0099761D02*
X0088185Y0099761D01*
X0087005Y0098581D02*
X0086931Y0098581D01*
X0086931Y0102120D02*
X0087078Y0102120D01*
X0102927Y0102120D02*
X0130905Y0102120D01*
X0129880Y0103300D02*
X0104106Y0103300D01*
X0104380Y0104479D02*
X0129391Y0104479D01*
X0129357Y0105659D02*
X0104380Y0105659D01*
X0104380Y0106838D02*
X0129616Y0106838D01*
X0130269Y0108018D02*
X0103563Y0108018D01*
X0102383Y0109198D02*
X0131026Y0109198D01*
X0133506Y0111686D02*
X0133506Y0105387D01*
X0139097Y0105387D01*
X0142443Y0105659D02*
X0144412Y0105659D01*
X0144412Y0106838D02*
X0142443Y0106838D01*
X0144412Y0107139D02*
X0144412Y0103635D01*
X0145219Y0102828D01*
X0147533Y0102828D01*
X0148124Y0102238D01*
X0158149Y0102238D01*
X0158684Y0101703D01*
X0159769Y0101253D01*
X0160944Y0101253D01*
X0162029Y0101703D01*
X0162860Y0102533D01*
X0163309Y0103619D01*
X0163309Y0104793D01*
X0162860Y0105879D01*
X0162029Y0106709D01*
X0160944Y0107159D01*
X0159769Y0107159D01*
X0158684Y0106709D01*
X0158149Y0106175D01*
X0151105Y0106175D01*
X0151105Y0107139D01*
X0150298Y0107946D01*
X0145219Y0107946D01*
X0144412Y0107139D01*
X0144412Y0104479D02*
X0142443Y0104479D01*
X0142108Y0103300D02*
X0144748Y0103300D01*
X0147758Y0105387D02*
X0148939Y0104206D01*
X0160357Y0104206D01*
X0162446Y0102120D02*
X0330340Y0102120D01*
X0329852Y0100940D02*
X0236938Y0100940D01*
X0238118Y0099761D02*
X0329538Y0099761D01*
X0329538Y0100183D02*
X0329538Y0096536D01*
X0330933Y0093168D01*
X0333511Y0090590D01*
X0336880Y0089194D01*
X0340526Y0089194D01*
X0343895Y0090590D01*
X0346473Y0093168D01*
X0347868Y0096536D01*
X0347868Y0100183D01*
X0346473Y0103551D01*
X0343895Y0106130D01*
X0340526Y0107525D01*
X0336880Y0107525D01*
X0333511Y0106130D01*
X0330933Y0103551D01*
X0329538Y0100183D01*
X0329538Y0098581D02*
X0239298Y0098581D01*
X0240477Y0097401D02*
X0329538Y0097401D01*
X0329668Y0096222D02*
X0241657Y0096222D01*
X0242836Y0095042D02*
X0330157Y0095042D01*
X0330645Y0093863D02*
X0242994Y0093863D01*
X0242994Y0092683D02*
X0331418Y0092683D01*
X0332598Y0091503D02*
X0258979Y0091503D01*
X0258979Y0090324D02*
X0334153Y0090324D01*
X0343253Y0090324D02*
X0354101Y0090324D01*
X0353825Y0090989D02*
X0354492Y0089380D01*
X0355723Y0088148D01*
X0355926Y0088064D01*
X0355652Y0088064D01*
X0354845Y0087257D01*
X0354845Y0081785D01*
X0355652Y0080978D01*
X0360731Y0080978D01*
X0361538Y0081785D01*
X0361538Y0087257D01*
X0360731Y0088064D01*
X0360481Y0088064D01*
X0360683Y0088148D01*
X0361915Y0089380D01*
X0362581Y0090989D01*
X0362581Y0092730D01*
X0361915Y0094339D01*
X0360683Y0095571D01*
X0359074Y0096238D01*
X0357332Y0096238D01*
X0355723Y0095571D01*
X0354492Y0094339D01*
X0353825Y0092730D01*
X0353825Y0090989D01*
X0353825Y0091503D02*
X0344809Y0091503D01*
X0345988Y0092683D02*
X0353825Y0092683D01*
X0354294Y0093863D02*
X0346761Y0093863D01*
X0347250Y0095042D02*
X0355194Y0095042D01*
X0357295Y0096222D02*
X0347738Y0096222D01*
X0347868Y0097401D02*
X0378664Y0097401D01*
X0378664Y0096222D02*
X0359112Y0096222D01*
X0359074Y0097482D02*
X0360683Y0098148D01*
X0361915Y0099380D01*
X0362581Y0100989D01*
X0362581Y0102730D01*
X0361915Y0104339D01*
X0360683Y0105571D01*
X0359074Y0106238D01*
X0357332Y0106238D01*
X0355723Y0105571D01*
X0354492Y0104339D01*
X0353825Y0102730D01*
X0353825Y0100989D01*
X0354492Y0099380D01*
X0355723Y0098148D01*
X0357332Y0097482D01*
X0359074Y0097482D01*
X0361116Y0098581D02*
X0378664Y0098581D01*
X0378664Y0099761D02*
X0362072Y0099761D01*
X0362561Y0100940D02*
X0378664Y0100940D01*
X0378664Y0102120D02*
X0362581Y0102120D01*
X0362345Y0103300D02*
X0378664Y0103300D01*
X0378664Y0104479D02*
X0361775Y0104479D01*
X0360471Y0105659D02*
X0378664Y0105659D01*
X0378664Y0106838D02*
X0342184Y0106838D01*
X0344366Y0105659D02*
X0355935Y0105659D01*
X0354631Y0104479D02*
X0345545Y0104479D01*
X0346577Y0103300D02*
X0354061Y0103300D01*
X0353825Y0102120D02*
X0347066Y0102120D01*
X0347555Y0100940D02*
X0353845Y0100940D01*
X0354334Y0099761D02*
X0347868Y0099761D01*
X0347868Y0098581D02*
X0355290Y0098581D01*
X0361212Y0095042D02*
X0378664Y0095042D01*
X0378664Y0093863D02*
X0362112Y0093863D01*
X0362581Y0092683D02*
X0378664Y0092683D01*
X0378664Y0091503D02*
X0362581Y0091503D01*
X0362306Y0090324D02*
X0378664Y0090324D01*
X0378664Y0089144D02*
X0361679Y0089144D01*
X0360830Y0087965D02*
X0378664Y0087965D01*
X0378664Y0086785D02*
X0361538Y0086785D01*
X0361538Y0085605D02*
X0378664Y0085605D01*
X0378664Y0084426D02*
X0361538Y0084426D01*
X0361538Y0083246D02*
X0378664Y0083246D01*
X0378664Y0082066D02*
X0361538Y0082066D01*
X0354845Y0082066D02*
X0354845Y0082066D01*
X0354845Y0081785D02*
X0354845Y0087257D01*
X0354038Y0088064D01*
X0348959Y0088064D01*
X0348152Y0087257D01*
X0348152Y0083483D01*
X0312772Y0048104D01*
X0263846Y0048104D01*
X0260514Y0051436D01*
X0260514Y0059127D01*
X0266262Y0059127D01*
X0266262Y0057179D01*
X0267069Y0056371D01*
X0277660Y0056371D01*
X0278467Y0057179D01*
X0278467Y0062257D01*
X0277660Y0063064D01*
X0270625Y0063064D01*
X0270790Y0063461D01*
X0270790Y0063613D01*
X0270889Y0063514D01*
X0271974Y0063064D01*
X0273149Y0063064D01*
X0274234Y0063514D01*
X0275065Y0064344D01*
X0275514Y0065430D01*
X0275514Y0066604D01*
X0275065Y0067690D01*
X0274234Y0068520D01*
X0273149Y0068970D01*
X0272200Y0068970D01*
X0272365Y0069367D01*
X0272365Y0070541D01*
X0271915Y0071627D01*
X0271084Y0072457D01*
X0269999Y0072907D01*
X0268824Y0072907D01*
X0267739Y0072457D01*
X0266909Y0071627D01*
X0266526Y0070702D01*
X0266282Y0070702D01*
X0266046Y0070938D01*
X0258999Y0070938D01*
X0258191Y0070131D01*
X0258191Y0065869D01*
X0257834Y0066017D01*
X0256581Y0066017D01*
X0255423Y0065538D01*
X0254537Y0064652D01*
X0254057Y0063494D01*
X0254057Y0062241D01*
X0254385Y0061450D01*
X0250978Y0061450D01*
X0249963Y0060435D01*
X0249442Y0059915D01*
X0238132Y0059915D01*
X0237325Y0059108D01*
X0237325Y0052060D01*
X0237561Y0051824D01*
X0237561Y0044097D01*
X0229127Y0035663D01*
X0228930Y0035466D01*
X0228467Y0035466D01*
X0228467Y0037060D01*
X0227660Y0037867D01*
X0217857Y0037867D01*
X0217050Y0037060D01*
X0217050Y0030407D01*
X0217857Y0029600D01*
X0227660Y0029600D01*
X0228467Y0030407D01*
X0228467Y0032001D01*
X0229324Y0032001D01*
X0232080Y0029245D01*
X0299797Y0029245D01*
X0302335Y0026707D01*
X0301609Y0025980D01*
X0301609Y0022353D01*
X0304173Y0019789D01*
X0307800Y0019789D01*
X0310365Y0022353D01*
X0310365Y0025980D01*
X0307800Y0028545D01*
X0305397Y0028545D01*
X0302246Y0031695D01*
X0301232Y0032710D01*
X0233515Y0032710D01*
X0232295Y0033930D01*
X0241026Y0042662D01*
X0241026Y0047579D01*
X0241659Y0047316D01*
X0242834Y0047316D01*
X0243919Y0047766D01*
X0244750Y0048596D01*
X0245177Y0049628D01*
X0245199Y0049650D01*
X0245199Y0049870D01*
X0245321Y0050052D01*
X0245199Y0050661D01*
X0245199Y0051253D01*
X0247404Y0051253D01*
X0247404Y0049748D01*
X0249924Y0047229D01*
X0249924Y0046138D01*
X0250373Y0045053D01*
X0251204Y0044222D01*
X0252289Y0043773D01*
X0253464Y0043773D01*
X0254549Y0044222D01*
X0255380Y0045053D01*
X0255829Y0046138D01*
X0255829Y0047173D01*
X0260804Y0042198D01*
X0315815Y0042198D01*
X0330060Y0056443D01*
X0329538Y0055183D01*
X0329538Y0051536D01*
X0330933Y0048168D01*
X0333511Y0045590D01*
X0336880Y0044194D01*
X0340526Y0044194D01*
X0343895Y0045590D01*
X0346473Y0048168D01*
X0347868Y0051536D01*
X0347868Y0055183D01*
X0346473Y0058551D01*
X0343895Y0061130D01*
X0340526Y0062525D01*
X0336880Y0062525D01*
X0335620Y0062003D01*
X0339043Y0065427D01*
X0348152Y0065427D01*
X0348152Y0064462D01*
X0348959Y0063655D01*
X0354038Y0063655D01*
X0354845Y0064462D01*
X0355652Y0063655D01*
X0355926Y0063655D01*
X0355723Y0063571D01*
X0354492Y0062339D01*
X0353825Y0060730D01*
X0353825Y0058989D01*
X0354492Y0057380D01*
X0355723Y0056148D01*
X0357332Y0055482D01*
X0359074Y0055482D01*
X0360683Y0056148D01*
X0361915Y0057380D01*
X0362581Y0058989D01*
X0362581Y0060730D01*
X0361915Y0062339D01*
X0360683Y0063571D01*
X0360481Y0063655D01*
X0360731Y0063655D01*
X0361538Y0064462D01*
X0361538Y0069934D01*
X0360731Y0070741D01*
X0355652Y0070741D01*
X0354845Y0069934D01*
X0354845Y0064462D01*
X0354845Y0069934D01*
X0354038Y0070741D01*
X0348959Y0070741D01*
X0348152Y0069934D01*
X0348152Y0068970D01*
X0338650Y0068970D01*
X0350657Y0080978D01*
X0354038Y0080978D01*
X0354845Y0081785D01*
X0354845Y0083246D02*
X0354845Y0083246D01*
X0354845Y0084426D02*
X0354845Y0084426D01*
X0354845Y0085605D02*
X0354845Y0085605D01*
X0354845Y0086785D02*
X0354845Y0086785D01*
X0355552Y0087965D02*
X0354137Y0087965D01*
X0354727Y0089144D02*
X0300908Y0089144D01*
X0300908Y0089226D02*
X0300101Y0090033D01*
X0295022Y0090033D01*
X0294215Y0089226D01*
X0293408Y0090033D01*
X0288329Y0090033D01*
X0287732Y0089435D01*
X0287716Y0089442D01*
X0286541Y0089442D01*
X0285456Y0088993D01*
X0284625Y0088162D01*
X0284176Y0087077D01*
X0284176Y0085902D01*
X0284625Y0084817D01*
X0284960Y0084482D01*
X0266282Y0084482D01*
X0266046Y0084718D01*
X0258999Y0084718D01*
X0258191Y0083911D01*
X0258191Y0079620D01*
X0258999Y0078812D01*
X0258191Y0078005D01*
X0258191Y0076926D01*
X0257440Y0077238D01*
X0256187Y0077238D01*
X0255029Y0076758D01*
X0254143Y0075872D01*
X0253664Y0074714D01*
X0253664Y0073461D01*
X0254143Y0072304D01*
X0255029Y0071418D01*
X0256187Y0070938D01*
X0257708Y0070938D01*
X0258431Y0070873D01*
X0258510Y0070938D01*
X0266046Y0070938D01*
X0266853Y0071745D01*
X0266853Y0073143D01*
X0270860Y0073143D01*
X0286183Y0057819D01*
X0286477Y0057526D01*
X0285456Y0057103D01*
X0284625Y0056272D01*
X0284176Y0055187D01*
X0284176Y0054012D01*
X0284625Y0052927D01*
X0285456Y0052097D01*
X0286541Y0051647D01*
X0287739Y0051647D01*
X0288329Y0051056D01*
X0293408Y0051056D01*
X0294215Y0051864D01*
X0295022Y0051056D01*
X0300101Y0051056D01*
X0300908Y0051864D01*
X0300908Y0056804D01*
X0309325Y0056804D01*
X0309325Y0054789D01*
X0310132Y0053982D01*
X0317274Y0053982D01*
X0318081Y0054789D01*
X0318081Y0061930D01*
X0317274Y0062738D01*
X0310132Y0062738D01*
X0309325Y0061930D01*
X0309325Y0060269D01*
X0306804Y0060269D01*
X0307415Y0060880D01*
X0308081Y0062489D01*
X0308081Y0064230D01*
X0307415Y0065839D01*
X0306183Y0067071D01*
X0304574Y0067738D01*
X0302832Y0067738D01*
X0301223Y0067071D01*
X0300908Y0066756D01*
X0300908Y0069934D01*
X0300691Y0070151D01*
X0300720Y0070151D01*
X0301223Y0069648D01*
X0302832Y0068982D01*
X0304574Y0068982D01*
X0306183Y0069648D01*
X0307415Y0070880D01*
X0307801Y0071812D01*
X0309635Y0069978D01*
X0309325Y0069230D01*
X0309325Y0067489D01*
X0309992Y0065880D01*
X0311223Y0064648D01*
X0312832Y0063982D01*
X0314574Y0063982D01*
X0315781Y0064482D01*
X0317050Y0064482D01*
X0317050Y0063675D01*
X0317857Y0062867D01*
X0323329Y0062867D01*
X0324136Y0063675D01*
X0324136Y0068753D01*
X0323329Y0069560D01*
X0317944Y0069560D01*
X0317944Y0069560D01*
X0323329Y0069560D01*
X0323920Y0070151D01*
X0324330Y0070151D01*
X0325415Y0070600D01*
X0326246Y0071431D01*
X0326695Y0072516D01*
X0326695Y0073691D01*
X0326246Y0074776D01*
X0325415Y0075607D01*
X0324330Y0076056D01*
X0323939Y0076056D01*
X0323939Y0080761D01*
X0323132Y0081568D01*
X0317660Y0081568D01*
X0317404Y0081312D01*
X0316942Y0081312D01*
X0316183Y0082071D01*
X0314574Y0082738D01*
X0312832Y0082738D01*
X0311223Y0082071D01*
X0309992Y0080839D01*
X0309325Y0079230D01*
X0309325Y0077766D01*
X0307137Y0079954D01*
X0306489Y0079954D01*
X0307415Y0080880D01*
X0308081Y0082489D01*
X0308081Y0084230D01*
X0307415Y0085839D01*
X0306183Y0087071D01*
X0304574Y0087738D01*
X0302832Y0087738D01*
X0301223Y0087071D01*
X0300908Y0086756D01*
X0300908Y0089226D01*
X0300908Y0087965D02*
X0348859Y0087965D01*
X0348152Y0086785D02*
X0306469Y0086785D01*
X0307512Y0085605D02*
X0348152Y0085605D01*
X0348152Y0084426D02*
X0308000Y0084426D01*
X0308081Y0083246D02*
X0347915Y0083246D01*
X0346735Y0082066D02*
X0316188Y0082066D01*
X0311219Y0082066D02*
X0307906Y0082066D01*
X0307418Y0080887D02*
X0310039Y0080887D01*
X0309523Y0079707D02*
X0307384Y0079707D01*
X0308564Y0078528D02*
X0309325Y0078528D01*
X0300642Y0076489D02*
X0300450Y0076298D01*
X0300298Y0076450D01*
X0294825Y0076450D01*
X0294018Y0075643D01*
X0294018Y0070564D01*
X0294432Y0070151D01*
X0294215Y0069934D01*
X0293408Y0070741D01*
X0288548Y0070741D01*
X0288407Y0070882D01*
X0287322Y0071332D01*
X0286147Y0071332D01*
X0285062Y0070882D01*
X0284231Y0070052D01*
X0283924Y0069309D01*
X0274657Y0078576D01*
X0266282Y0078576D01*
X0266046Y0078812D01*
X0258999Y0078812D01*
X0266046Y0078812D01*
X0266282Y0079049D01*
X0275190Y0079049D01*
X0276735Y0077504D01*
X0277749Y0076489D01*
X0300642Y0076489D01*
X0294544Y0076168D02*
X0277065Y0076168D01*
X0276891Y0077348D02*
X0275885Y0077348D01*
X0275711Y0078528D02*
X0274705Y0078528D01*
X0278244Y0074989D02*
X0294018Y0074989D01*
X0294018Y0073809D02*
X0279424Y0073809D01*
X0280603Y0072630D02*
X0294018Y0072630D01*
X0294018Y0071450D02*
X0281783Y0071450D01*
X0282963Y0070270D02*
X0284450Y0070270D01*
X0278451Y0065552D02*
X0275514Y0065552D01*
X0275462Y0066732D02*
X0277271Y0066732D01*
X0276092Y0067911D02*
X0274843Y0067911D01*
X0274912Y0069091D02*
X0272250Y0069091D01*
X0272365Y0070270D02*
X0273732Y0070270D01*
X0272553Y0071450D02*
X0271988Y0071450D01*
X0271373Y0072630D02*
X0270668Y0072630D01*
X0268155Y0072630D02*
X0266853Y0072630D01*
X0266835Y0071450D02*
X0266557Y0071450D01*
X0262522Y0072907D02*
X0257798Y0072907D01*
X0256813Y0074088D01*
X0254440Y0076168D02*
X0234176Y0076168D01*
X0234176Y0074989D02*
X0253777Y0074989D01*
X0253664Y0073809D02*
X0234176Y0073809D01*
X0234176Y0072630D02*
X0254008Y0072630D01*
X0254997Y0071450D02*
X0234176Y0071450D01*
X0234176Y0070270D02*
X0258331Y0070270D01*
X0258191Y0069091D02*
X0234176Y0069091D01*
X0234176Y0067911D02*
X0258191Y0067911D01*
X0258191Y0066732D02*
X0234176Y0066732D01*
X0234176Y0065552D02*
X0255458Y0065552D01*
X0254421Y0064372D02*
X0234176Y0064372D01*
X0234176Y0063193D02*
X0254057Y0063193D01*
X0254152Y0062013D02*
X0234176Y0062013D01*
X0234176Y0060833D02*
X0250361Y0060833D01*
X0257207Y0062867D02*
X0257404Y0063064D01*
X0262522Y0063064D01*
X0262522Y0061096D02*
X0268231Y0061096D01*
X0269806Y0059718D02*
X0274924Y0059718D01*
X0278467Y0059654D02*
X0284349Y0059654D01*
X0283169Y0060833D02*
X0278467Y0060833D01*
X0278467Y0062013D02*
X0281990Y0062013D01*
X0280810Y0063193D02*
X0273459Y0063193D01*
X0271664Y0063193D02*
X0270679Y0063193D01*
X0267837Y0064049D02*
X0267640Y0065033D01*
X0262522Y0065033D01*
X0260514Y0058474D02*
X0266262Y0058474D01*
X0266262Y0057295D02*
X0260514Y0057295D01*
X0260514Y0056115D02*
X0284560Y0056115D01*
X0284176Y0054935D02*
X0260514Y0054935D01*
X0260514Y0053756D02*
X0284282Y0053756D01*
X0284976Y0052576D02*
X0260514Y0052576D01*
X0260554Y0051397D02*
X0287989Y0051397D01*
X0293748Y0051397D02*
X0294682Y0051397D01*
X0294215Y0051864D02*
X0294215Y0056804D01*
X0294215Y0056804D01*
X0294215Y0051864D01*
X0294215Y0052576D02*
X0294215Y0052576D01*
X0294215Y0053756D02*
X0294215Y0053756D01*
X0294215Y0054935D02*
X0294215Y0054935D01*
X0294215Y0056115D02*
X0294215Y0056115D01*
X0300908Y0056115D02*
X0309325Y0056115D01*
X0309325Y0054935D02*
X0300908Y0054935D01*
X0300908Y0053756D02*
X0318425Y0053756D01*
X0318081Y0054935D02*
X0319604Y0054935D01*
X0320784Y0056115D02*
X0318081Y0056115D01*
X0318081Y0057295D02*
X0321963Y0057295D01*
X0323143Y0058474D02*
X0318081Y0058474D01*
X0318081Y0059654D02*
X0324323Y0059654D01*
X0325502Y0060833D02*
X0318081Y0060833D01*
X0317998Y0062013D02*
X0326682Y0062013D01*
X0327861Y0063193D02*
X0323654Y0063193D01*
X0324136Y0064372D02*
X0329041Y0064372D01*
X0330221Y0065552D02*
X0324136Y0065552D01*
X0324136Y0066732D02*
X0331400Y0066732D01*
X0332580Y0067911D02*
X0324136Y0067911D01*
X0323799Y0069091D02*
X0333760Y0069091D01*
X0334939Y0070270D02*
X0324618Y0070270D01*
X0326254Y0071450D02*
X0336119Y0071450D01*
X0337298Y0072630D02*
X0326695Y0072630D01*
X0326646Y0073809D02*
X0338478Y0073809D01*
X0339658Y0074989D02*
X0326033Y0074989D01*
X0323939Y0076168D02*
X0340837Y0076168D01*
X0342017Y0077348D02*
X0323939Y0077348D01*
X0323939Y0078528D02*
X0343196Y0078528D01*
X0344376Y0079707D02*
X0323939Y0079707D01*
X0323814Y0080887D02*
X0345556Y0080887D01*
X0348207Y0078528D02*
X0378664Y0078528D01*
X0378664Y0079707D02*
X0349387Y0079707D01*
X0350567Y0080887D02*
X0378664Y0080887D01*
X0378664Y0077348D02*
X0347028Y0077348D01*
X0345848Y0076168D02*
X0378664Y0076168D01*
X0378664Y0074989D02*
X0344669Y0074989D01*
X0343489Y0073809D02*
X0378664Y0073809D01*
X0378664Y0072630D02*
X0342309Y0072630D01*
X0341130Y0071450D02*
X0378664Y0071450D01*
X0378664Y0070270D02*
X0361202Y0070270D01*
X0361538Y0069091D02*
X0378664Y0069091D01*
X0378664Y0067911D02*
X0361538Y0067911D01*
X0361538Y0066732D02*
X0378664Y0066732D01*
X0378664Y0065552D02*
X0361538Y0065552D01*
X0361448Y0064372D02*
X0378664Y0064372D01*
X0378664Y0063193D02*
X0361061Y0063193D01*
X0362050Y0062013D02*
X0378664Y0062013D01*
X0378664Y0060833D02*
X0362538Y0060833D01*
X0362581Y0059654D02*
X0378664Y0059654D01*
X0378664Y0058474D02*
X0362368Y0058474D01*
X0361830Y0057295D02*
X0378664Y0057295D01*
X0378664Y0056115D02*
X0360603Y0056115D01*
X0360237Y0053756D02*
X0378664Y0053756D01*
X0378664Y0054935D02*
X0347868Y0054935D01*
X0347868Y0053756D02*
X0356169Y0053756D01*
X0355723Y0053571D02*
X0357332Y0054238D01*
X0359074Y0054238D01*
X0360683Y0053571D01*
X0361915Y0052339D01*
X0362581Y0050730D01*
X0362581Y0048989D01*
X0361915Y0047380D01*
X0360683Y0046148D01*
X0359074Y0045482D01*
X0357332Y0045482D01*
X0355723Y0046148D01*
X0354492Y0047380D01*
X0353825Y0048989D01*
X0353825Y0050730D01*
X0354492Y0052339D01*
X0355723Y0053571D01*
X0354728Y0052576D02*
X0347868Y0052576D01*
X0347811Y0051397D02*
X0354101Y0051397D01*
X0353825Y0050217D02*
X0347322Y0050217D01*
X0346833Y0049037D02*
X0353825Y0049037D01*
X0354294Y0047858D02*
X0346163Y0047858D01*
X0344983Y0046678D02*
X0355193Y0046678D01*
X0357292Y0045498D02*
X0343675Y0045498D01*
X0340827Y0044319D02*
X0378664Y0044319D01*
X0378664Y0045498D02*
X0359115Y0045498D01*
X0361213Y0046678D02*
X0378664Y0046678D01*
X0378664Y0047858D02*
X0362113Y0047858D01*
X0362581Y0049037D02*
X0378664Y0049037D01*
X0378664Y0050217D02*
X0362581Y0050217D01*
X0362305Y0051397D02*
X0378664Y0051397D01*
X0378664Y0052576D02*
X0361678Y0052576D01*
X0355803Y0056115D02*
X0347482Y0056115D01*
X0346994Y0057295D02*
X0354577Y0057295D01*
X0354038Y0058474D02*
X0346505Y0058474D01*
X0345371Y0059654D02*
X0353825Y0059654D01*
X0353868Y0060833D02*
X0344191Y0060833D01*
X0341762Y0062013D02*
X0354356Y0062013D01*
X0355345Y0063193D02*
X0336809Y0063193D01*
X0335644Y0062013D02*
X0335630Y0062013D01*
X0337989Y0064372D02*
X0348242Y0064372D01*
X0348152Y0069091D02*
X0338770Y0069091D01*
X0339950Y0070270D02*
X0348488Y0070270D01*
X0354509Y0070270D02*
X0355181Y0070270D01*
X0354845Y0069091D02*
X0354845Y0069091D01*
X0354845Y0067911D02*
X0354845Y0067911D01*
X0354845Y0066732D02*
X0354845Y0066732D01*
X0354845Y0065552D02*
X0354845Y0065552D01*
X0354755Y0064372D02*
X0354935Y0064372D01*
X0329924Y0056115D02*
X0329732Y0056115D01*
X0329538Y0054935D02*
X0328552Y0054935D01*
X0329538Y0053756D02*
X0327373Y0053756D01*
X0326193Y0052576D02*
X0329538Y0052576D01*
X0329596Y0051397D02*
X0325013Y0051397D01*
X0323834Y0050217D02*
X0330084Y0050217D01*
X0330573Y0049037D02*
X0322654Y0049037D01*
X0321474Y0047858D02*
X0331243Y0047858D01*
X0332423Y0046678D02*
X0320295Y0046678D01*
X0319115Y0045498D02*
X0333731Y0045498D01*
X0336579Y0044319D02*
X0317936Y0044319D01*
X0316756Y0043139D02*
X0378664Y0043139D01*
X0378664Y0041960D02*
X0240324Y0041960D01*
X0241026Y0043139D02*
X0259863Y0043139D01*
X0258683Y0044319D02*
X0254645Y0044319D01*
X0255564Y0045498D02*
X0257504Y0045498D01*
X0256324Y0046678D02*
X0255829Y0046678D01*
X0251107Y0044319D02*
X0241026Y0044319D01*
X0241026Y0045498D02*
X0250189Y0045498D01*
X0249924Y0046678D02*
X0241026Y0046678D01*
X0244011Y0047858D02*
X0249295Y0047858D01*
X0248115Y0049037D02*
X0244932Y0049037D01*
X0245288Y0050217D02*
X0247404Y0050217D01*
X0243231Y0050466D02*
X0242246Y0050269D01*
X0243231Y0050466D02*
X0243231Y0055584D01*
X0237325Y0056115D02*
X0157758Y0056115D01*
X0157758Y0054935D02*
X0237325Y0054935D01*
X0237325Y0053756D02*
X0157758Y0053756D01*
X0157758Y0052576D02*
X0192246Y0052576D01*
X0192246Y0052808D02*
X0192246Y0046155D01*
X0193054Y0045348D01*
X0202857Y0045348D01*
X0203664Y0046155D01*
X0203664Y0052808D01*
X0202857Y0053615D01*
X0193054Y0053615D01*
X0192246Y0052808D01*
X0192246Y0051397D02*
X0157758Y0051397D01*
X0157758Y0050217D02*
X0192246Y0050217D01*
X0192246Y0049037D02*
X0157758Y0049037D01*
X0157758Y0047858D02*
X0192246Y0047858D01*
X0192246Y0046678D02*
X0157758Y0046678D01*
X0157758Y0045498D02*
X0192903Y0045498D01*
X0203007Y0045498D02*
X0237561Y0045498D01*
X0237561Y0044319D02*
X0157758Y0044319D01*
X0157758Y0043139D02*
X0236604Y0043139D01*
X0235424Y0041960D02*
X0157758Y0041960D01*
X0157758Y0040780D02*
X0234245Y0040780D01*
X0233065Y0039600D02*
X0157758Y0039600D01*
X0157758Y0038421D02*
X0231885Y0038421D01*
X0230706Y0037241D02*
X0228286Y0037241D01*
X0228467Y0036062D02*
X0229526Y0036062D01*
X0233246Y0034882D02*
X0378664Y0034882D01*
X0378664Y0036062D02*
X0234426Y0036062D01*
X0235605Y0037241D02*
X0378664Y0037241D01*
X0378664Y0038421D02*
X0236785Y0038421D01*
X0237965Y0039600D02*
X0378664Y0039600D01*
X0378664Y0040780D02*
X0239144Y0040780D01*
X0237561Y0046678D02*
X0203664Y0046678D01*
X0203664Y0047858D02*
X0237561Y0047858D01*
X0237561Y0049037D02*
X0203664Y0049037D01*
X0203664Y0050217D02*
X0237561Y0050217D01*
X0237561Y0051397D02*
X0203664Y0051397D01*
X0203664Y0052576D02*
X0237325Y0052576D01*
X0237325Y0057295D02*
X0232486Y0057295D01*
X0232601Y0058474D02*
X0237325Y0058474D01*
X0237872Y0059654D02*
X0233895Y0059654D01*
X0225514Y0059654D02*
X0223349Y0059654D01*
X0223349Y0060833D02*
X0225514Y0060833D01*
X0225514Y0062013D02*
X0224157Y0062013D01*
X0225336Y0063193D02*
X0225514Y0063193D01*
X0225514Y0058474D02*
X0221735Y0058474D01*
X0221013Y0057295D02*
X0225629Y0057295D01*
X0208362Y0057295D02*
X0158021Y0057295D01*
X0159201Y0058474D02*
X0207182Y0058474D01*
X0207837Y0057819D02*
X0207837Y0057819D01*
X0206002Y0059654D02*
X0160380Y0059654D01*
X0161560Y0060833D02*
X0204823Y0060833D01*
X0203643Y0062013D02*
X0162740Y0062013D01*
X0163919Y0063193D02*
X0202464Y0063193D01*
X0201284Y0064372D02*
X0165099Y0064372D01*
X0166278Y0065552D02*
X0200104Y0065552D01*
X0198925Y0066732D02*
X0167458Y0066732D01*
X0168638Y0067911D02*
X0197745Y0067911D01*
X0196565Y0069091D02*
X0169817Y0069091D01*
X0170997Y0070270D02*
X0195386Y0070270D01*
X0194206Y0071450D02*
X0172176Y0071450D01*
X0160576Y0077348D02*
X0159571Y0077348D01*
X0159397Y0076168D02*
X0158391Y0076168D01*
X0158217Y0074989D02*
X0157211Y0074989D01*
X0157038Y0073809D02*
X0156032Y0073809D01*
X0155858Y0072630D02*
X0154852Y0072630D01*
X0154678Y0071450D02*
X0153672Y0071450D01*
X0153499Y0070270D02*
X0152493Y0070270D01*
X0152319Y0069091D02*
X0151313Y0069091D01*
X0151140Y0067911D02*
X0150134Y0067911D01*
X0149960Y0066732D02*
X0148954Y0066732D01*
X0148780Y0065552D02*
X0147774Y0065552D01*
X0147601Y0064372D02*
X0146595Y0064372D01*
X0146421Y0063193D02*
X0145415Y0063193D01*
X0145241Y0062013D02*
X0144236Y0062013D01*
X0144062Y0060833D02*
X0143056Y0060833D01*
X0142882Y0059654D02*
X0141876Y0059654D01*
X0141703Y0058474D02*
X0140697Y0058474D01*
X0140523Y0057295D02*
X0139517Y0057295D01*
X0139343Y0056115D02*
X0138338Y0056115D01*
X0137719Y0055496D02*
X0174854Y0092631D01*
X0234442Y0092631D01*
X0234482Y0092592D01*
X0234195Y0092592D01*
X0233388Y0091785D01*
X0233388Y0088011D01*
X0233138Y0088261D01*
X0225765Y0088261D01*
X0224727Y0087223D01*
X0224727Y0081819D01*
X0225765Y0080781D01*
X0233368Y0080781D01*
X0226321Y0080781D01*
X0225514Y0079974D01*
X0225514Y0076608D01*
X0223476Y0076608D01*
X0222098Y0077986D01*
X0209106Y0077986D01*
X0204609Y0082483D01*
X0203594Y0083497D01*
X0166726Y0083497D01*
X0165711Y0082483D01*
X0139333Y0056105D01*
X0139333Y0027012D01*
X0137800Y0028545D01*
X0137719Y0028545D01*
X0137719Y0055496D01*
X0137719Y0054935D02*
X0139333Y0054935D01*
X0139333Y0053756D02*
X0137719Y0053756D01*
X0137719Y0052576D02*
X0139333Y0052576D01*
X0139333Y0051397D02*
X0137719Y0051397D01*
X0137719Y0050217D02*
X0139333Y0050217D01*
X0139333Y0049037D02*
X0137719Y0049037D01*
X0137719Y0047858D02*
X0139333Y0047858D01*
X0139333Y0046678D02*
X0137719Y0046678D01*
X0137719Y0045498D02*
X0139333Y0045498D01*
X0139333Y0044319D02*
X0137719Y0044319D01*
X0137719Y0043139D02*
X0139333Y0043139D01*
X0139333Y0041960D02*
X0137719Y0041960D01*
X0137719Y0040780D02*
X0139333Y0040780D01*
X0139333Y0039600D02*
X0137719Y0039600D01*
X0137719Y0038421D02*
X0139333Y0038421D01*
X0139333Y0037241D02*
X0137719Y0037241D01*
X0137719Y0036062D02*
X0139333Y0036062D01*
X0139333Y0034882D02*
X0137719Y0034882D01*
X0137719Y0033702D02*
X0139333Y0033702D01*
X0139333Y0032523D02*
X0137719Y0032523D01*
X0137719Y0031343D02*
X0139333Y0031343D01*
X0139333Y0030163D02*
X0137719Y0030163D01*
X0137719Y0028984D02*
X0139333Y0028984D01*
X0139333Y0027804D02*
X0138540Y0027804D01*
X0152640Y0020727D02*
X0153235Y0020727D01*
X0153056Y0019547D02*
X0378664Y0019547D01*
X0378664Y0020727D02*
X0318738Y0020727D01*
X0317800Y0019789D02*
X0320365Y0022353D01*
X0320365Y0025980D01*
X0317800Y0028545D01*
X0314173Y0028545D01*
X0311609Y0025980D01*
X0311609Y0022353D01*
X0314173Y0019789D01*
X0317800Y0019789D01*
X0317977Y0018367D02*
X0378664Y0018367D01*
X0378664Y0017188D02*
X0319157Y0017188D01*
X0320336Y0016008D02*
X0378664Y0016008D01*
X0378664Y0014829D02*
X0320365Y0014829D01*
X0320365Y0013649D02*
X0378664Y0013649D01*
X0378664Y0012469D02*
X0320365Y0012469D01*
X0319301Y0011290D02*
X0378664Y0011290D01*
X0378664Y0021906D02*
X0319917Y0021906D01*
X0320365Y0023086D02*
X0378664Y0023086D01*
X0378664Y0024265D02*
X0320365Y0024265D01*
X0320365Y0025445D02*
X0378664Y0025445D01*
X0378664Y0026625D02*
X0319720Y0026625D01*
X0318540Y0027804D02*
X0378664Y0027804D01*
X0378664Y0028984D02*
X0304958Y0028984D01*
X0303778Y0030163D02*
X0378664Y0030163D01*
X0378664Y0031343D02*
X0302599Y0031343D01*
X0302246Y0031695D02*
X0302246Y0031695D01*
X0301419Y0032523D02*
X0378664Y0032523D01*
X0378664Y0033702D02*
X0232523Y0033702D01*
X0229982Y0031343D02*
X0228467Y0031343D01*
X0228223Y0030163D02*
X0231162Y0030163D01*
X0233433Y0027804D02*
X0228540Y0027804D01*
X0227800Y0028545D02*
X0224173Y0028545D01*
X0221609Y0025980D01*
X0221609Y0022353D01*
X0224173Y0019789D01*
X0227800Y0019789D01*
X0230365Y0022353D01*
X0230365Y0025980D01*
X0227800Y0028545D01*
X0229720Y0026625D02*
X0232253Y0026625D01*
X0231609Y0025980D02*
X0231609Y0022353D01*
X0234173Y0019789D01*
X0237800Y0019789D01*
X0240365Y0022353D01*
X0240365Y0025980D01*
X0237800Y0028545D01*
X0234173Y0028545D01*
X0231609Y0025980D01*
X0231609Y0025445D02*
X0230365Y0025445D01*
X0230365Y0024265D02*
X0231609Y0024265D01*
X0231609Y0023086D02*
X0230365Y0023086D01*
X0229917Y0021906D02*
X0232056Y0021906D01*
X0233235Y0020727D02*
X0228738Y0020727D01*
X0227977Y0018367D02*
X0233996Y0018367D01*
X0232816Y0017188D02*
X0229157Y0017188D01*
X0230336Y0016008D02*
X0231637Y0016008D01*
X0231609Y0014829D02*
X0230365Y0014829D01*
X0230365Y0013649D02*
X0231609Y0013649D01*
X0231609Y0012469D02*
X0230365Y0012469D01*
X0229301Y0011290D02*
X0232672Y0011290D01*
X0239301Y0011290D02*
X0242672Y0011290D01*
X0241609Y0012469D02*
X0240365Y0012469D01*
X0240365Y0013649D02*
X0241609Y0013649D01*
X0241609Y0014829D02*
X0240365Y0014829D01*
X0240336Y0016008D02*
X0241637Y0016008D01*
X0242816Y0017188D02*
X0239157Y0017188D01*
X0237977Y0018367D02*
X0243996Y0018367D01*
X0244173Y0019789D02*
X0247800Y0019789D01*
X0250365Y0022353D01*
X0250365Y0025980D01*
X0247800Y0028545D01*
X0244173Y0028545D01*
X0241609Y0025980D01*
X0241609Y0022353D01*
X0244173Y0019789D01*
X0243235Y0020727D02*
X0238738Y0020727D01*
X0239917Y0021906D02*
X0242056Y0021906D01*
X0241609Y0023086D02*
X0240365Y0023086D01*
X0240365Y0024265D02*
X0241609Y0024265D01*
X0241609Y0025445D02*
X0240365Y0025445D01*
X0239720Y0026625D02*
X0242253Y0026625D01*
X0243433Y0027804D02*
X0238540Y0027804D01*
X0248540Y0027804D02*
X0253433Y0027804D01*
X0254173Y0028545D02*
X0251609Y0025980D01*
X0251609Y0022353D01*
X0254173Y0019789D01*
X0257800Y0019789D01*
X0260365Y0022353D01*
X0260365Y0025980D01*
X0257800Y0028545D01*
X0254173Y0028545D01*
X0252253Y0026625D02*
X0249720Y0026625D01*
X0250365Y0025445D02*
X0251609Y0025445D01*
X0251609Y0024265D02*
X0250365Y0024265D01*
X0250365Y0023086D02*
X0251609Y0023086D01*
X0252056Y0021906D02*
X0249917Y0021906D01*
X0248738Y0020727D02*
X0253235Y0020727D01*
X0253996Y0018367D02*
X0247977Y0018367D01*
X0249157Y0017188D02*
X0252816Y0017188D01*
X0251637Y0016008D02*
X0250336Y0016008D01*
X0250365Y0014829D02*
X0251609Y0014829D01*
X0251609Y0013649D02*
X0250365Y0013649D01*
X0250365Y0012469D02*
X0251609Y0012469D01*
X0252672Y0011290D02*
X0249301Y0011290D01*
X0259301Y0011290D02*
X0272672Y0011290D01*
X0271609Y0012469D02*
X0260365Y0012469D01*
X0260365Y0013649D02*
X0271609Y0013649D01*
X0271609Y0014829D02*
X0260365Y0014829D01*
X0260336Y0016008D02*
X0271637Y0016008D01*
X0272816Y0017188D02*
X0259157Y0017188D01*
X0257977Y0018367D02*
X0273996Y0018367D01*
X0274173Y0019789D02*
X0277800Y0019789D01*
X0280365Y0022353D01*
X0280365Y0025980D01*
X0277800Y0028545D01*
X0274173Y0028545D01*
X0271609Y0025980D01*
X0271609Y0022353D01*
X0274173Y0019789D01*
X0273235Y0020727D02*
X0258738Y0020727D01*
X0259917Y0021906D02*
X0272056Y0021906D01*
X0271609Y0023086D02*
X0260365Y0023086D01*
X0260365Y0024265D02*
X0271609Y0024265D01*
X0271609Y0025445D02*
X0260365Y0025445D01*
X0259720Y0026625D02*
X0272253Y0026625D01*
X0273433Y0027804D02*
X0258540Y0027804D01*
X0278540Y0027804D02*
X0283433Y0027804D01*
X0284173Y0028545D02*
X0281609Y0025980D01*
X0281609Y0022353D01*
X0284173Y0019789D01*
X0287800Y0019789D01*
X0290365Y0022353D01*
X0290365Y0025980D01*
X0287800Y0028545D01*
X0284173Y0028545D01*
X0282253Y0026625D02*
X0279720Y0026625D01*
X0280365Y0025445D02*
X0281609Y0025445D01*
X0281609Y0024265D02*
X0280365Y0024265D01*
X0280365Y0023086D02*
X0281609Y0023086D01*
X0282056Y0021906D02*
X0279917Y0021906D01*
X0278738Y0020727D02*
X0283235Y0020727D01*
X0283996Y0018367D02*
X0277977Y0018367D01*
X0279157Y0017188D02*
X0282816Y0017188D01*
X0281637Y0016008D02*
X0280336Y0016008D01*
X0280365Y0014829D02*
X0281609Y0014829D01*
X0281609Y0013649D02*
X0280365Y0013649D01*
X0280365Y0012469D02*
X0281609Y0012469D01*
X0282672Y0011290D02*
X0279301Y0011290D01*
X0289301Y0011290D02*
X0292672Y0011290D01*
X0291609Y0012469D02*
X0290365Y0012469D01*
X0290365Y0013649D02*
X0291609Y0013649D01*
X0291609Y0014829D02*
X0290365Y0014829D01*
X0290336Y0016008D02*
X0291637Y0016008D01*
X0292816Y0017188D02*
X0289157Y0017188D01*
X0287977Y0018367D02*
X0293996Y0018367D01*
X0294173Y0019789D02*
X0297800Y0019789D01*
X0300365Y0022353D01*
X0300365Y0025980D01*
X0297800Y0028545D01*
X0294173Y0028545D01*
X0291609Y0025980D01*
X0291609Y0022353D01*
X0294173Y0019789D01*
X0293235Y0020727D02*
X0288738Y0020727D01*
X0289917Y0021906D02*
X0292056Y0021906D01*
X0291609Y0023086D02*
X0290365Y0023086D01*
X0290365Y0024265D02*
X0291609Y0024265D01*
X0291609Y0025445D02*
X0290365Y0025445D01*
X0289720Y0026625D02*
X0292253Y0026625D01*
X0293433Y0027804D02*
X0288540Y0027804D01*
X0298540Y0027804D02*
X0301238Y0027804D01*
X0302253Y0026625D02*
X0299720Y0026625D01*
X0300365Y0025445D02*
X0301609Y0025445D01*
X0301609Y0024265D02*
X0300365Y0024265D01*
X0300365Y0023086D02*
X0301609Y0023086D01*
X0302056Y0021906D02*
X0299917Y0021906D01*
X0298738Y0020727D02*
X0303235Y0020727D01*
X0303996Y0018367D02*
X0297977Y0018367D01*
X0299157Y0017188D02*
X0302816Y0017188D01*
X0301637Y0016008D02*
X0300336Y0016008D01*
X0300365Y0014829D02*
X0301609Y0014829D01*
X0301609Y0013649D02*
X0300365Y0013649D01*
X0300365Y0012469D02*
X0301609Y0012469D01*
X0302672Y0011290D02*
X0299301Y0011290D01*
X0309301Y0011290D02*
X0312672Y0011290D01*
X0311609Y0012469D02*
X0310365Y0012469D01*
X0310365Y0013649D02*
X0311609Y0013649D01*
X0311609Y0014829D02*
X0310365Y0014829D01*
X0310336Y0016008D02*
X0311637Y0016008D01*
X0312816Y0017188D02*
X0309157Y0017188D01*
X0307977Y0018367D02*
X0313996Y0018367D01*
X0313235Y0020727D02*
X0308738Y0020727D01*
X0309917Y0021906D02*
X0312056Y0021906D01*
X0311609Y0023086D02*
X0310365Y0023086D01*
X0310365Y0024265D02*
X0311609Y0024265D01*
X0311609Y0025445D02*
X0310365Y0025445D01*
X0309720Y0026625D02*
X0312253Y0026625D01*
X0313433Y0027804D02*
X0308540Y0027804D01*
X0300058Y0028984D02*
X0184144Y0028984D01*
X0182965Y0027804D02*
X0193433Y0027804D01*
X0194173Y0028545D02*
X0191609Y0025980D01*
X0191609Y0022353D01*
X0194173Y0019789D01*
X0197800Y0019789D01*
X0200365Y0022353D01*
X0200365Y0025980D01*
X0197800Y0028545D01*
X0194173Y0028545D01*
X0193054Y0029600D02*
X0202857Y0029600D01*
X0203664Y0030407D01*
X0203664Y0037060D01*
X0202857Y0037867D01*
X0193054Y0037867D01*
X0192246Y0037060D01*
X0192246Y0036096D01*
X0184575Y0036096D01*
X0183191Y0034712D01*
X0177024Y0028545D01*
X0174173Y0028545D01*
X0171609Y0025980D01*
X0171609Y0022353D01*
X0174173Y0019789D01*
X0177800Y0019789D01*
X0180365Y0022353D01*
X0180365Y0025204D01*
X0186532Y0031371D01*
X0192246Y0031371D01*
X0192246Y0030407D01*
X0193054Y0029600D01*
X0192490Y0030163D02*
X0185324Y0030163D01*
X0186504Y0031343D02*
X0192246Y0031343D01*
X0198540Y0027804D02*
X0203433Y0027804D01*
X0204173Y0028545D02*
X0201609Y0025980D01*
X0201609Y0022353D01*
X0204173Y0019789D01*
X0207800Y0019789D01*
X0210365Y0022353D01*
X0210365Y0025980D01*
X0207800Y0028545D01*
X0204173Y0028545D01*
X0203420Y0030163D02*
X0217293Y0030163D01*
X0217050Y0031343D02*
X0203664Y0031343D01*
X0203664Y0032523D02*
X0217050Y0032523D01*
X0217050Y0033702D02*
X0203664Y0033702D01*
X0203664Y0034882D02*
X0217050Y0034882D01*
X0217050Y0036062D02*
X0203664Y0036062D01*
X0203483Y0037241D02*
X0217231Y0037241D01*
X0217800Y0028545D02*
X0214173Y0028545D01*
X0211609Y0025980D01*
X0211609Y0022353D01*
X0214173Y0019789D01*
X0217800Y0019789D01*
X0220365Y0022353D01*
X0220365Y0025980D01*
X0217800Y0028545D01*
X0218540Y0027804D02*
X0223433Y0027804D01*
X0222253Y0026625D02*
X0219720Y0026625D01*
X0220365Y0025445D02*
X0221609Y0025445D01*
X0221609Y0024265D02*
X0220365Y0024265D01*
X0220365Y0023086D02*
X0221609Y0023086D01*
X0222056Y0021906D02*
X0219917Y0021906D01*
X0218738Y0020727D02*
X0223235Y0020727D01*
X0223996Y0018367D02*
X0217977Y0018367D01*
X0219157Y0017188D02*
X0222816Y0017188D01*
X0221637Y0016008D02*
X0220336Y0016008D01*
X0220365Y0014829D02*
X0221609Y0014829D01*
X0221609Y0013649D02*
X0220365Y0013649D01*
X0220365Y0012469D02*
X0221609Y0012469D01*
X0222672Y0011290D02*
X0219301Y0011290D01*
X0212672Y0011290D02*
X0209301Y0011290D01*
X0210365Y0012469D02*
X0211609Y0012469D01*
X0211609Y0013649D02*
X0210365Y0013649D01*
X0210365Y0014829D02*
X0211609Y0014829D01*
X0211637Y0016008D02*
X0210336Y0016008D01*
X0209157Y0017188D02*
X0212816Y0017188D01*
X0213996Y0018367D02*
X0207977Y0018367D01*
X0208738Y0020727D02*
X0213235Y0020727D01*
X0212056Y0021906D02*
X0209917Y0021906D01*
X0210365Y0023086D02*
X0211609Y0023086D01*
X0211609Y0024265D02*
X0210365Y0024265D01*
X0210365Y0025445D02*
X0211609Y0025445D01*
X0212253Y0026625D02*
X0209720Y0026625D01*
X0208540Y0027804D02*
X0213433Y0027804D01*
X0202253Y0026625D02*
X0199720Y0026625D01*
X0200365Y0025445D02*
X0201609Y0025445D01*
X0201609Y0024265D02*
X0200365Y0024265D01*
X0200365Y0023086D02*
X0201609Y0023086D01*
X0202056Y0021906D02*
X0199917Y0021906D01*
X0198738Y0020727D02*
X0203235Y0020727D01*
X0203996Y0018367D02*
X0197977Y0018367D01*
X0199157Y0017188D02*
X0202816Y0017188D01*
X0201637Y0016008D02*
X0200336Y0016008D01*
X0200365Y0014829D02*
X0201609Y0014829D01*
X0201609Y0013649D02*
X0200365Y0013649D01*
X0200365Y0012469D02*
X0201609Y0012469D01*
X0202672Y0011290D02*
X0199301Y0011290D01*
X0192672Y0011290D02*
X0159301Y0011290D01*
X0160365Y0012469D02*
X0191609Y0012469D01*
X0191609Y0013649D02*
X0160365Y0013649D01*
X0160365Y0014829D02*
X0191609Y0014829D01*
X0191637Y0016008D02*
X0160336Y0016008D01*
X0159157Y0017188D02*
X0192816Y0017188D01*
X0193996Y0018367D02*
X0157977Y0018367D01*
X0158738Y0020727D02*
X0173235Y0020727D01*
X0172056Y0021906D02*
X0159917Y0021906D01*
X0160365Y0023086D02*
X0171609Y0023086D01*
X0171609Y0024265D02*
X0160365Y0024265D01*
X0160365Y0025445D02*
X0171609Y0025445D01*
X0172253Y0026625D02*
X0159720Y0026625D01*
X0158540Y0027804D02*
X0173433Y0027804D01*
X0177463Y0028984D02*
X0157758Y0028984D01*
X0157758Y0030163D02*
X0178643Y0030163D01*
X0179822Y0031343D02*
X0157758Y0031343D01*
X0157758Y0032523D02*
X0181002Y0032523D01*
X0182182Y0033702D02*
X0157758Y0033702D01*
X0157758Y0034882D02*
X0183361Y0034882D01*
X0184541Y0036062D02*
X0157758Y0036062D01*
X0157758Y0037241D02*
X0192427Y0037241D01*
X0192253Y0026625D02*
X0181785Y0026625D01*
X0180606Y0025445D02*
X0191609Y0025445D01*
X0191609Y0024265D02*
X0180365Y0024265D01*
X0180365Y0023086D02*
X0191609Y0023086D01*
X0192056Y0021906D02*
X0179917Y0021906D01*
X0178738Y0020727D02*
X0193235Y0020727D01*
X0261733Y0050217D02*
X0314886Y0050217D01*
X0316065Y0051397D02*
X0300441Y0051397D01*
X0300908Y0052576D02*
X0317245Y0052576D01*
X0313706Y0049037D02*
X0262913Y0049037D01*
X0278467Y0057295D02*
X0285918Y0057295D01*
X0286183Y0057819D02*
X0286183Y0057819D01*
X0285528Y0058474D02*
X0278467Y0058474D01*
X0279630Y0064372D02*
X0275076Y0064372D01*
X0294215Y0064993D02*
X0294215Y0069934D01*
X0294215Y0064993D01*
X0294215Y0064993D01*
X0294215Y0065552D02*
X0294215Y0065552D01*
X0294215Y0066732D02*
X0294215Y0066732D01*
X0294215Y0067911D02*
X0294215Y0067911D01*
X0294215Y0069091D02*
X0294215Y0069091D01*
X0294312Y0070270D02*
X0293879Y0070270D01*
X0300908Y0069091D02*
X0302569Y0069091D01*
X0300908Y0067911D02*
X0309325Y0067911D01*
X0309325Y0069091D02*
X0304837Y0069091D01*
X0306805Y0070270D02*
X0309343Y0070270D01*
X0308163Y0071450D02*
X0307651Y0071450D01*
X0306523Y0066732D02*
X0309639Y0066732D01*
X0310319Y0065552D02*
X0307534Y0065552D01*
X0308022Y0064372D02*
X0311889Y0064372D01*
X0309408Y0062013D02*
X0307884Y0062013D01*
X0308081Y0063193D02*
X0317532Y0063193D01*
X0317050Y0064372D02*
X0315517Y0064372D01*
X0309325Y0060833D02*
X0307368Y0060833D01*
X0294215Y0084482D02*
X0294215Y0089226D01*
X0294215Y0084482D01*
X0294215Y0084482D01*
X0294215Y0085605D02*
X0294215Y0085605D01*
X0294215Y0086785D02*
X0294215Y0086785D01*
X0294215Y0087965D02*
X0294215Y0087965D01*
X0294215Y0089144D02*
X0294215Y0089144D01*
X0300908Y0086785D02*
X0300937Y0086785D01*
X0285821Y0089144D02*
X0258979Y0089144D01*
X0258979Y0087965D02*
X0284543Y0087965D01*
X0284176Y0086785D02*
X0258979Y0086785D01*
X0258979Y0085605D02*
X0284299Y0085605D01*
X0258706Y0084426D02*
X0258667Y0084426D01*
X0258191Y0083246D02*
X0234176Y0083246D01*
X0234176Y0082066D02*
X0258191Y0082066D01*
X0258191Y0080887D02*
X0233474Y0080887D01*
X0234176Y0079707D02*
X0258191Y0079707D01*
X0258714Y0078528D02*
X0234176Y0078528D01*
X0234176Y0077348D02*
X0258191Y0077348D01*
X0233388Y0089144D02*
X0171367Y0089144D01*
X0172546Y0090324D02*
X0233388Y0090324D01*
X0233388Y0091503D02*
X0173726Y0091503D01*
X0170187Y0087965D02*
X0225468Y0087965D01*
X0224727Y0086785D02*
X0169007Y0086785D01*
X0167828Y0085605D02*
X0224727Y0085605D01*
X0224727Y0084426D02*
X0166648Y0084426D01*
X0166475Y0083246D02*
X0165469Y0083246D01*
X0165295Y0082066D02*
X0164289Y0082066D01*
X0164115Y0080887D02*
X0163109Y0080887D01*
X0162936Y0079707D02*
X0161930Y0079707D01*
X0161756Y0078528D02*
X0160750Y0078528D01*
X0142466Y0077348D02*
X0086931Y0077348D01*
X0086931Y0076168D02*
X0141287Y0076168D01*
X0140107Y0074989D02*
X0086931Y0074989D01*
X0086931Y0073809D02*
X0138927Y0073809D01*
X0137748Y0072630D02*
X0086931Y0072630D01*
X0086931Y0071450D02*
X0136568Y0071450D01*
X0135389Y0070270D02*
X0086931Y0070270D01*
X0086931Y0069091D02*
X0087515Y0069091D01*
X0092490Y0069091D02*
X0097515Y0069091D01*
X0098189Y0069765D02*
X0095624Y0067201D01*
X0095624Y0063574D01*
X0098189Y0061009D01*
X0101816Y0061009D01*
X0104380Y0063574D01*
X0104380Y0067201D01*
X0101816Y0069765D01*
X0098189Y0069765D01*
X0096335Y0067911D02*
X0093670Y0067911D01*
X0094380Y0066732D02*
X0095624Y0066732D01*
X0095624Y0065552D02*
X0094380Y0065552D01*
X0094380Y0064372D02*
X0095624Y0064372D01*
X0096005Y0063193D02*
X0093999Y0063193D01*
X0092820Y0062013D02*
X0097185Y0062013D01*
X0098189Y0059765D02*
X0095624Y0057201D01*
X0095624Y0053574D01*
X0098189Y0051009D01*
X0101816Y0051009D01*
X0104380Y0053574D01*
X0104380Y0057201D01*
X0101816Y0059765D01*
X0098189Y0059765D01*
X0098078Y0059654D02*
X0091927Y0059654D01*
X0093107Y0058474D02*
X0096898Y0058474D01*
X0095718Y0057295D02*
X0094286Y0057295D01*
X0094380Y0056115D02*
X0095624Y0056115D01*
X0095624Y0054935D02*
X0094380Y0054935D01*
X0094380Y0053756D02*
X0095624Y0053756D01*
X0096622Y0052576D02*
X0093383Y0052576D01*
X0092203Y0051397D02*
X0097802Y0051397D01*
X0098189Y0049765D02*
X0095624Y0047201D01*
X0095624Y0043574D01*
X0098189Y0041009D01*
X0101816Y0041009D01*
X0104380Y0043574D01*
X0104380Y0047201D01*
X0101816Y0049765D01*
X0098189Y0049765D01*
X0097461Y0049037D02*
X0092544Y0049037D01*
X0093723Y0047858D02*
X0096282Y0047858D01*
X0095624Y0046678D02*
X0094380Y0046678D01*
X0094380Y0045498D02*
X0095624Y0045498D01*
X0095624Y0044319D02*
X0094380Y0044319D01*
X0093946Y0043139D02*
X0096059Y0043139D01*
X0097239Y0041960D02*
X0092766Y0041960D01*
X0087239Y0041960D02*
X0086931Y0041960D01*
X0086931Y0040780D02*
X0124766Y0040780D01*
X0124766Y0039600D02*
X0086931Y0039600D01*
X0086931Y0038421D02*
X0124405Y0038421D01*
X0123225Y0037241D02*
X0086931Y0037241D01*
X0086931Y0036062D02*
X0122046Y0036062D01*
X0120866Y0034882D02*
X0086931Y0034882D01*
X0086931Y0033702D02*
X0119687Y0033702D01*
X0118507Y0032523D02*
X0086931Y0032523D01*
X0086931Y0031343D02*
X0118073Y0031343D01*
X0118073Y0030163D02*
X0086931Y0030163D01*
X0086931Y0028984D02*
X0118073Y0028984D01*
X0118073Y0027804D02*
X0086931Y0027804D01*
X0086931Y0026625D02*
X0118073Y0026625D01*
X0118073Y0025445D02*
X0086931Y0025445D01*
X0086931Y0024265D02*
X0118073Y0024265D01*
X0118073Y0023086D02*
X0086931Y0023086D01*
X0086931Y0021906D02*
X0118073Y0021906D01*
X0118073Y0020727D02*
X0086931Y0020727D01*
X0086931Y0019547D02*
X0118156Y0019547D01*
X0119336Y0018367D02*
X0086931Y0018367D01*
X0086931Y0017188D02*
X0120516Y0017188D01*
X0121637Y0016008D02*
X0086931Y0016008D01*
X0086931Y0014829D02*
X0121609Y0014829D01*
X0121609Y0013649D02*
X0086931Y0013649D01*
X0086931Y0012469D02*
X0121609Y0012469D01*
X0122672Y0011290D02*
X0086931Y0011290D01*
X0102766Y0041960D02*
X0124766Y0041960D01*
X0124766Y0043139D02*
X0103946Y0043139D01*
X0104380Y0044319D02*
X0124766Y0044319D01*
X0124766Y0045498D02*
X0104380Y0045498D01*
X0104380Y0046678D02*
X0124766Y0046678D01*
X0124766Y0047858D02*
X0103723Y0047858D01*
X0102544Y0049037D02*
X0124766Y0049037D01*
X0124766Y0050217D02*
X0086931Y0050217D01*
X0086931Y0051397D02*
X0087802Y0051397D01*
X0087461Y0049037D02*
X0086931Y0049037D01*
X0102203Y0051397D02*
X0124766Y0051397D01*
X0124766Y0052576D02*
X0103383Y0052576D01*
X0104380Y0053756D02*
X0124766Y0053756D01*
X0124766Y0054935D02*
X0104380Y0054935D01*
X0104380Y0056115D02*
X0124766Y0056115D01*
X0124766Y0057295D02*
X0104286Y0057295D01*
X0103107Y0058474D02*
X0124766Y0058474D01*
X0124772Y0059654D02*
X0101927Y0059654D01*
X0102820Y0062013D02*
X0127131Y0062013D01*
X0125952Y0060833D02*
X0086931Y0060833D01*
X0086931Y0059654D02*
X0088078Y0059654D01*
X0087185Y0062013D02*
X0086931Y0062013D01*
X0102490Y0069091D02*
X0134209Y0069091D01*
X0133029Y0067911D02*
X0103670Y0067911D01*
X0104380Y0066732D02*
X0131850Y0066732D01*
X0130670Y0065552D02*
X0104380Y0065552D01*
X0104380Y0064372D02*
X0129490Y0064372D01*
X0128311Y0063193D02*
X0103999Y0063193D01*
X0136107Y0102120D02*
X0158267Y0102120D01*
X0163177Y0103300D02*
X0330829Y0103300D01*
X0331861Y0104479D02*
X0163309Y0104479D01*
X0162951Y0105659D02*
X0333041Y0105659D01*
X0335223Y0106838D02*
X0161718Y0106838D01*
X0158996Y0106838D02*
X0151105Y0106838D01*
X0136744Y0108018D02*
X0378664Y0108018D01*
X0378664Y0109198D02*
X0136144Y0109198D01*
X0136144Y0110377D02*
X0378664Y0110377D01*
X0378664Y0111557D02*
X0136144Y0111557D01*
X0136144Y0112736D02*
X0378664Y0112736D01*
X0378664Y0113916D02*
X0136144Y0113916D01*
X0133585Y0111686D02*
X0133506Y0111686D01*
X0086971Y0142227D02*
X0086931Y0142227D01*
X0086931Y0182334D02*
X0124069Y0182334D01*
X0122890Y0183513D02*
X0086931Y0183513D01*
X0086931Y0184693D02*
X0121710Y0184693D01*
X0121609Y0185872D02*
X0086931Y0185872D01*
X0086931Y0187052D02*
X0121609Y0187052D01*
X0121609Y0188232D02*
X0086931Y0188232D01*
X0086931Y0189411D02*
X0122599Y0189411D01*
X0128195Y0190591D02*
X0133779Y0190591D01*
X0134173Y0190986D02*
X0131609Y0188421D01*
X0131609Y0184794D01*
X0134173Y0182230D01*
X0137800Y0182230D01*
X0140365Y0184794D01*
X0140365Y0188421D01*
X0137800Y0190986D01*
X0134173Y0190986D01*
X0133453Y0192950D02*
X0128521Y0192950D01*
X0129700Y0194130D02*
X0132273Y0194130D01*
X0131609Y0195309D02*
X0130365Y0195309D01*
X0130365Y0196489D02*
X0131609Y0196489D01*
X0131609Y0197669D02*
X0130365Y0197669D01*
X0129937Y0198848D02*
X0132036Y0198848D01*
X0139937Y0198848D02*
X0142036Y0198848D01*
X0141609Y0197669D02*
X0140365Y0197669D01*
X0140365Y0196489D02*
X0141609Y0196489D01*
X0141609Y0195309D02*
X0140365Y0195309D01*
X0139700Y0194130D02*
X0142273Y0194130D01*
X0143453Y0192950D02*
X0138521Y0192950D01*
X0138195Y0190591D02*
X0143779Y0190591D01*
X0144173Y0190986D02*
X0141609Y0188421D01*
X0141609Y0184794D01*
X0144173Y0182230D01*
X0147800Y0182230D01*
X0150365Y0184794D01*
X0150365Y0188421D01*
X0147800Y0190986D01*
X0144173Y0190986D01*
X0142599Y0189411D02*
X0139374Y0189411D01*
X0140365Y0188232D02*
X0141609Y0188232D01*
X0141609Y0187052D02*
X0140365Y0187052D01*
X0140365Y0185872D02*
X0141609Y0185872D01*
X0141710Y0184693D02*
X0140263Y0184693D01*
X0139084Y0183513D02*
X0142890Y0183513D01*
X0144069Y0182334D02*
X0137904Y0182334D01*
X0134069Y0182334D02*
X0127904Y0182334D01*
X0129084Y0183513D02*
X0132890Y0183513D01*
X0131710Y0184693D02*
X0130263Y0184693D01*
X0130365Y0185872D02*
X0131609Y0185872D01*
X0131609Y0187052D02*
X0130365Y0187052D01*
X0130365Y0188232D02*
X0131609Y0188232D01*
X0132599Y0189411D02*
X0129374Y0189411D01*
X0122273Y0194130D02*
X0086931Y0194130D01*
X0086931Y0195309D02*
X0121609Y0195309D01*
X0121609Y0196489D02*
X0086931Y0196489D01*
X0086931Y0197669D02*
X0121609Y0197669D01*
X0122036Y0198848D02*
X0086931Y0198848D01*
X0148195Y0190591D02*
X0153779Y0190591D01*
X0154173Y0190986D02*
X0151609Y0188421D01*
X0151609Y0184794D01*
X0154173Y0182230D01*
X0157800Y0182230D01*
X0160365Y0184794D01*
X0160365Y0188421D01*
X0157800Y0190986D01*
X0154173Y0190986D01*
X0153453Y0192950D02*
X0148521Y0192950D01*
X0149700Y0194130D02*
X0152273Y0194130D01*
X0151609Y0195309D02*
X0150365Y0195309D01*
X0150365Y0196489D02*
X0151609Y0196489D01*
X0151609Y0197669D02*
X0150365Y0197669D01*
X0149937Y0198848D02*
X0152036Y0198848D01*
X0159937Y0198848D02*
X0162036Y0198848D01*
X0161609Y0197669D02*
X0160365Y0197669D01*
X0160365Y0196489D02*
X0161609Y0196489D01*
X0161609Y0195309D02*
X0160365Y0195309D01*
X0159700Y0194130D02*
X0162273Y0194130D01*
X0163453Y0192950D02*
X0158521Y0192950D01*
X0158195Y0190591D02*
X0163779Y0190591D01*
X0164173Y0190986D02*
X0161609Y0188421D01*
X0161609Y0184794D01*
X0164173Y0182230D01*
X0167800Y0182230D01*
X0170365Y0184794D01*
X0170365Y0188421D01*
X0167800Y0190986D01*
X0164173Y0190986D01*
X0162599Y0189411D02*
X0159374Y0189411D01*
X0160365Y0188232D02*
X0161609Y0188232D01*
X0161609Y0187052D02*
X0160365Y0187052D01*
X0160365Y0185872D02*
X0161609Y0185872D01*
X0161710Y0184693D02*
X0160263Y0184693D01*
X0159084Y0183513D02*
X0162890Y0183513D01*
X0164069Y0182334D02*
X0157904Y0182334D01*
X0154069Y0182334D02*
X0147904Y0182334D01*
X0149084Y0183513D02*
X0152890Y0183513D01*
X0151710Y0184693D02*
X0150263Y0184693D01*
X0150365Y0185872D02*
X0151609Y0185872D01*
X0151609Y0187052D02*
X0150365Y0187052D01*
X0150365Y0188232D02*
X0151609Y0188232D01*
X0152599Y0189411D02*
X0149374Y0189411D01*
X0168195Y0190591D02*
X0183779Y0190591D01*
X0184173Y0190986D02*
X0181609Y0188421D01*
X0181609Y0184794D01*
X0184173Y0182230D01*
X0187800Y0182230D01*
X0190365Y0184794D01*
X0190365Y0188421D01*
X0187800Y0190986D01*
X0184173Y0190986D01*
X0183453Y0192950D02*
X0168521Y0192950D01*
X0169700Y0194130D02*
X0182273Y0194130D01*
X0181609Y0195309D02*
X0170365Y0195309D01*
X0170365Y0196489D02*
X0181609Y0196489D01*
X0181609Y0197669D02*
X0170365Y0197669D01*
X0169937Y0198848D02*
X0182036Y0198848D01*
X0189937Y0198848D02*
X0192036Y0198848D01*
X0191609Y0197669D02*
X0190365Y0197669D01*
X0190365Y0196489D02*
X0191609Y0196489D01*
X0191609Y0195309D02*
X0190365Y0195309D01*
X0189700Y0194130D02*
X0192273Y0194130D01*
X0193453Y0192950D02*
X0188521Y0192950D01*
X0188195Y0190591D02*
X0193779Y0190591D01*
X0194173Y0190986D02*
X0191609Y0188421D01*
X0191609Y0184794D01*
X0194173Y0182230D01*
X0197800Y0182230D01*
X0200365Y0184794D01*
X0200365Y0188421D01*
X0197800Y0190986D01*
X0194173Y0190986D01*
X0192599Y0189411D02*
X0189374Y0189411D01*
X0190365Y0188232D02*
X0191609Y0188232D01*
X0191609Y0187052D02*
X0190365Y0187052D01*
X0190365Y0185872D02*
X0191609Y0185872D01*
X0191710Y0184693D02*
X0190263Y0184693D01*
X0189084Y0183513D02*
X0192890Y0183513D01*
X0194069Y0182334D02*
X0187904Y0182334D01*
X0184069Y0182334D02*
X0167904Y0182334D01*
X0169084Y0183513D02*
X0182890Y0183513D01*
X0181710Y0184693D02*
X0170263Y0184693D01*
X0170365Y0185872D02*
X0181609Y0185872D01*
X0181609Y0187052D02*
X0170365Y0187052D01*
X0170365Y0188232D02*
X0181609Y0188232D01*
X0182599Y0189411D02*
X0169374Y0189411D01*
X0198195Y0190591D02*
X0203779Y0190591D01*
X0204173Y0190986D02*
X0201609Y0188421D01*
X0201609Y0184794D01*
X0204173Y0182230D01*
X0207800Y0182230D01*
X0210365Y0184794D01*
X0210365Y0188421D01*
X0207800Y0190986D01*
X0204173Y0190986D01*
X0203453Y0192950D02*
X0198521Y0192950D01*
X0199700Y0194130D02*
X0202273Y0194130D01*
X0201609Y0195309D02*
X0200365Y0195309D01*
X0200365Y0196489D02*
X0201609Y0196489D01*
X0201609Y0197669D02*
X0200365Y0197669D01*
X0199937Y0198848D02*
X0202036Y0198848D01*
X0209937Y0198848D02*
X0212036Y0198848D01*
X0211609Y0197669D02*
X0210365Y0197669D01*
X0210365Y0196489D02*
X0211609Y0196489D01*
X0211609Y0195309D02*
X0210365Y0195309D01*
X0209700Y0194130D02*
X0212273Y0194130D01*
X0213453Y0192950D02*
X0208521Y0192950D01*
X0208195Y0190591D02*
X0213779Y0190591D01*
X0214173Y0190986D02*
X0211609Y0188421D01*
X0211609Y0184794D01*
X0214173Y0182230D01*
X0217800Y0182230D01*
X0220365Y0184794D01*
X0220365Y0188421D01*
X0217800Y0190986D01*
X0214173Y0190986D01*
X0212599Y0189411D02*
X0209374Y0189411D01*
X0210365Y0188232D02*
X0211609Y0188232D01*
X0211609Y0187052D02*
X0210365Y0187052D01*
X0210365Y0185872D02*
X0211609Y0185872D01*
X0211710Y0184693D02*
X0210263Y0184693D01*
X0209084Y0183513D02*
X0212890Y0183513D01*
X0214069Y0182334D02*
X0207904Y0182334D01*
X0204069Y0182334D02*
X0197904Y0182334D01*
X0199084Y0183513D02*
X0202890Y0183513D01*
X0201710Y0184693D02*
X0200263Y0184693D01*
X0200365Y0185872D02*
X0201609Y0185872D01*
X0201609Y0187052D02*
X0200365Y0187052D01*
X0200365Y0188232D02*
X0201609Y0188232D01*
X0202599Y0189411D02*
X0199374Y0189411D01*
X0218195Y0190591D02*
X0223779Y0190591D01*
X0224173Y0190986D02*
X0221609Y0188421D01*
X0221609Y0184794D01*
X0224173Y0182230D01*
X0227800Y0182230D01*
X0230365Y0184794D01*
X0230365Y0188421D01*
X0227800Y0190986D01*
X0224173Y0190986D01*
X0223453Y0192950D02*
X0218521Y0192950D01*
X0219700Y0194130D02*
X0222273Y0194130D01*
X0221609Y0195309D02*
X0220365Y0195309D01*
X0220365Y0196489D02*
X0221609Y0196489D01*
X0221609Y0197669D02*
X0220365Y0197669D01*
X0219937Y0198848D02*
X0222036Y0198848D01*
X0229937Y0198848D02*
X0232036Y0198848D01*
X0231609Y0197669D02*
X0230365Y0197669D01*
X0230365Y0196489D02*
X0231609Y0196489D01*
X0231609Y0195309D02*
X0230365Y0195309D01*
X0229700Y0194130D02*
X0232273Y0194130D01*
X0233453Y0192950D02*
X0228521Y0192950D01*
X0228195Y0190591D02*
X0233779Y0190591D01*
X0234173Y0190986D02*
X0231609Y0188421D01*
X0231609Y0184794D01*
X0234173Y0182230D01*
X0237800Y0182230D01*
X0240365Y0184794D01*
X0240365Y0188421D01*
X0237800Y0190986D01*
X0234173Y0190986D01*
X0232599Y0189411D02*
X0229374Y0189411D01*
X0230365Y0188232D02*
X0231609Y0188232D01*
X0231609Y0187052D02*
X0230365Y0187052D01*
X0230365Y0185872D02*
X0231609Y0185872D01*
X0231710Y0184693D02*
X0230263Y0184693D01*
X0229084Y0183513D02*
X0232890Y0183513D01*
X0234069Y0182334D02*
X0227904Y0182334D01*
X0224069Y0182334D02*
X0217904Y0182334D01*
X0219084Y0183513D02*
X0222890Y0183513D01*
X0221710Y0184693D02*
X0220263Y0184693D01*
X0220365Y0185872D02*
X0221609Y0185872D01*
X0221609Y0187052D02*
X0220365Y0187052D01*
X0220365Y0188232D02*
X0221609Y0188232D01*
X0222599Y0189411D02*
X0219374Y0189411D01*
X0238195Y0190591D02*
X0243779Y0190591D01*
X0244173Y0190986D02*
X0241609Y0188421D01*
X0241609Y0184794D01*
X0244173Y0182230D01*
X0247800Y0182230D01*
X0250365Y0184794D01*
X0250365Y0188421D01*
X0247800Y0190986D01*
X0244173Y0190986D01*
X0243453Y0192950D02*
X0238521Y0192950D01*
X0239700Y0194130D02*
X0242273Y0194130D01*
X0241609Y0195309D02*
X0240365Y0195309D01*
X0240365Y0196489D02*
X0241609Y0196489D01*
X0241609Y0197669D02*
X0240365Y0197669D01*
X0239937Y0198848D02*
X0242036Y0198848D01*
X0249937Y0198848D02*
X0282036Y0198848D01*
X0281609Y0197669D02*
X0250365Y0197669D01*
X0250365Y0196489D02*
X0281609Y0196489D01*
X0281609Y0195309D02*
X0250365Y0195309D01*
X0249700Y0194130D02*
X0282273Y0194130D01*
X0283453Y0192950D02*
X0248521Y0192950D01*
X0248195Y0190591D02*
X0263779Y0190591D01*
X0264173Y0190986D02*
X0261609Y0188421D01*
X0261609Y0184794D01*
X0264173Y0182230D01*
X0267800Y0182230D01*
X0270365Y0184794D01*
X0270365Y0188421D01*
X0267800Y0190986D01*
X0264173Y0190986D01*
X0262599Y0189411D02*
X0249374Y0189411D01*
X0250365Y0188232D02*
X0261609Y0188232D01*
X0261609Y0187052D02*
X0250365Y0187052D01*
X0250365Y0185872D02*
X0261609Y0185872D01*
X0261710Y0184693D02*
X0250263Y0184693D01*
X0249084Y0183513D02*
X0262890Y0183513D01*
X0264069Y0182334D02*
X0247904Y0182334D01*
X0244069Y0182334D02*
X0237904Y0182334D01*
X0239084Y0183513D02*
X0242890Y0183513D01*
X0241710Y0184693D02*
X0240263Y0184693D01*
X0240365Y0185872D02*
X0241609Y0185872D01*
X0241609Y0187052D02*
X0240365Y0187052D01*
X0240365Y0188232D02*
X0241609Y0188232D01*
X0242599Y0189411D02*
X0239374Y0189411D01*
X0268195Y0190591D02*
X0283779Y0190591D01*
X0284173Y0190986D02*
X0281609Y0188421D01*
X0281609Y0184794D01*
X0284173Y0182230D01*
X0287800Y0182230D01*
X0290365Y0184794D01*
X0290365Y0188421D01*
X0287800Y0190986D01*
X0284173Y0190986D01*
X0282599Y0189411D02*
X0269374Y0189411D01*
X0270365Y0188232D02*
X0281609Y0188232D01*
X0281609Y0187052D02*
X0270365Y0187052D01*
X0270365Y0185872D02*
X0281609Y0185872D01*
X0281710Y0184693D02*
X0270263Y0184693D01*
X0269084Y0183513D02*
X0282890Y0183513D01*
X0284069Y0182334D02*
X0267904Y0182334D01*
X0287904Y0182334D02*
X0294069Y0182334D01*
X0294173Y0182230D02*
X0297800Y0182230D01*
X0300365Y0184794D01*
X0300365Y0188421D01*
X0297800Y0190986D01*
X0294173Y0190986D01*
X0291609Y0188421D01*
X0291609Y0184794D01*
X0294173Y0182230D01*
X0292890Y0183513D02*
X0289084Y0183513D01*
X0290263Y0184693D02*
X0291710Y0184693D01*
X0291609Y0185872D02*
X0290365Y0185872D01*
X0290365Y0187052D02*
X0291609Y0187052D01*
X0291609Y0188232D02*
X0290365Y0188232D01*
X0289374Y0189411D02*
X0292599Y0189411D01*
X0293779Y0190591D02*
X0288195Y0190591D01*
X0288521Y0192950D02*
X0293453Y0192950D01*
X0292273Y0194130D02*
X0289700Y0194130D01*
X0290365Y0195309D02*
X0291609Y0195309D01*
X0291609Y0196489D02*
X0290365Y0196489D01*
X0290365Y0197669D02*
X0291609Y0197669D01*
X0292036Y0198848D02*
X0289937Y0198848D01*
X0299937Y0198848D02*
X0302036Y0198848D01*
X0301609Y0197669D02*
X0300365Y0197669D01*
X0300365Y0196489D02*
X0301609Y0196489D01*
X0301609Y0195309D02*
X0300365Y0195309D01*
X0299700Y0194130D02*
X0302273Y0194130D01*
X0303453Y0192950D02*
X0298521Y0192950D01*
X0298195Y0190591D02*
X0303779Y0190591D01*
X0304173Y0190986D02*
X0301609Y0188421D01*
X0301609Y0184794D01*
X0304173Y0182230D01*
X0307800Y0182230D01*
X0310365Y0184794D01*
X0310365Y0188421D01*
X0307800Y0190986D01*
X0304173Y0190986D01*
X0302599Y0189411D02*
X0299374Y0189411D01*
X0300365Y0188232D02*
X0301609Y0188232D01*
X0301609Y0187052D02*
X0300365Y0187052D01*
X0300365Y0185872D02*
X0301609Y0185872D01*
X0301710Y0184693D02*
X0300263Y0184693D01*
X0299084Y0183513D02*
X0302890Y0183513D01*
X0304069Y0182334D02*
X0297904Y0182334D01*
X0307904Y0182334D02*
X0314069Y0182334D01*
X0312890Y0183513D02*
X0309084Y0183513D01*
X0310263Y0184693D02*
X0311710Y0184693D01*
X0311609Y0185872D02*
X0310365Y0185872D01*
X0310365Y0187052D02*
X0311609Y0187052D01*
X0311609Y0188232D02*
X0310365Y0188232D01*
X0309374Y0189411D02*
X0312599Y0189411D01*
X0313779Y0190591D02*
X0308195Y0190591D01*
X0308521Y0192950D02*
X0313453Y0192950D01*
X0312273Y0194130D02*
X0309700Y0194130D01*
X0310365Y0195309D02*
X0311609Y0195309D01*
X0311609Y0196489D02*
X0310365Y0196489D01*
X0310365Y0197669D02*
X0311609Y0197669D01*
X0312036Y0198848D02*
X0309937Y0198848D01*
X0224727Y0083246D02*
X0203845Y0083246D01*
X0205025Y0082066D02*
X0224727Y0082066D01*
X0225659Y0080887D02*
X0206204Y0080887D01*
X0207384Y0079707D02*
X0225514Y0079707D01*
X0225514Y0078528D02*
X0208564Y0078528D01*
X0222735Y0077348D02*
X0225514Y0077348D01*
D28*
X0217837Y0080584D03*
X0212325Y0080584D03*
X0212325Y0084915D03*
X0212325Y0090033D03*
X0227680Y0085308D03*
X0231223Y0085308D03*
X0235554Y0080584D03*
X0240672Y0080584D03*
X0246577Y0080584D03*
X0252089Y0080584D03*
X0256813Y0079009D03*
X0257207Y0069954D03*
X0267837Y0064049D03*
X0272561Y0066017D03*
X0269412Y0069954D03*
X0281223Y0075466D03*
X0285947Y0073104D03*
X0286735Y0068379D03*
X0287128Y0054600D03*
X0287128Y0049482D03*
X0281223Y0049482D03*
X0274924Y0049482D03*
X0267837Y0049482D03*
X0281223Y0054600D03*
X0285947Y0040427D03*
X0295790Y0038064D03*
X0305239Y0040820D03*
X0305632Y0035308D03*
X0319018Y0036883D03*
X0329648Y0030978D03*
X0326892Y0022316D03*
X0338703Y0021923D03*
X0354057Y0025072D03*
X0346577Y0034915D03*
X0361538Y0038852D03*
X0377286Y0040033D03*
X0377286Y0031765D03*
X0377286Y0047907D03*
X0368231Y0051844D03*
X0377286Y0055781D03*
X0377286Y0064049D03*
X0368231Y0067986D03*
X0377286Y0071923D03*
X0377286Y0080190D03*
X0377286Y0088064D03*
X0367837Y0083340D03*
X0377286Y0095938D03*
X0367837Y0100269D03*
X0377286Y0104206D03*
X0347365Y0120348D03*
X0309963Y0121923D03*
X0289491Y0119954D03*
X0276105Y0106962D03*
X0262325Y0101844D03*
X0274530Y0093576D03*
X0287128Y0086489D03*
X0290672Y0096726D03*
X0325317Y0084915D03*
X0332010Y0078222D03*
X0323743Y0073104D03*
X0306026Y0051450D03*
X0285947Y0035308D03*
X0276105Y0038064D03*
X0265869Y0040427D03*
X0256420Y0037671D03*
X0249333Y0040033D03*
X0244609Y0040033D03*
X0239884Y0035308D03*
X0233191Y0044364D03*
X0242246Y0050269D03*
X0236341Y0051056D03*
X0232010Y0051056D03*
X0240672Y0062867D03*
X0240672Y0068773D03*
X0235554Y0068773D03*
X0235554Y0075072D03*
X0240672Y0075072D03*
X0209963Y0067592D03*
X0200120Y0060899D03*
X0193428Y0064442D03*
X0184372Y0062474D03*
X0184372Y0067986D03*
X0180435Y0067986D03*
X0176498Y0067986D03*
X0172561Y0067986D03*
X0172561Y0062474D03*
X0165081Y0053419D03*
X0184372Y0048301D03*
X0184372Y0039245D03*
X0164687Y0038852D03*
X0165869Y0019560D03*
X0185947Y0019167D03*
X0211144Y0019167D03*
X0230829Y0019167D03*
X0241065Y0019167D03*
X0261144Y0019167D03*
X0270593Y0019167D03*
X0290672Y0019167D03*
X0300908Y0019167D03*
X0325317Y0012474D03*
X0333585Y0012474D03*
X0341459Y0012474D03*
X0349333Y0012474D03*
X0357601Y0012474D03*
X0265869Y0035308D03*
X0252876Y0046726D03*
X0194609Y0088064D03*
X0178073Y0088064D03*
X0152089Y0096332D03*
X0145396Y0090033D03*
X0160357Y0104206D03*
X0156420Y0107749D03*
X0156420Y0112474D03*
X0145002Y0112867D03*
X0156420Y0118773D03*
X0163113Y0127434D03*
X0172168Y0119954D03*
X0177286Y0119954D03*
X0177286Y0114836D03*
X0187916Y0116017D03*
X0187916Y0103419D03*
X0178861Y0103419D03*
X0169412Y0103419D03*
X0133585Y0125860D03*
X0119806Y0113261D03*
X0119806Y0097119D03*
X0120593Y0069560D03*
X0111144Y0062080D03*
X0121380Y0056962D03*
X0114687Y0050269D03*
X0120987Y0040427D03*
X0109569Y0036096D03*
X0096971Y0035308D03*
X0088309Y0034127D03*
X0111931Y0024285D03*
X0107994Y0012474D03*
X0116262Y0012474D03*
X0239097Y0106962D03*
X0258388Y0120348D03*
X0272168Y0133734D03*
X0243821Y0136489D03*
X0228073Y0122316D03*
X0213113Y0110899D03*
X0185947Y0130584D03*
X0202483Y0133340D03*
X0203664Y0147119D03*
X0188703Y0146332D03*
X0178467Y0152631D03*
X0169018Y0151844D03*
X0160357Y0146726D03*
X0156026Y0146726D03*
X0150120Y0145151D03*
X0160357Y0142001D03*
X0160357Y0137277D03*
X0170199Y0144364D03*
X0137522Y0154600D03*
X0137522Y0159324D03*
X0133585Y0159324D03*
X0137522Y0164049D03*
X0142640Y0164049D03*
X0148152Y0162867D03*
X0142640Y0168773D03*
X0155239Y0169954D03*
X0155239Y0174285D03*
X0160750Y0174285D03*
X0165869Y0171923D03*
X0160750Y0169954D03*
X0165869Y0166411D03*
X0176105Y0171923D03*
X0201695Y0171923D03*
X0230829Y0171923D03*
X0251302Y0173104D03*
X0251302Y0179009D03*
X0257207Y0179009D03*
X0277680Y0167592D03*
X0280435Y0153812D03*
X0254057Y0152631D03*
X0222168Y0151056D03*
X0119412Y0140427D03*
X0112325Y0148301D03*
X0115475Y0157356D03*
X0111144Y0168379D03*
X0106813Y0176253D03*
X0116262Y0181765D03*
X0113506Y0190820D03*
X0117050Y0198301D03*
X0108782Y0198301D03*
X0088309Y0177041D03*
X0325317Y0198301D03*
X0333585Y0198301D03*
X0341459Y0198301D03*
X0349333Y0198301D03*
X0357601Y0198301D03*
X0349333Y0186489D03*
X0333585Y0186489D03*
D29*
X0241262Y0094167D02*
X0235554Y0099875D01*
X0167443Y0099875D01*
X0126498Y0058930D01*
X0126498Y0038064D01*
X0119806Y0031371D01*
X0119806Y0020348D01*
X0125987Y0014167D01*
X0141065Y0019088D02*
X0145987Y0014167D01*
X0150908Y0019245D02*
X0155987Y0014167D01*
X0150908Y0019245D02*
X0150908Y0056568D01*
X0169806Y0075466D01*
X0198546Y0075466D01*
X0202876Y0071135D01*
X0219018Y0071135D01*
X0220002Y0070151D01*
X0220002Y0067592D01*
X0220593Y0067001D01*
X0229845Y0067001D01*
X0229845Y0065033D02*
X0224727Y0065033D01*
X0221774Y0062080D01*
X0220002Y0062080D01*
X0220002Y0058734D01*
X0219806Y0058537D01*
X0209569Y0058537D01*
X0194609Y0073497D01*
X0171774Y0073497D01*
X0156026Y0057749D01*
X0156026Y0024206D01*
X0155987Y0024167D01*
X0145987Y0024167D02*
X0145987Y0057159D01*
X0168231Y0079403D01*
X0200514Y0079403D01*
X0206026Y0073891D01*
X0219806Y0073891D01*
X0220790Y0072907D01*
X0229845Y0072907D01*
X0229845Y0074875D02*
X0222758Y0074875D01*
X0221380Y0076253D01*
X0208388Y0076253D01*
X0202876Y0081765D01*
X0167443Y0081765D01*
X0141065Y0055387D01*
X0141065Y0019088D01*
X0135987Y0024167D02*
X0135987Y0056214D01*
X0174136Y0094364D01*
X0235160Y0094364D01*
X0237325Y0092198D01*
X0237325Y0088261D01*
X0239294Y0088261D02*
X0239294Y0092986D01*
X0235160Y0097119D01*
X0172168Y0097119D01*
X0131617Y0056568D01*
X0131617Y0029797D01*
X0125987Y0024167D01*
X0222758Y0033734D02*
X0229648Y0033734D01*
X0229845Y0033930D01*
X0232798Y0030978D01*
X0300514Y0030978D01*
X0305987Y0025505D01*
X0305987Y0024167D01*
X0258782Y0050663D02*
X0258782Y0058930D01*
X0258781Y0058930D02*
X0258779Y0058984D01*
X0258774Y0059037D01*
X0258765Y0059090D01*
X0258752Y0059142D01*
X0258736Y0059194D01*
X0258716Y0059244D01*
X0258693Y0059292D01*
X0258666Y0059339D01*
X0258637Y0059384D01*
X0258604Y0059427D01*
X0258569Y0059467D01*
X0258531Y0059505D01*
X0258491Y0059540D01*
X0258448Y0059573D01*
X0258403Y0059602D01*
X0258356Y0059629D01*
X0258308Y0059652D01*
X0258258Y0059672D01*
X0258206Y0059688D01*
X0258154Y0059701D01*
X0258101Y0059710D01*
X0258048Y0059715D01*
X0257994Y0059717D01*
X0257994Y0059718D02*
X0251695Y0059718D01*
X0251105Y0059127D01*
X0251105Y0055584D01*
X0249136Y0055584D02*
X0249136Y0050466D01*
X0252876Y0046726D01*
X0239294Y0043379D02*
X0229845Y0033930D01*
X0239294Y0043379D02*
X0239294Y0055584D01*
X0220002Y0067001D02*
X0220002Y0067592D01*
X0241262Y0088261D02*
X0241262Y0094167D01*
X0262522Y0082749D02*
X0297561Y0082749D01*
X0297561Y0086489D01*
X0297561Y0082749D02*
X0303093Y0082749D01*
X0303703Y0083360D01*
X0306420Y0078222D02*
X0309176Y0075466D01*
X0309176Y0072887D01*
X0313703Y0068360D01*
X0315849Y0066214D01*
X0320593Y0066214D01*
X0313723Y0068379D02*
X0313703Y0068360D01*
X0303703Y0073360D02*
X0303447Y0073104D01*
X0306420Y0078222D02*
X0278467Y0078222D01*
X0275908Y0080781D01*
X0262522Y0080781D01*
X0262522Y0076844D02*
X0273939Y0076844D01*
X0287522Y0063261D01*
X0297758Y0063261D01*
X0297758Y0067001D01*
X0297561Y0067198D01*
X0297758Y0063261D02*
X0303605Y0063261D01*
X0303703Y0063360D01*
X0297561Y0058340D02*
X0297365Y0058537D01*
X0313526Y0058537D01*
X0313703Y0058360D01*
X0297561Y0058340D02*
X0297561Y0054600D01*
X0297365Y0058537D02*
X0287916Y0058537D01*
X0271577Y0074875D01*
X0262522Y0074875D01*
X0268428Y0068970D02*
X0269412Y0069954D01*
X0268428Y0068970D02*
X0262522Y0068970D01*
X0262522Y0067001D02*
X0271577Y0067001D01*
X0272561Y0066017D01*
X0268231Y0061096D02*
X0269806Y0059718D01*
X0320258Y0078360D02*
X0320396Y0078222D01*
X0358191Y0084521D02*
X0358191Y0091848D01*
X0358203Y0091860D01*
X0358191Y0067198D02*
X0358203Y0067186D01*
X0358203Y0059860D01*
X0150120Y0142198D02*
X0149924Y0142001D01*
X0148349Y0162671D02*
X0148152Y0162867D01*
D30*
X0148349Y0162671D02*
X0148349Y0159324D01*
X0150120Y0145151D02*
X0150120Y0142198D01*
X0297561Y0073104D02*
X0303447Y0073104D01*
X0313703Y0078360D02*
X0320258Y0078360D01*
X0320790Y0073104D02*
X0323743Y0073104D01*
X0320790Y0073104D02*
X0320764Y0073102D01*
X0320739Y0073097D01*
X0320715Y0073089D01*
X0320692Y0073078D01*
X0320670Y0073063D01*
X0320651Y0073046D01*
X0320634Y0073027D01*
X0320619Y0073006D01*
X0320608Y0072982D01*
X0320600Y0072958D01*
X0320595Y0072933D01*
X0320593Y0072907D01*
X0290869Y0054600D02*
X0287128Y0054600D01*
D31*
X0287916Y0067198D02*
X0286735Y0068379D01*
X0287916Y0067198D02*
X0290869Y0067198D01*
X0290869Y0086489D02*
X0287128Y0086489D01*
X0213309Y0067592D02*
X0213309Y0062080D01*
X0213309Y0067592D02*
X0209963Y0067592D01*
X0197955Y0033734D02*
X0185554Y0033734D01*
X0175987Y0024167D01*
D32*
X0227286Y0058143D02*
X0227286Y0061293D01*
X0230829Y0061293D01*
X0230829Y0058143D01*
X0227286Y0058143D01*
X0227286Y0058443D02*
X0230829Y0058443D01*
X0230829Y0059229D02*
X0227286Y0059229D01*
X0227286Y0060015D02*
X0230829Y0060015D01*
X0230829Y0060801D02*
X0227286Y0060801D01*
X0255042Y0055584D02*
X0255042Y0050466D01*
X0261538Y0043970D01*
X0315081Y0043970D01*
X0338309Y0067198D01*
X0351498Y0067198D01*
X0351498Y0084324D02*
X0313506Y0046332D01*
X0263113Y0046332D01*
X0258782Y0050663D01*
X0232404Y0082552D02*
X0226498Y0082552D01*
X0226498Y0086489D01*
X0232404Y0086489D01*
X0232404Y0082552D01*
X0232404Y0082806D02*
X0226498Y0082806D01*
X0226498Y0083592D02*
X0232404Y0083592D01*
X0232404Y0084378D02*
X0226498Y0084378D01*
X0226498Y0085164D02*
X0232404Y0085164D01*
X0232404Y0085950D02*
X0226498Y0085950D01*
X0351498Y0084521D02*
X0351498Y0084324D01*
D33*
X0256813Y0074088D03*
X0257207Y0062867D03*
X0228861Y0059718D03*
D34*
X0241853Y0159324D03*
X0167050Y0159324D03*
D35*
X0241853Y0159324D01*
X0148349Y0159324D02*
X0148349Y0154600D01*
M02*
