G75*
%MOIN*%
%OFA0B0*%
%FSLAX25Y25*%
%IPPOS*%
%LPD*%
%AMOC8*
5,1,8,0,0,1.08239X$1,22.5*
%
%ADD10C,0.00000*%
%ADD11C,0.00100*%
D10*
X0084766Y0008930D02*
X0084766Y0201844D01*
X0380829Y0201844D01*
X0380829Y0008930D01*
X0084766Y0008930D01*
X0109569Y0085387D02*
X0109571Y0085512D01*
X0109577Y0085637D01*
X0109587Y0085761D01*
X0109601Y0085885D01*
X0109618Y0086009D01*
X0109640Y0086132D01*
X0109666Y0086254D01*
X0109695Y0086376D01*
X0109728Y0086496D01*
X0109766Y0086615D01*
X0109806Y0086734D01*
X0109851Y0086850D01*
X0109899Y0086965D01*
X0109951Y0087079D01*
X0110007Y0087191D01*
X0110066Y0087301D01*
X0110128Y0087409D01*
X0110194Y0087516D01*
X0110263Y0087620D01*
X0110336Y0087721D01*
X0110411Y0087821D01*
X0110490Y0087918D01*
X0110572Y0088012D01*
X0110657Y0088104D01*
X0110744Y0088193D01*
X0110835Y0088279D01*
X0110928Y0088362D01*
X0111024Y0088443D01*
X0111122Y0088520D01*
X0111222Y0088594D01*
X0111325Y0088665D01*
X0111430Y0088732D01*
X0111538Y0088797D01*
X0111647Y0088857D01*
X0111758Y0088915D01*
X0111871Y0088968D01*
X0111985Y0089018D01*
X0112101Y0089065D01*
X0112218Y0089107D01*
X0112337Y0089146D01*
X0112457Y0089182D01*
X0112578Y0089213D01*
X0112700Y0089241D01*
X0112822Y0089264D01*
X0112946Y0089284D01*
X0113070Y0089300D01*
X0113194Y0089312D01*
X0113319Y0089320D01*
X0113444Y0089324D01*
X0113568Y0089324D01*
X0113693Y0089320D01*
X0113818Y0089312D01*
X0113942Y0089300D01*
X0114066Y0089284D01*
X0114190Y0089264D01*
X0114312Y0089241D01*
X0114434Y0089213D01*
X0114555Y0089182D01*
X0114675Y0089146D01*
X0114794Y0089107D01*
X0114911Y0089065D01*
X0115027Y0089018D01*
X0115141Y0088968D01*
X0115254Y0088915D01*
X0115365Y0088857D01*
X0115475Y0088797D01*
X0115582Y0088732D01*
X0115687Y0088665D01*
X0115790Y0088594D01*
X0115890Y0088520D01*
X0115988Y0088443D01*
X0116084Y0088362D01*
X0116177Y0088279D01*
X0116268Y0088193D01*
X0116355Y0088104D01*
X0116440Y0088012D01*
X0116522Y0087918D01*
X0116601Y0087821D01*
X0116676Y0087721D01*
X0116749Y0087620D01*
X0116818Y0087516D01*
X0116884Y0087409D01*
X0116946Y0087301D01*
X0117005Y0087191D01*
X0117061Y0087079D01*
X0117113Y0086965D01*
X0117161Y0086850D01*
X0117206Y0086734D01*
X0117246Y0086615D01*
X0117284Y0086496D01*
X0117317Y0086376D01*
X0117346Y0086254D01*
X0117372Y0086132D01*
X0117394Y0086009D01*
X0117411Y0085885D01*
X0117425Y0085761D01*
X0117435Y0085637D01*
X0117441Y0085512D01*
X0117443Y0085387D01*
X0117441Y0085262D01*
X0117435Y0085137D01*
X0117425Y0085013D01*
X0117411Y0084889D01*
X0117394Y0084765D01*
X0117372Y0084642D01*
X0117346Y0084520D01*
X0117317Y0084398D01*
X0117284Y0084278D01*
X0117246Y0084159D01*
X0117206Y0084040D01*
X0117161Y0083924D01*
X0117113Y0083809D01*
X0117061Y0083695D01*
X0117005Y0083583D01*
X0116946Y0083473D01*
X0116884Y0083365D01*
X0116818Y0083258D01*
X0116749Y0083154D01*
X0116676Y0083053D01*
X0116601Y0082953D01*
X0116522Y0082856D01*
X0116440Y0082762D01*
X0116355Y0082670D01*
X0116268Y0082581D01*
X0116177Y0082495D01*
X0116084Y0082412D01*
X0115988Y0082331D01*
X0115890Y0082254D01*
X0115790Y0082180D01*
X0115687Y0082109D01*
X0115582Y0082042D01*
X0115474Y0081977D01*
X0115365Y0081917D01*
X0115254Y0081859D01*
X0115141Y0081806D01*
X0115027Y0081756D01*
X0114911Y0081709D01*
X0114794Y0081667D01*
X0114675Y0081628D01*
X0114555Y0081592D01*
X0114434Y0081561D01*
X0114312Y0081533D01*
X0114190Y0081510D01*
X0114066Y0081490D01*
X0113942Y0081474D01*
X0113818Y0081462D01*
X0113693Y0081454D01*
X0113568Y0081450D01*
X0113444Y0081450D01*
X0113319Y0081454D01*
X0113194Y0081462D01*
X0113070Y0081474D01*
X0112946Y0081490D01*
X0112822Y0081510D01*
X0112700Y0081533D01*
X0112578Y0081561D01*
X0112457Y0081592D01*
X0112337Y0081628D01*
X0112218Y0081667D01*
X0112101Y0081709D01*
X0111985Y0081756D01*
X0111871Y0081806D01*
X0111758Y0081859D01*
X0111647Y0081917D01*
X0111537Y0081977D01*
X0111430Y0082042D01*
X0111325Y0082109D01*
X0111222Y0082180D01*
X0111122Y0082254D01*
X0111024Y0082331D01*
X0110928Y0082412D01*
X0110835Y0082495D01*
X0110744Y0082581D01*
X0110657Y0082670D01*
X0110572Y0082762D01*
X0110490Y0082856D01*
X0110411Y0082953D01*
X0110336Y0083053D01*
X0110263Y0083154D01*
X0110194Y0083258D01*
X0110128Y0083365D01*
X0110066Y0083473D01*
X0110007Y0083583D01*
X0109951Y0083695D01*
X0109899Y0083809D01*
X0109851Y0083924D01*
X0109806Y0084040D01*
X0109766Y0084159D01*
X0109728Y0084278D01*
X0109695Y0084398D01*
X0109666Y0084520D01*
X0109640Y0084642D01*
X0109618Y0084765D01*
X0109601Y0084889D01*
X0109587Y0085013D01*
X0109577Y0085137D01*
X0109571Y0085262D01*
X0109569Y0085387D01*
X0109569Y0125387D02*
X0109571Y0125512D01*
X0109577Y0125637D01*
X0109587Y0125761D01*
X0109601Y0125885D01*
X0109618Y0126009D01*
X0109640Y0126132D01*
X0109666Y0126254D01*
X0109695Y0126376D01*
X0109728Y0126496D01*
X0109766Y0126615D01*
X0109806Y0126734D01*
X0109851Y0126850D01*
X0109899Y0126965D01*
X0109951Y0127079D01*
X0110007Y0127191D01*
X0110066Y0127301D01*
X0110128Y0127409D01*
X0110194Y0127516D01*
X0110263Y0127620D01*
X0110336Y0127721D01*
X0110411Y0127821D01*
X0110490Y0127918D01*
X0110572Y0128012D01*
X0110657Y0128104D01*
X0110744Y0128193D01*
X0110835Y0128279D01*
X0110928Y0128362D01*
X0111024Y0128443D01*
X0111122Y0128520D01*
X0111222Y0128594D01*
X0111325Y0128665D01*
X0111430Y0128732D01*
X0111538Y0128797D01*
X0111647Y0128857D01*
X0111758Y0128915D01*
X0111871Y0128968D01*
X0111985Y0129018D01*
X0112101Y0129065D01*
X0112218Y0129107D01*
X0112337Y0129146D01*
X0112457Y0129182D01*
X0112578Y0129213D01*
X0112700Y0129241D01*
X0112822Y0129264D01*
X0112946Y0129284D01*
X0113070Y0129300D01*
X0113194Y0129312D01*
X0113319Y0129320D01*
X0113444Y0129324D01*
X0113568Y0129324D01*
X0113693Y0129320D01*
X0113818Y0129312D01*
X0113942Y0129300D01*
X0114066Y0129284D01*
X0114190Y0129264D01*
X0114312Y0129241D01*
X0114434Y0129213D01*
X0114555Y0129182D01*
X0114675Y0129146D01*
X0114794Y0129107D01*
X0114911Y0129065D01*
X0115027Y0129018D01*
X0115141Y0128968D01*
X0115254Y0128915D01*
X0115365Y0128857D01*
X0115475Y0128797D01*
X0115582Y0128732D01*
X0115687Y0128665D01*
X0115790Y0128594D01*
X0115890Y0128520D01*
X0115988Y0128443D01*
X0116084Y0128362D01*
X0116177Y0128279D01*
X0116268Y0128193D01*
X0116355Y0128104D01*
X0116440Y0128012D01*
X0116522Y0127918D01*
X0116601Y0127821D01*
X0116676Y0127721D01*
X0116749Y0127620D01*
X0116818Y0127516D01*
X0116884Y0127409D01*
X0116946Y0127301D01*
X0117005Y0127191D01*
X0117061Y0127079D01*
X0117113Y0126965D01*
X0117161Y0126850D01*
X0117206Y0126734D01*
X0117246Y0126615D01*
X0117284Y0126496D01*
X0117317Y0126376D01*
X0117346Y0126254D01*
X0117372Y0126132D01*
X0117394Y0126009D01*
X0117411Y0125885D01*
X0117425Y0125761D01*
X0117435Y0125637D01*
X0117441Y0125512D01*
X0117443Y0125387D01*
X0117441Y0125262D01*
X0117435Y0125137D01*
X0117425Y0125013D01*
X0117411Y0124889D01*
X0117394Y0124765D01*
X0117372Y0124642D01*
X0117346Y0124520D01*
X0117317Y0124398D01*
X0117284Y0124278D01*
X0117246Y0124159D01*
X0117206Y0124040D01*
X0117161Y0123924D01*
X0117113Y0123809D01*
X0117061Y0123695D01*
X0117005Y0123583D01*
X0116946Y0123473D01*
X0116884Y0123365D01*
X0116818Y0123258D01*
X0116749Y0123154D01*
X0116676Y0123053D01*
X0116601Y0122953D01*
X0116522Y0122856D01*
X0116440Y0122762D01*
X0116355Y0122670D01*
X0116268Y0122581D01*
X0116177Y0122495D01*
X0116084Y0122412D01*
X0115988Y0122331D01*
X0115890Y0122254D01*
X0115790Y0122180D01*
X0115687Y0122109D01*
X0115582Y0122042D01*
X0115474Y0121977D01*
X0115365Y0121917D01*
X0115254Y0121859D01*
X0115141Y0121806D01*
X0115027Y0121756D01*
X0114911Y0121709D01*
X0114794Y0121667D01*
X0114675Y0121628D01*
X0114555Y0121592D01*
X0114434Y0121561D01*
X0114312Y0121533D01*
X0114190Y0121510D01*
X0114066Y0121490D01*
X0113942Y0121474D01*
X0113818Y0121462D01*
X0113693Y0121454D01*
X0113568Y0121450D01*
X0113444Y0121450D01*
X0113319Y0121454D01*
X0113194Y0121462D01*
X0113070Y0121474D01*
X0112946Y0121490D01*
X0112822Y0121510D01*
X0112700Y0121533D01*
X0112578Y0121561D01*
X0112457Y0121592D01*
X0112337Y0121628D01*
X0112218Y0121667D01*
X0112101Y0121709D01*
X0111985Y0121756D01*
X0111871Y0121806D01*
X0111758Y0121859D01*
X0111647Y0121917D01*
X0111537Y0121977D01*
X0111430Y0122042D01*
X0111325Y0122109D01*
X0111222Y0122180D01*
X0111122Y0122254D01*
X0111024Y0122331D01*
X0110928Y0122412D01*
X0110835Y0122495D01*
X0110744Y0122581D01*
X0110657Y0122670D01*
X0110572Y0122762D01*
X0110490Y0122856D01*
X0110411Y0122953D01*
X0110336Y0123053D01*
X0110263Y0123154D01*
X0110194Y0123258D01*
X0110128Y0123365D01*
X0110066Y0123473D01*
X0110007Y0123583D01*
X0109951Y0123695D01*
X0109899Y0123809D01*
X0109851Y0123924D01*
X0109806Y0124040D01*
X0109766Y0124159D01*
X0109728Y0124278D01*
X0109695Y0124398D01*
X0109666Y0124520D01*
X0109640Y0124642D01*
X0109618Y0124765D01*
X0109601Y0124889D01*
X0109587Y0125013D01*
X0109577Y0125137D01*
X0109571Y0125262D01*
X0109569Y0125387D01*
X0331703Y0098360D02*
X0331705Y0098532D01*
X0331711Y0098703D01*
X0331722Y0098875D01*
X0331737Y0099046D01*
X0331756Y0099217D01*
X0331779Y0099387D01*
X0331806Y0099557D01*
X0331838Y0099726D01*
X0331873Y0099894D01*
X0331913Y0100061D01*
X0331957Y0100227D01*
X0332004Y0100392D01*
X0332056Y0100556D01*
X0332112Y0100718D01*
X0332172Y0100879D01*
X0332236Y0101039D01*
X0332304Y0101197D01*
X0332375Y0101353D01*
X0332450Y0101507D01*
X0332530Y0101660D01*
X0332612Y0101810D01*
X0332699Y0101959D01*
X0332789Y0102105D01*
X0332883Y0102249D01*
X0332980Y0102391D01*
X0333081Y0102530D01*
X0333185Y0102667D01*
X0333292Y0102801D01*
X0333403Y0102932D01*
X0333516Y0103061D01*
X0333633Y0103187D01*
X0333753Y0103310D01*
X0333876Y0103430D01*
X0334002Y0103547D01*
X0334131Y0103660D01*
X0334262Y0103771D01*
X0334396Y0103878D01*
X0334533Y0103982D01*
X0334672Y0104083D01*
X0334814Y0104180D01*
X0334958Y0104274D01*
X0335104Y0104364D01*
X0335253Y0104451D01*
X0335403Y0104533D01*
X0335556Y0104613D01*
X0335710Y0104688D01*
X0335866Y0104759D01*
X0336024Y0104827D01*
X0336184Y0104891D01*
X0336345Y0104951D01*
X0336507Y0105007D01*
X0336671Y0105059D01*
X0336836Y0105106D01*
X0337002Y0105150D01*
X0337169Y0105190D01*
X0337337Y0105225D01*
X0337506Y0105257D01*
X0337676Y0105284D01*
X0337846Y0105307D01*
X0338017Y0105326D01*
X0338188Y0105341D01*
X0338360Y0105352D01*
X0338531Y0105358D01*
X0338703Y0105360D01*
X0338875Y0105358D01*
X0339046Y0105352D01*
X0339218Y0105341D01*
X0339389Y0105326D01*
X0339560Y0105307D01*
X0339730Y0105284D01*
X0339900Y0105257D01*
X0340069Y0105225D01*
X0340237Y0105190D01*
X0340404Y0105150D01*
X0340570Y0105106D01*
X0340735Y0105059D01*
X0340899Y0105007D01*
X0341061Y0104951D01*
X0341222Y0104891D01*
X0341382Y0104827D01*
X0341540Y0104759D01*
X0341696Y0104688D01*
X0341850Y0104613D01*
X0342003Y0104533D01*
X0342153Y0104451D01*
X0342302Y0104364D01*
X0342448Y0104274D01*
X0342592Y0104180D01*
X0342734Y0104083D01*
X0342873Y0103982D01*
X0343010Y0103878D01*
X0343144Y0103771D01*
X0343275Y0103660D01*
X0343404Y0103547D01*
X0343530Y0103430D01*
X0343653Y0103310D01*
X0343773Y0103187D01*
X0343890Y0103061D01*
X0344003Y0102932D01*
X0344114Y0102801D01*
X0344221Y0102667D01*
X0344325Y0102530D01*
X0344426Y0102391D01*
X0344523Y0102249D01*
X0344617Y0102105D01*
X0344707Y0101959D01*
X0344794Y0101810D01*
X0344876Y0101660D01*
X0344956Y0101507D01*
X0345031Y0101353D01*
X0345102Y0101197D01*
X0345170Y0101039D01*
X0345234Y0100879D01*
X0345294Y0100718D01*
X0345350Y0100556D01*
X0345402Y0100392D01*
X0345449Y0100227D01*
X0345493Y0100061D01*
X0345533Y0099894D01*
X0345568Y0099726D01*
X0345600Y0099557D01*
X0345627Y0099387D01*
X0345650Y0099217D01*
X0345669Y0099046D01*
X0345684Y0098875D01*
X0345695Y0098703D01*
X0345701Y0098532D01*
X0345703Y0098360D01*
X0345701Y0098188D01*
X0345695Y0098017D01*
X0345684Y0097845D01*
X0345669Y0097674D01*
X0345650Y0097503D01*
X0345627Y0097333D01*
X0345600Y0097163D01*
X0345568Y0096994D01*
X0345533Y0096826D01*
X0345493Y0096659D01*
X0345449Y0096493D01*
X0345402Y0096328D01*
X0345350Y0096164D01*
X0345294Y0096002D01*
X0345234Y0095841D01*
X0345170Y0095681D01*
X0345102Y0095523D01*
X0345031Y0095367D01*
X0344956Y0095213D01*
X0344876Y0095060D01*
X0344794Y0094910D01*
X0344707Y0094761D01*
X0344617Y0094615D01*
X0344523Y0094471D01*
X0344426Y0094329D01*
X0344325Y0094190D01*
X0344221Y0094053D01*
X0344114Y0093919D01*
X0344003Y0093788D01*
X0343890Y0093659D01*
X0343773Y0093533D01*
X0343653Y0093410D01*
X0343530Y0093290D01*
X0343404Y0093173D01*
X0343275Y0093060D01*
X0343144Y0092949D01*
X0343010Y0092842D01*
X0342873Y0092738D01*
X0342734Y0092637D01*
X0342592Y0092540D01*
X0342448Y0092446D01*
X0342302Y0092356D01*
X0342153Y0092269D01*
X0342003Y0092187D01*
X0341850Y0092107D01*
X0341696Y0092032D01*
X0341540Y0091961D01*
X0341382Y0091893D01*
X0341222Y0091829D01*
X0341061Y0091769D01*
X0340899Y0091713D01*
X0340735Y0091661D01*
X0340570Y0091614D01*
X0340404Y0091570D01*
X0340237Y0091530D01*
X0340069Y0091495D01*
X0339900Y0091463D01*
X0339730Y0091436D01*
X0339560Y0091413D01*
X0339389Y0091394D01*
X0339218Y0091379D01*
X0339046Y0091368D01*
X0338875Y0091362D01*
X0338703Y0091360D01*
X0338531Y0091362D01*
X0338360Y0091368D01*
X0338188Y0091379D01*
X0338017Y0091394D01*
X0337846Y0091413D01*
X0337676Y0091436D01*
X0337506Y0091463D01*
X0337337Y0091495D01*
X0337169Y0091530D01*
X0337002Y0091570D01*
X0336836Y0091614D01*
X0336671Y0091661D01*
X0336507Y0091713D01*
X0336345Y0091769D01*
X0336184Y0091829D01*
X0336024Y0091893D01*
X0335866Y0091961D01*
X0335710Y0092032D01*
X0335556Y0092107D01*
X0335403Y0092187D01*
X0335253Y0092269D01*
X0335104Y0092356D01*
X0334958Y0092446D01*
X0334814Y0092540D01*
X0334672Y0092637D01*
X0334533Y0092738D01*
X0334396Y0092842D01*
X0334262Y0092949D01*
X0334131Y0093060D01*
X0334002Y0093173D01*
X0333876Y0093290D01*
X0333753Y0093410D01*
X0333633Y0093533D01*
X0333516Y0093659D01*
X0333403Y0093788D01*
X0333292Y0093919D01*
X0333185Y0094053D01*
X0333081Y0094190D01*
X0332980Y0094329D01*
X0332883Y0094471D01*
X0332789Y0094615D01*
X0332699Y0094761D01*
X0332612Y0094910D01*
X0332530Y0095060D01*
X0332450Y0095213D01*
X0332375Y0095367D01*
X0332304Y0095523D01*
X0332236Y0095681D01*
X0332172Y0095841D01*
X0332112Y0096002D01*
X0332056Y0096164D01*
X0332004Y0096328D01*
X0331957Y0096493D01*
X0331913Y0096659D01*
X0331873Y0096826D01*
X0331838Y0096994D01*
X0331806Y0097163D01*
X0331779Y0097333D01*
X0331756Y0097503D01*
X0331737Y0097674D01*
X0331722Y0097845D01*
X0331711Y0098017D01*
X0331705Y0098188D01*
X0331703Y0098360D01*
X0331703Y0053360D02*
X0331705Y0053532D01*
X0331711Y0053703D01*
X0331722Y0053875D01*
X0331737Y0054046D01*
X0331756Y0054217D01*
X0331779Y0054387D01*
X0331806Y0054557D01*
X0331838Y0054726D01*
X0331873Y0054894D01*
X0331913Y0055061D01*
X0331957Y0055227D01*
X0332004Y0055392D01*
X0332056Y0055556D01*
X0332112Y0055718D01*
X0332172Y0055879D01*
X0332236Y0056039D01*
X0332304Y0056197D01*
X0332375Y0056353D01*
X0332450Y0056507D01*
X0332530Y0056660D01*
X0332612Y0056810D01*
X0332699Y0056959D01*
X0332789Y0057105D01*
X0332883Y0057249D01*
X0332980Y0057391D01*
X0333081Y0057530D01*
X0333185Y0057667D01*
X0333292Y0057801D01*
X0333403Y0057932D01*
X0333516Y0058061D01*
X0333633Y0058187D01*
X0333753Y0058310D01*
X0333876Y0058430D01*
X0334002Y0058547D01*
X0334131Y0058660D01*
X0334262Y0058771D01*
X0334396Y0058878D01*
X0334533Y0058982D01*
X0334672Y0059083D01*
X0334814Y0059180D01*
X0334958Y0059274D01*
X0335104Y0059364D01*
X0335253Y0059451D01*
X0335403Y0059533D01*
X0335556Y0059613D01*
X0335710Y0059688D01*
X0335866Y0059759D01*
X0336024Y0059827D01*
X0336184Y0059891D01*
X0336345Y0059951D01*
X0336507Y0060007D01*
X0336671Y0060059D01*
X0336836Y0060106D01*
X0337002Y0060150D01*
X0337169Y0060190D01*
X0337337Y0060225D01*
X0337506Y0060257D01*
X0337676Y0060284D01*
X0337846Y0060307D01*
X0338017Y0060326D01*
X0338188Y0060341D01*
X0338360Y0060352D01*
X0338531Y0060358D01*
X0338703Y0060360D01*
X0338875Y0060358D01*
X0339046Y0060352D01*
X0339218Y0060341D01*
X0339389Y0060326D01*
X0339560Y0060307D01*
X0339730Y0060284D01*
X0339900Y0060257D01*
X0340069Y0060225D01*
X0340237Y0060190D01*
X0340404Y0060150D01*
X0340570Y0060106D01*
X0340735Y0060059D01*
X0340899Y0060007D01*
X0341061Y0059951D01*
X0341222Y0059891D01*
X0341382Y0059827D01*
X0341540Y0059759D01*
X0341696Y0059688D01*
X0341850Y0059613D01*
X0342003Y0059533D01*
X0342153Y0059451D01*
X0342302Y0059364D01*
X0342448Y0059274D01*
X0342592Y0059180D01*
X0342734Y0059083D01*
X0342873Y0058982D01*
X0343010Y0058878D01*
X0343144Y0058771D01*
X0343275Y0058660D01*
X0343404Y0058547D01*
X0343530Y0058430D01*
X0343653Y0058310D01*
X0343773Y0058187D01*
X0343890Y0058061D01*
X0344003Y0057932D01*
X0344114Y0057801D01*
X0344221Y0057667D01*
X0344325Y0057530D01*
X0344426Y0057391D01*
X0344523Y0057249D01*
X0344617Y0057105D01*
X0344707Y0056959D01*
X0344794Y0056810D01*
X0344876Y0056660D01*
X0344956Y0056507D01*
X0345031Y0056353D01*
X0345102Y0056197D01*
X0345170Y0056039D01*
X0345234Y0055879D01*
X0345294Y0055718D01*
X0345350Y0055556D01*
X0345402Y0055392D01*
X0345449Y0055227D01*
X0345493Y0055061D01*
X0345533Y0054894D01*
X0345568Y0054726D01*
X0345600Y0054557D01*
X0345627Y0054387D01*
X0345650Y0054217D01*
X0345669Y0054046D01*
X0345684Y0053875D01*
X0345695Y0053703D01*
X0345701Y0053532D01*
X0345703Y0053360D01*
X0345701Y0053188D01*
X0345695Y0053017D01*
X0345684Y0052845D01*
X0345669Y0052674D01*
X0345650Y0052503D01*
X0345627Y0052333D01*
X0345600Y0052163D01*
X0345568Y0051994D01*
X0345533Y0051826D01*
X0345493Y0051659D01*
X0345449Y0051493D01*
X0345402Y0051328D01*
X0345350Y0051164D01*
X0345294Y0051002D01*
X0345234Y0050841D01*
X0345170Y0050681D01*
X0345102Y0050523D01*
X0345031Y0050367D01*
X0344956Y0050213D01*
X0344876Y0050060D01*
X0344794Y0049910D01*
X0344707Y0049761D01*
X0344617Y0049615D01*
X0344523Y0049471D01*
X0344426Y0049329D01*
X0344325Y0049190D01*
X0344221Y0049053D01*
X0344114Y0048919D01*
X0344003Y0048788D01*
X0343890Y0048659D01*
X0343773Y0048533D01*
X0343653Y0048410D01*
X0343530Y0048290D01*
X0343404Y0048173D01*
X0343275Y0048060D01*
X0343144Y0047949D01*
X0343010Y0047842D01*
X0342873Y0047738D01*
X0342734Y0047637D01*
X0342592Y0047540D01*
X0342448Y0047446D01*
X0342302Y0047356D01*
X0342153Y0047269D01*
X0342003Y0047187D01*
X0341850Y0047107D01*
X0341696Y0047032D01*
X0341540Y0046961D01*
X0341382Y0046893D01*
X0341222Y0046829D01*
X0341061Y0046769D01*
X0340899Y0046713D01*
X0340735Y0046661D01*
X0340570Y0046614D01*
X0340404Y0046570D01*
X0340237Y0046530D01*
X0340069Y0046495D01*
X0339900Y0046463D01*
X0339730Y0046436D01*
X0339560Y0046413D01*
X0339389Y0046394D01*
X0339218Y0046379D01*
X0339046Y0046368D01*
X0338875Y0046362D01*
X0338703Y0046360D01*
X0338531Y0046362D01*
X0338360Y0046368D01*
X0338188Y0046379D01*
X0338017Y0046394D01*
X0337846Y0046413D01*
X0337676Y0046436D01*
X0337506Y0046463D01*
X0337337Y0046495D01*
X0337169Y0046530D01*
X0337002Y0046570D01*
X0336836Y0046614D01*
X0336671Y0046661D01*
X0336507Y0046713D01*
X0336345Y0046769D01*
X0336184Y0046829D01*
X0336024Y0046893D01*
X0335866Y0046961D01*
X0335710Y0047032D01*
X0335556Y0047107D01*
X0335403Y0047187D01*
X0335253Y0047269D01*
X0335104Y0047356D01*
X0334958Y0047446D01*
X0334814Y0047540D01*
X0334672Y0047637D01*
X0334533Y0047738D01*
X0334396Y0047842D01*
X0334262Y0047949D01*
X0334131Y0048060D01*
X0334002Y0048173D01*
X0333876Y0048290D01*
X0333753Y0048410D01*
X0333633Y0048533D01*
X0333516Y0048659D01*
X0333403Y0048788D01*
X0333292Y0048919D01*
X0333185Y0049053D01*
X0333081Y0049190D01*
X0332980Y0049329D01*
X0332883Y0049471D01*
X0332789Y0049615D01*
X0332699Y0049761D01*
X0332612Y0049910D01*
X0332530Y0050060D01*
X0332450Y0050213D01*
X0332375Y0050367D01*
X0332304Y0050523D01*
X0332236Y0050681D01*
X0332172Y0050841D01*
X0332112Y0051002D01*
X0332056Y0051164D01*
X0332004Y0051328D01*
X0331957Y0051493D01*
X0331913Y0051659D01*
X0331873Y0051826D01*
X0331838Y0051994D01*
X0331806Y0052163D01*
X0331779Y0052333D01*
X0331756Y0052503D01*
X0331737Y0052674D01*
X0331722Y0052845D01*
X0331711Y0053017D01*
X0331705Y0053188D01*
X0331703Y0053360D01*
D11*
X0334803Y0053360D02*
X0334805Y0053484D01*
X0334811Y0053609D01*
X0334821Y0053733D01*
X0334835Y0053856D01*
X0334852Y0053979D01*
X0334874Y0054102D01*
X0334900Y0054224D01*
X0334929Y0054344D01*
X0334963Y0054464D01*
X0335000Y0054583D01*
X0335041Y0054700D01*
X0335085Y0054816D01*
X0335133Y0054931D01*
X0335185Y0055044D01*
X0335241Y0055155D01*
X0335300Y0055265D01*
X0335362Y0055372D01*
X0335428Y0055478D01*
X0335497Y0055581D01*
X0335570Y0055682D01*
X0335646Y0055781D01*
X0335724Y0055877D01*
X0335806Y0055971D01*
X0335891Y0056062D01*
X0335978Y0056151D01*
X0336069Y0056236D01*
X0336162Y0056319D01*
X0336258Y0056398D01*
X0336356Y0056474D01*
X0336456Y0056548D01*
X0336559Y0056618D01*
X0336664Y0056684D01*
X0336771Y0056748D01*
X0336880Y0056808D01*
X0336991Y0056864D01*
X0337103Y0056917D01*
X0337218Y0056966D01*
X0337333Y0057012D01*
X0337451Y0057053D01*
X0337569Y0057092D01*
X0337689Y0057126D01*
X0337809Y0057156D01*
X0337931Y0057183D01*
X0338053Y0057205D01*
X0338176Y0057224D01*
X0338299Y0057239D01*
X0338423Y0057250D01*
X0338548Y0057257D01*
X0338672Y0057260D01*
X0338796Y0057259D01*
X0338921Y0057254D01*
X0339045Y0057245D01*
X0339168Y0057232D01*
X0339292Y0057215D01*
X0339414Y0057195D01*
X0339536Y0057170D01*
X0339657Y0057141D01*
X0339777Y0057109D01*
X0339896Y0057073D01*
X0340014Y0057033D01*
X0340131Y0056989D01*
X0340246Y0056942D01*
X0340359Y0056891D01*
X0340471Y0056836D01*
X0340581Y0056778D01*
X0340689Y0056717D01*
X0340795Y0056652D01*
X0340899Y0056583D01*
X0341000Y0056512D01*
X0341100Y0056437D01*
X0341197Y0056359D01*
X0341291Y0056278D01*
X0341383Y0056194D01*
X0341472Y0056107D01*
X0341558Y0056017D01*
X0341641Y0055925D01*
X0341721Y0055830D01*
X0341799Y0055732D01*
X0341873Y0055632D01*
X0341944Y0055530D01*
X0342011Y0055426D01*
X0342075Y0055319D01*
X0342136Y0055210D01*
X0342193Y0055100D01*
X0342247Y0054988D01*
X0342297Y0054874D01*
X0342344Y0054759D01*
X0342386Y0054642D01*
X0342425Y0054524D01*
X0342461Y0054404D01*
X0342492Y0054284D01*
X0342519Y0054163D01*
X0342543Y0054041D01*
X0342563Y0053918D01*
X0342579Y0053794D01*
X0342591Y0053671D01*
X0342599Y0053547D01*
X0342603Y0053422D01*
X0342603Y0053298D01*
X0342599Y0053173D01*
X0342591Y0053049D01*
X0342579Y0052926D01*
X0342563Y0052802D01*
X0342543Y0052679D01*
X0342519Y0052557D01*
X0342492Y0052436D01*
X0342461Y0052316D01*
X0342425Y0052196D01*
X0342386Y0052078D01*
X0342344Y0051961D01*
X0342297Y0051846D01*
X0342247Y0051732D01*
X0342193Y0051620D01*
X0342136Y0051510D01*
X0342075Y0051401D01*
X0342011Y0051294D01*
X0341944Y0051190D01*
X0341873Y0051088D01*
X0341799Y0050988D01*
X0341721Y0050890D01*
X0341641Y0050795D01*
X0341558Y0050703D01*
X0341472Y0050613D01*
X0341383Y0050526D01*
X0341291Y0050442D01*
X0341197Y0050361D01*
X0341100Y0050283D01*
X0341000Y0050208D01*
X0340899Y0050137D01*
X0340795Y0050068D01*
X0340689Y0050003D01*
X0340581Y0049942D01*
X0340471Y0049884D01*
X0340359Y0049829D01*
X0340246Y0049778D01*
X0340131Y0049731D01*
X0340014Y0049687D01*
X0339896Y0049647D01*
X0339777Y0049611D01*
X0339657Y0049579D01*
X0339536Y0049550D01*
X0339414Y0049525D01*
X0339292Y0049505D01*
X0339168Y0049488D01*
X0339045Y0049475D01*
X0338921Y0049466D01*
X0338796Y0049461D01*
X0338672Y0049460D01*
X0338548Y0049463D01*
X0338423Y0049470D01*
X0338299Y0049481D01*
X0338176Y0049496D01*
X0338053Y0049515D01*
X0337931Y0049537D01*
X0337809Y0049564D01*
X0337689Y0049594D01*
X0337569Y0049628D01*
X0337451Y0049667D01*
X0337333Y0049708D01*
X0337218Y0049754D01*
X0337103Y0049803D01*
X0336991Y0049856D01*
X0336880Y0049912D01*
X0336771Y0049972D01*
X0336664Y0050036D01*
X0336559Y0050102D01*
X0336456Y0050172D01*
X0336356Y0050246D01*
X0336258Y0050322D01*
X0336162Y0050401D01*
X0336069Y0050484D01*
X0335978Y0050569D01*
X0335891Y0050658D01*
X0335806Y0050749D01*
X0335724Y0050843D01*
X0335646Y0050939D01*
X0335570Y0051038D01*
X0335497Y0051139D01*
X0335428Y0051242D01*
X0335362Y0051348D01*
X0335300Y0051455D01*
X0335241Y0051565D01*
X0335185Y0051676D01*
X0335133Y0051789D01*
X0335085Y0051904D01*
X0335041Y0052020D01*
X0335000Y0052137D01*
X0334963Y0052256D01*
X0334929Y0052376D01*
X0334900Y0052496D01*
X0334874Y0052618D01*
X0334852Y0052741D01*
X0334835Y0052864D01*
X0334821Y0052987D01*
X0334811Y0053111D01*
X0334805Y0053236D01*
X0334803Y0053360D01*
X0334703Y0049360D02*
X0342703Y0057360D01*
X0334803Y0098360D02*
X0334805Y0098484D01*
X0334811Y0098609D01*
X0334821Y0098733D01*
X0334835Y0098856D01*
X0334852Y0098979D01*
X0334874Y0099102D01*
X0334900Y0099224D01*
X0334929Y0099344D01*
X0334963Y0099464D01*
X0335000Y0099583D01*
X0335041Y0099700D01*
X0335085Y0099816D01*
X0335133Y0099931D01*
X0335185Y0100044D01*
X0335241Y0100155D01*
X0335300Y0100265D01*
X0335362Y0100372D01*
X0335428Y0100478D01*
X0335497Y0100581D01*
X0335570Y0100682D01*
X0335646Y0100781D01*
X0335724Y0100877D01*
X0335806Y0100971D01*
X0335891Y0101062D01*
X0335978Y0101151D01*
X0336069Y0101236D01*
X0336162Y0101319D01*
X0336258Y0101398D01*
X0336356Y0101474D01*
X0336456Y0101548D01*
X0336559Y0101618D01*
X0336664Y0101684D01*
X0336771Y0101748D01*
X0336880Y0101808D01*
X0336991Y0101864D01*
X0337103Y0101917D01*
X0337218Y0101966D01*
X0337333Y0102012D01*
X0337451Y0102053D01*
X0337569Y0102092D01*
X0337689Y0102126D01*
X0337809Y0102156D01*
X0337931Y0102183D01*
X0338053Y0102205D01*
X0338176Y0102224D01*
X0338299Y0102239D01*
X0338423Y0102250D01*
X0338548Y0102257D01*
X0338672Y0102260D01*
X0338796Y0102259D01*
X0338921Y0102254D01*
X0339045Y0102245D01*
X0339168Y0102232D01*
X0339292Y0102215D01*
X0339414Y0102195D01*
X0339536Y0102170D01*
X0339657Y0102141D01*
X0339777Y0102109D01*
X0339896Y0102073D01*
X0340014Y0102033D01*
X0340131Y0101989D01*
X0340246Y0101942D01*
X0340359Y0101891D01*
X0340471Y0101836D01*
X0340581Y0101778D01*
X0340689Y0101717D01*
X0340795Y0101652D01*
X0340899Y0101583D01*
X0341000Y0101512D01*
X0341100Y0101437D01*
X0341197Y0101359D01*
X0341291Y0101278D01*
X0341383Y0101194D01*
X0341472Y0101107D01*
X0341558Y0101017D01*
X0341641Y0100925D01*
X0341721Y0100830D01*
X0341799Y0100732D01*
X0341873Y0100632D01*
X0341944Y0100530D01*
X0342011Y0100426D01*
X0342075Y0100319D01*
X0342136Y0100210D01*
X0342193Y0100100D01*
X0342247Y0099988D01*
X0342297Y0099874D01*
X0342344Y0099759D01*
X0342386Y0099642D01*
X0342425Y0099524D01*
X0342461Y0099404D01*
X0342492Y0099284D01*
X0342519Y0099163D01*
X0342543Y0099041D01*
X0342563Y0098918D01*
X0342579Y0098794D01*
X0342591Y0098671D01*
X0342599Y0098547D01*
X0342603Y0098422D01*
X0342603Y0098298D01*
X0342599Y0098173D01*
X0342591Y0098049D01*
X0342579Y0097926D01*
X0342563Y0097802D01*
X0342543Y0097679D01*
X0342519Y0097557D01*
X0342492Y0097436D01*
X0342461Y0097316D01*
X0342425Y0097196D01*
X0342386Y0097078D01*
X0342344Y0096961D01*
X0342297Y0096846D01*
X0342247Y0096732D01*
X0342193Y0096620D01*
X0342136Y0096510D01*
X0342075Y0096401D01*
X0342011Y0096294D01*
X0341944Y0096190D01*
X0341873Y0096088D01*
X0341799Y0095988D01*
X0341721Y0095890D01*
X0341641Y0095795D01*
X0341558Y0095703D01*
X0341472Y0095613D01*
X0341383Y0095526D01*
X0341291Y0095442D01*
X0341197Y0095361D01*
X0341100Y0095283D01*
X0341000Y0095208D01*
X0340899Y0095137D01*
X0340795Y0095068D01*
X0340689Y0095003D01*
X0340581Y0094942D01*
X0340471Y0094884D01*
X0340359Y0094829D01*
X0340246Y0094778D01*
X0340131Y0094731D01*
X0340014Y0094687D01*
X0339896Y0094647D01*
X0339777Y0094611D01*
X0339657Y0094579D01*
X0339536Y0094550D01*
X0339414Y0094525D01*
X0339292Y0094505D01*
X0339168Y0094488D01*
X0339045Y0094475D01*
X0338921Y0094466D01*
X0338796Y0094461D01*
X0338672Y0094460D01*
X0338548Y0094463D01*
X0338423Y0094470D01*
X0338299Y0094481D01*
X0338176Y0094496D01*
X0338053Y0094515D01*
X0337931Y0094537D01*
X0337809Y0094564D01*
X0337689Y0094594D01*
X0337569Y0094628D01*
X0337451Y0094667D01*
X0337333Y0094708D01*
X0337218Y0094754D01*
X0337103Y0094803D01*
X0336991Y0094856D01*
X0336880Y0094912D01*
X0336771Y0094972D01*
X0336664Y0095036D01*
X0336559Y0095102D01*
X0336456Y0095172D01*
X0336356Y0095246D01*
X0336258Y0095322D01*
X0336162Y0095401D01*
X0336069Y0095484D01*
X0335978Y0095569D01*
X0335891Y0095658D01*
X0335806Y0095749D01*
X0335724Y0095843D01*
X0335646Y0095939D01*
X0335570Y0096038D01*
X0335497Y0096139D01*
X0335428Y0096242D01*
X0335362Y0096348D01*
X0335300Y0096455D01*
X0335241Y0096565D01*
X0335185Y0096676D01*
X0335133Y0096789D01*
X0335085Y0096904D01*
X0335041Y0097020D01*
X0335000Y0097137D01*
X0334963Y0097256D01*
X0334929Y0097376D01*
X0334900Y0097496D01*
X0334874Y0097618D01*
X0334852Y0097741D01*
X0334835Y0097864D01*
X0334821Y0097987D01*
X0334811Y0098111D01*
X0334805Y0098236D01*
X0334803Y0098360D01*
X0334703Y0094360D02*
X0342703Y0102360D01*
X0113506Y0085387D02*
X0109506Y0085387D01*
X0113506Y0085387D02*
X0117506Y0089387D01*
X0117506Y0081387D01*
X0113506Y0085387D01*
X0113506Y0125387D02*
X0109506Y0125387D01*
X0113506Y0125387D02*
X0117506Y0129387D01*
X0117506Y0121387D01*
X0113506Y0125387D01*
M02*
