%
M48
M72
T01C0.01181
T02C0.01575
T03C0.01969
T04C0.03200
T05C0.03500
T06C0.03543
T07C0.04000
T08C0.06500
T09C0.07874
T10C0.11024
T11C0.12598
T12C0.14000
%
T01
X88309Y34127
X96971Y35308
X109569Y36096
X120987Y40427
X114687Y50269
X121380Y56962
X111144Y62080
X120593Y69560
X145396Y90033
X152089Y96332
X160357Y104206
X156420Y107749
X156420Y112474
X145002Y112867
X156420Y118773
X163113Y127434
X172168Y119954
X177286Y119954
X177286Y114836
X187916Y116017
X187916Y103419
X178861Y103419
X169412Y103419
X178073Y88064
X194609Y88064
X212325Y90033
X212325Y84915
X212325Y80584
X217837Y80584
X227680Y85308
X231223Y85308
X235554Y80584
X240672Y80584
X246577Y80584
X252089Y80584
X256813Y79009
X257207Y69954
X267837Y64049
X272561Y66017
X269412Y69954
X281223Y75466
X285947Y73104
X286735Y68379
X287128Y54600
X287128Y49482
X281223Y49482
X274924Y49482
X267837Y49482
X281223Y54600
X285947Y40427
X295790Y38064
X305239Y40820
X305632Y35308
X319018Y36883
X329648Y30978
X326892Y22316
X338703Y21923
X354057Y25072
X346577Y34915
X361538Y38852
X377286Y40033
X377286Y31765
X377286Y47907
X368231Y51844
X377286Y55781
X377286Y64049
X368231Y67986
X377286Y71923
X377286Y80190
X377286Y88064
X367837Y83340
X377286Y95938
X367837Y100269
X377286Y104206
X347365Y120348
X309963Y121923
X289491Y119954
X276105Y106962
X262325Y101844
X274530Y93576
X287128Y86489
X290672Y96726
X325317Y84915
X332010Y78222
X323743Y73104
X306026Y51450
X285947Y35308
X276105Y38064
X265869Y40427
X256420Y37671
X249333Y40033
X244609Y40033
X239884Y35308
X233191Y44364
X242246Y50269
X236341Y51056
X232010Y51056
X240672Y62867
X240672Y68773
X235554Y68773
X235554Y75072
X240672Y75072
X209963Y67592
X200120Y60899
X193428Y64442
X184372Y62474
X184372Y67986
X180435Y67986
X176498Y67986
X172561Y67986
X172561Y62474
X165081Y53419
X184372Y48301
X184372Y39245
X164687Y38852
X165869Y19560
X185947Y19167
X211144Y19167
X230829Y19167
X241065Y19167
X261144Y19167
X270593Y19167
X290672Y19167
X300908Y19167
X325317Y12474
X333585Y12474
X341459Y12474
X349333Y12474
X357601Y12474
X265869Y35308
X252876Y46726
X239097Y106962
X258388Y120348
X272168Y133734
X243821Y136489
X228073Y122316
X213113Y110899
X185947Y130584
X202483Y133340
X203664Y147119
X188703Y146332
X178467Y152631
X169018Y151844
X160357Y146726
X156026Y146726
X150120Y145151
X160357Y142001
X160357Y137277
X170199Y144364
X137522Y154600
X137522Y159324
X133585Y159324
X137522Y164049
X142640Y164049
X148152Y162867
X142640Y168773
X155239Y169954
X155239Y174285
X160750Y174285
X165869Y171923
X160750Y169954
X165869Y166411
X176105Y171923
X201695Y171923
X230829Y171923
X251302Y173104
X251302Y179009
X257207Y179009
X277680Y167592
X280435Y153812
X254057Y152631
X222168Y151056
X133585Y125860
X119806Y113261
X119806Y97119
X119412Y140427
X112325Y148301
X115475Y157356
X111144Y168379
X106813Y176253
X116262Y181765
X113506Y190820
X117050Y198301
X108782Y198301
X88309Y177041
X325317Y198301
X333585Y198301
X341459Y198301
X349333Y198301
X357601Y198301
X349333Y186489
X333585Y186489
X111931Y24285
X107994Y12474
X116262Y12474
T02
X228861Y59718
X257207Y62867
X256813Y74088
T03
X241853Y159324
X167050Y159324
T04
X303703Y93360
X313703Y88360
X303703Y83360
X313703Y78360
X303703Y73360
X313703Y68360
X303703Y63360
X313703Y58360
X358203Y59860
X358203Y49860
X358203Y91860
X358203Y101860
T05
X373939Y113615
X373939Y123615
X373939Y133615
X373939Y143615
T06
X133506Y105387
X133506Y95387
T07
X100002Y95387
X90002Y95387
X90002Y85387
X100002Y85387
X100002Y65387
X90002Y65387
X90002Y55387
X100002Y55387
X100002Y45387
X90002Y45387
X125987Y24167
X135987Y24167
X145987Y24167
X155987Y24167
X155987Y14167
X145987Y14167
X135987Y14167
X125987Y14167
X175987Y14167
X175987Y24167
X195987Y24167
X205987Y24167
X215987Y24167
X225987Y24167
X235987Y24167
X245987Y24167
X255987Y24167
X255987Y14167
X265987Y14167
X275987Y14167
X285987Y14167
X295987Y14167
X305987Y14167
X315987Y14167
X315987Y24167
X305987Y24167
X295987Y24167
X285987Y24167
X275987Y24167
X245987Y14167
X235987Y14167
X225987Y14167
X215987Y14167
X205987Y14167
X195987Y14167
X100002Y105387
X90002Y105387
X90002Y115387
X100002Y115387
X100002Y125387
X90002Y125387
X90002Y145387
X100002Y145387
X100002Y155387
X90002Y155387
X90002Y165387
X100002Y165387
X125987Y186608
X135987Y186608
X145987Y186608
X155987Y186608
X165987Y186608
X165987Y196608
X175987Y196608
X185987Y196608
X195987Y196608
X205987Y196608
X215987Y196608
X225987Y196608
X235987Y196608
X245987Y196608
X245987Y186608
X235987Y186608
X225987Y186608
X215987Y186608
X205987Y186608
X195987Y186608
X185987Y186608
X155987Y196608
X145987Y196608
X135987Y196608
X125987Y196608
X265987Y196608
X265987Y186608
X285987Y186608
X295987Y186608
X305987Y186608
X315987Y186608
X315987Y196608
X305987Y196608
X295987Y196608
X285987Y196608
T08
X327203Y107360
X327203Y44360
T09
X113506Y85387
X113506Y125387
T10
X326892Y146332
X350514Y146332
X338703Y165230
T11
X369412Y190427
X96183Y190427
X96183Y20348
X369412Y20348
T12
X338703Y53360
X338703Y98360
M30
