G75*
%MOIN*%
%OFA0B0*%
%FSLAX25Y25*%
%IPPOS*%
%LPD*%
%AMOC8*
5,1,8,0,0,1.08239X$1,22.5*
%
%ADD10C,0.06343*%
%ADD11C,0.08674*%
%ADD12OC8,0.06800*%
%ADD13R,0.06800X0.06800*%
%ADD14C,0.06800*%
%ADD15C,0.10550*%
%ADD16C,0.14800*%
%ADD17R,0.04737X0.05131*%
%ADD18R,0.05131X0.04737*%
%ADD19R,0.05918X0.06706*%
%ADD20R,0.06706X0.05918*%
%ADD21C,0.16548*%
%ADD22R,0.07300X0.07300*%
%ADD23C,0.07300*%
%ADD24R,0.05603X0.03241*%
%ADD25R,0.15761X0.11824*%
%ADD26R,0.01784X0.03950*%
%ADD27C,0.20485*%
%ADD28C,0.04737*%
D10*
X0133506Y0095387D03*
X0133506Y0105387D03*
D11*
X0113506Y0125387D03*
X0113506Y0085387D03*
D12*
X0090002Y0045387D03*
X0100002Y0045387D03*
X0100002Y0055387D03*
X0090002Y0055387D03*
X0090002Y0065387D03*
X0100002Y0065387D03*
X0100002Y0085387D03*
X0090002Y0085387D03*
X0090002Y0095387D03*
X0100002Y0095387D03*
X0100002Y0105387D03*
X0090002Y0105387D03*
X0090002Y0115387D03*
X0100002Y0115387D03*
X0100002Y0125387D03*
X0090002Y0125387D03*
X0090002Y0145387D03*
X0100002Y0145387D03*
X0100002Y0155387D03*
X0090002Y0155387D03*
X0090002Y0165387D03*
X0100002Y0165387D03*
X0125987Y0186608D03*
X0135987Y0186608D03*
X0145987Y0186608D03*
X0155987Y0186608D03*
X0165987Y0186608D03*
X0165987Y0196608D03*
X0175987Y0196608D03*
X0185987Y0196608D03*
X0195987Y0196608D03*
X0205987Y0196608D03*
X0215987Y0196608D03*
X0225987Y0196608D03*
X0235987Y0196608D03*
X0245987Y0196608D03*
X0245987Y0186608D03*
X0235987Y0186608D03*
X0225987Y0186608D03*
X0215987Y0186608D03*
X0205987Y0186608D03*
X0195987Y0186608D03*
X0185987Y0186608D03*
X0155987Y0196608D03*
X0145987Y0196608D03*
X0135987Y0196608D03*
X0125987Y0196608D03*
X0265987Y0196608D03*
X0265987Y0186608D03*
X0285987Y0186608D03*
X0295987Y0186608D03*
X0305987Y0186608D03*
X0315987Y0186608D03*
X0315987Y0196608D03*
X0305987Y0196608D03*
X0295987Y0196608D03*
X0285987Y0196608D03*
X0285987Y0024167D03*
X0295987Y0024167D03*
X0305987Y0024167D03*
X0315987Y0024167D03*
X0315987Y0014167D03*
X0305987Y0014167D03*
X0295987Y0014167D03*
X0285987Y0014167D03*
X0275987Y0014167D03*
X0265987Y0014167D03*
X0255987Y0014167D03*
X0245987Y0014167D03*
X0235987Y0014167D03*
X0225987Y0014167D03*
X0215987Y0014167D03*
X0205987Y0014167D03*
X0195987Y0014167D03*
X0195987Y0024167D03*
X0205987Y0024167D03*
X0215987Y0024167D03*
X0225987Y0024167D03*
X0235987Y0024167D03*
X0245987Y0024167D03*
X0255987Y0024167D03*
X0275987Y0024167D03*
X0175987Y0024167D03*
X0175987Y0014167D03*
X0155987Y0014167D03*
X0145987Y0014167D03*
X0135987Y0014167D03*
X0125987Y0014167D03*
X0125987Y0024167D03*
X0135987Y0024167D03*
X0145987Y0024167D03*
X0155987Y0024167D03*
D13*
X0313703Y0058360D03*
D14*
X0303703Y0063360D03*
X0313703Y0068360D03*
X0303703Y0073360D03*
X0313703Y0078360D03*
X0303703Y0083360D03*
X0313703Y0088360D03*
X0303703Y0093360D03*
X0358203Y0091860D03*
X0358203Y0101860D03*
X0358203Y0059860D03*
X0358203Y0049860D03*
D15*
X0327203Y0044360D03*
X0327203Y0107360D03*
D16*
X0338703Y0098360D03*
X0338703Y0053360D03*
D17*
X0290672Y0055190D03*
X0290672Y0048497D03*
X0267837Y0052828D03*
X0258979Y0050269D03*
X0252286Y0050269D03*
X0246577Y0051253D03*
X0246577Y0044560D03*
X0267837Y0059521D03*
X0272758Y0064049D03*
X0279451Y0064049D03*
X0279451Y0070741D03*
X0272758Y0070741D03*
X0290672Y0085899D03*
X0290672Y0092592D03*
X0172168Y0109127D03*
X0172168Y0115820D03*
X0156420Y0126844D03*
X0156420Y0133537D03*
X0155239Y0159521D03*
X0160750Y0159521D03*
X0160750Y0166214D03*
X0155239Y0166214D03*
D18*
X0148546Y0169757D03*
X0148546Y0176450D03*
X0150908Y0133537D03*
X0150908Y0126844D03*
X0216459Y0090033D03*
X0216459Y0084915D03*
X0223152Y0084915D03*
X0223152Y0090033D03*
X0245199Y0074285D03*
X0251892Y0074285D03*
X0235750Y0063261D03*
X0229057Y0063261D03*
X0245593Y0062867D03*
X0252286Y0062867D03*
X0177680Y0048497D03*
X0177680Y0041804D03*
X0265869Y0166608D03*
X0265869Y0173301D03*
D19*
X0251892Y0068576D03*
X0244412Y0068576D03*
D20*
X0178467Y0063458D03*
X0178467Y0055978D03*
X0257207Y0166608D03*
X0257207Y0174088D03*
D21*
X0326892Y0146332D03*
X0350514Y0146332D03*
X0338703Y0165230D03*
D22*
X0373939Y0143615D03*
D23*
X0373939Y0133615D03*
X0373939Y0123615D03*
X0373939Y0113615D03*
D24*
X0161538Y0112474D03*
X0161538Y0116214D03*
X0151302Y0116214D03*
X0151302Y0112474D03*
X0151302Y0108734D03*
X0161538Y0108734D03*
D25*
X0303270Y0140427D03*
X0303270Y0169560D03*
D26*
X0150908Y0158734D03*
X0148939Y0158734D03*
X0146971Y0158734D03*
X0145002Y0158734D03*
X0143034Y0158734D03*
X0143034Y0141017D03*
X0145002Y0141017D03*
X0146971Y0141017D03*
X0148939Y0141017D03*
X0150908Y0141017D03*
D27*
X0096183Y0190427D03*
X0369412Y0190427D03*
X0369412Y0020348D03*
X0096183Y0020348D03*
D28*
X0167050Y0159324D03*
X0241853Y0159324D03*
M02*
